<svg id="Capa_1" enable-background="new 0 0 510 510" height="512" viewBox="0 0 510 510" width="512" xmlns="http://www.w3.org/2000/svg" xmlns:xlink="http://www.w3.org/1999/xlink"><linearGradient id="lg1"><stop offset="0" stop-color="#ffda2d"/><stop offset="1" stop-color="#fdbf00"/></linearGradient><linearGradient id="SVGID_1_" gradientUnits="userSpaceOnUse" x1="255" x2="255" xlink:href="#lg1" y1="328.193" y2="444.301"/><linearGradient id="SVGID_2_" gradientUnits="userSpaceOnUse" x1="255" x2="255" xlink:href="#lg1" y1="309.85" y2="417.938"/><linearGradient id="lg2"><stop offset="0" stop-color="#ff9100" stop-opacity="0"/><stop offset="1" stop-color="#ff9100"/></linearGradient><linearGradient id="SVGID_3_" gradientUnits="userSpaceOnUse" x1="419.276" x2="327.276" xlink:href="#lg2" y1="369.773" y2="254.773"/><linearGradient id="SVGID_4_" gradientUnits="userSpaceOnUse" x1="250.535" x2="320.11" xlink:href="#lg1" y1="154.06" y2="316.401"/><linearGradient id="SVGID_5_" gradientUnits="userSpaceOnUse" x1="255" x2="255" xlink:href="#lg2" y1="427.193" y2="519.193"/><linearGradient id="SVGID_6_" gradientUnits="userSpaceOnUse" x1="402.281" x2="270.552" xlink:href="#lg2" y1="332.715" y2="76.242"/><linearGradient id="SVGID_7_" gradientUnits="userSpaceOnUse" x1="199.599" x2="314.407" y1="101.175" y2="215.983"><stop offset="0" stop-color="#ff637b"/><stop offset="1" stop-color="#e63950"/></linearGradient><linearGradient id="lg3"><stop offset="0" stop-color="#e63950" stop-opacity="0"/><stop offset=".0467" stop-color="#e4354b" stop-opacity=".047"/><stop offset=".4669" stop-color="#d31822" stop-opacity=".467"/><stop offset=".7991" stop-color="#c90709" stop-opacity=".799"/><stop offset="1" stop-color="#c50000"/></linearGradient><linearGradient id="SVGID_8_" gradientUnits="userSpaceOnUse" x1="329.439" x2="206.468" xlink:href="#lg3" y1="188.374" y2="106.062"/><linearGradient id="SVGID_9_" gradientUnits="userSpaceOnUse" x1="301.052" x2="238.614" xlink:href="#lg3" y1="269.575" y2="226.463"/><linearGradient id="SVGID_10_" gradientUnits="userSpaceOnUse" x1="234.751" x2="275.249" y1="156.576" y2="156.576"><stop offset="0" stop-color="#edf5ff"/><stop offset="1" stop-color="#d5e8fe"/></linearGradient><g><g><path d="m485.329 472.536h-460.658c-13.625 0-24.671-11.046-24.671-24.672v-269.343c0-13.626 11.046-24.671 24.671-24.671h460.657c13.626 0 24.671 11.046 24.671 24.671v269.343c.001 13.626-11.045 24.672-24.67 24.672z" fill="url(#SVGID_1_)"/><path d="m485.329 472.536h-460.658c-8.407 0-15.827-4.208-20.281-10.629l217.12-203.454c18.838-17.652 48.143-17.652 66.981 0l217.119 203.454c-4.455 6.421-11.875 10.629-20.281 10.629z" fill="url(#SVGID_2_)"/><path d="m485.329 153.85h-460.658c-8.407 0-15.827 4.208-20.281 10.629l308.057 308.057h172.881c13.626 0 24.671-11.046 24.671-24.672v-269.343c.001-13.625-11.045-24.671-24.67-24.671z" fill="url(#SVGID_3_)"/><path d="m485.329 153.85h-460.658c-8.407 0-15.827 4.208-20.281 10.629l217.12 221.464c18.838 17.652 48.143 17.652 66.981 0l217.119-221.464c-4.455-6.421-11.875-10.629-20.281-10.629z" fill="url(#SVGID_4_)"/><path d="m0 388.921v58.944c0 13.626 11.046 24.672 24.671 24.672h460.657c13.626 0 24.671-11.046 24.671-24.672v-58.944z" fill="url(#SVGID_5_)"/></g><path d="m510 178.526v269.34c0 13.62-11.05 24.67-24.67 24.67h-82.69l-228.6-228.61c-23.46-21.75-36.149-52.83-36.149-87.35 0-.91.01-1.82.03-2.73h347.409c13.62 0 24.67 11.05 24.67 24.68z" fill="url(#SVGID_6_)"/><circle cx="255" cy="156.576" fill="url(#SVGID_7_)" r="119.112"/><path d="m373.513 168.572-102.52-102.52c-3.407-4.547-9.423-5.014-16.125-5.014-10.852 0-17.321 3.822-17.321 14.145 0 31.498 3.706 76.762 3.706 108.26 0 4.117-.2 7.034 2.663 8.919l68.56 68.56c33.433-18.456 57.053-52.508 61.037-92.35z" fill="url(#SVGID_8_)"/><path d="m311.349 261.537-41.405-41.405c-3.719-4.136-9.032-5.779-14.812-5.779-11.647 0-19.381 8.264-19.381 19.381 0 5.927 1.617 11.445 5.878 15.246l26.036 26.036c15.668-1.655 30.429-6.347 43.684-13.479z" fill="url(#SVGID_9_)"/><g><path d="m275.249 233.735c0 10.853-9.264 20.382-20.117 20.382-11.647 0-20.382-9.529-20.382-20.382 0-11.117 8.735-20.382 20.382-20.382 10.853 0 20.117 9.265 20.117 20.382zm-5.029-50.292c0 8.206-9 11.647-15.353 11.647-8.47 0-15.617-3.441-15.617-11.647 0-31.498-3.706-76.762-3.706-108.26 0-10.323 8.47-16.147 19.323-16.147 10.323 0 19.058 5.823 19.058 16.147.001 31.498-3.705 76.761-3.705 108.26z" fill="url(#SVGID_10_)"/></g></g></svg>