<svg id="Capa_1" enable-background="new 0 0 510 510" height="512" viewBox="0 0 510 510" width="512" xmlns="http://www.w3.org/2000/svg" xmlns:xlink="http://www.w3.org/1999/xlink"><linearGradient id="SVGID_1_" gradientUnits="userSpaceOnUse" x1="191.38" x2="320.376" y1="109.999" y2="345.359"><stop offset="0" stop-color="#ffda2d"/><stop offset=".3702" stop-color="#fed220"/><stop offset="1" stop-color="#fdbf00"/></linearGradient><linearGradient id="lg1"><stop offset="0" stop-color="#ff637b"/><stop offset="1" stop-color="#e63950"/></linearGradient><linearGradient id="SVGID_2_" gradientUnits="userSpaceOnUse" x1="77.855" x2="98.318" xlink:href="#lg1" y1="250.516" y2="338.664"/><linearGradient id="lg2"><stop offset="0" stop-color="#e63950" stop-opacity="0"/><stop offset=".0467" stop-color="#e4354b" stop-opacity=".047"/><stop offset=".4669" stop-color="#d31822" stop-opacity=".467"/><stop offset=".7991" stop-color="#c90709" stop-opacity=".799"/><stop offset="1" stop-color="#c50000"/></linearGradient><linearGradient id="SVGID_3_" gradientUnits="userSpaceOnUse" x1="91.034" x2="167.084" xlink:href="#lg2" y1="287.328" y2="363.379"/><linearGradient id="SVGID_4_" gradientUnits="userSpaceOnUse" x1="247.855" x2="268.318" xlink:href="#lg1" y1="250.516" y2="338.664"/><linearGradient id="SVGID_5_" gradientUnits="userSpaceOnUse" x1="261.034" x2="337.084" xlink:href="#lg2" y1="287.328" y2="363.379"/><linearGradient id="SVGID_6_" gradientUnits="userSpaceOnUse" x1="417.855" x2="438.318" xlink:href="#lg1" y1="250.516" y2="338.664"/><linearGradient id="SVGID_7_" gradientUnits="userSpaceOnUse" x1="431.034" x2="507.084" xlink:href="#lg2" y1="287.328" y2="363.379"/><linearGradient id="SVGID_8_" gradientUnits="userSpaceOnUse" x1="162.855" x2="183.318" xlink:href="#lg1" y1="341.998" y2="430.146"/><linearGradient id="SVGID_9_" gradientUnits="userSpaceOnUse" x1="176.034" x2="252.084" xlink:href="#lg2" y1="378.811" y2="454.861"/><linearGradient id="SVGID_10_" gradientUnits="userSpaceOnUse" x1="36.465" x2="53.75" xlink:href="#lg1" y1="346.778" y2="421.237"/><linearGradient id="SVGID_11_" gradientUnits="userSpaceOnUse" x1="51.613" x2="94.957" xlink:href="#lg2" y1="381.89" y2="425.233"/><linearGradient id="SVGID_12_" gradientUnits="userSpaceOnUse" x1="461.465" x2="478.75" xlink:href="#lg1" y1="346.778" y2="421.237"/><linearGradient id="SVGID_13_" gradientUnits="userSpaceOnUse" x1="476.613" x2="519.957" xlink:href="#lg2" y1="381.89" y2="425.233"/><linearGradient id="SVGID_14_" gradientUnits="userSpaceOnUse" x1="332.855" x2="353.318" xlink:href="#lg1" y1="341.998" y2="430.146"/><linearGradient id="SVGID_15_" gradientUnits="userSpaceOnUse" x1="346.034" x2="422.084" xlink:href="#lg2" y1="378.811" y2="454.861"/><linearGradient id="SVGID_16_" gradientUnits="userSpaceOnUse" x1="77.855" x2="98.318" xlink:href="#lg1" y1="433.48" y2="521.629"/><linearGradient id="SVGID_17_" gradientUnits="userSpaceOnUse" x1="91.034" x2="167.084" xlink:href="#lg2" y1="470.293" y2="546.343"/><linearGradient id="SVGID_18_" gradientUnits="userSpaceOnUse" x1="247.855" x2="268.318" xlink:href="#lg1" y1="433.48" y2="521.629"/><linearGradient id="SVGID_19_" gradientUnits="userSpaceOnUse" x1="261.034" x2="337.084" xlink:href="#lg2" y1="470.293" y2="546.343"/><linearGradient id="SVGID_20_" gradientUnits="userSpaceOnUse" x1="417.855" x2="438.318" xlink:href="#lg1" y1="433.48" y2="521.629"/><linearGradient id="SVGID_21_" gradientUnits="userSpaceOnUse" x1="431.034" x2="507.084" xlink:href="#lg2" y1="470.293" y2="546.343"/><linearGradient id="SVGID_22_" gradientUnits="userSpaceOnUse" x1="237.385" x2="300.93" y1="173.047" y2="393.866"><stop offset="0" stop-color="#ff9100" stop-opacity="0"/><stop offset=".1948" stop-color="#fc860a" stop-opacity=".195"/><stop offset=".5332" stop-color="#f46a23" stop-opacity=".533"/><stop offset=".9723" stop-color="#e73c4d" stop-opacity=".972"/><stop offset="1" stop-color="#e63950"/></linearGradient><linearGradient id="lg3"><stop offset="0" stop-color="#ffda2d" stop-opacity="0"/><stop offset="1" stop-color="#fbed21"/></linearGradient><linearGradient id="SVGID_23_" gradientUnits="userSpaceOnUse" x1="326.253" x2="114.171" xlink:href="#lg3" y1="391.359" y2="-79.272"/><linearGradient id="SVGID_24_" gradientUnits="userSpaceOnUse" x1="277.997" x2="139.109" xlink:href="#lg3" y1="303.36" y2="106.189"/><linearGradient id="SVGID_25_" gradientUnits="userSpaceOnUse" x1="201.94" x2="309.173" y1="221.892" y2="401.407"><stop offset="0" stop-color="#ff9100" stop-opacity="0"/><stop offset=".1325" stop-color="#fb8600" stop-opacity=".133"/><stop offset=".3628" stop-color="#ef6a00" stop-opacity=".363"/><stop offset=".6634" stop-color="#dd3c00" stop-opacity=".663"/><stop offset="1" stop-color="#c50000"/></linearGradient><linearGradient id="lg4"><stop offset="0" stop-color="#ffda2d"/><stop offset="1" stop-color="#ff9100"/></linearGradient><linearGradient id="SVGID_26_" gradientUnits="userSpaceOnUse" x1="102.814" x2="126.517" xlink:href="#lg4" y1="91.929" y2="115.633"/><linearGradient id="SVGID_27_" gradientUnits="userSpaceOnUse" x1="449.648" x2="481.274" xlink:href="#lg4" y1="190.938" y2="222.564"/><linearGradient id="SVGID_28_" gradientUnits="userSpaceOnUse" x1="391.549" x2="407.954" xlink:href="#lg4" y1="49.981" y2="66.386"/><linearGradient id="SVGID_29_" gradientUnits="userSpaceOnUse" x1="53.668" x2="70.073" xlink:href="#lg4" y1="214.522" y2="230.927"/><linearGradient id="SVGID_30_" gradientUnits="userSpaceOnUse" x1="366.127" x2="377.66" xlink:href="#lg4" y1="19.793" y2="31.326"/><g><path d="m363.879 48.213c-3.091 4.341-6.963 10.186-11.141 17.458-2.041 3.553-7.65 3.706-9.922.266-25.466-38.572-55.957-65.937-88.73-65.937-52.215 0-98.642 69.446-128.173 143.038-4.004 9.979-19.977 9.922-23.652-.158-.056-.153-.111-.307-.166-.462-1.567-4.414-8.678-4.2-10.025.272-12.206 40.512-33.167 140.083 25.112 216.449 28.571 40.696 79.186 67.772 136.903 67.772 45.993 0 87.464-17.209 116.885-44.781 13.289-14.313 60.859-54.497 60.859-141.837 0-112.774-56.109-143.282-60.719-190.531-.326-3.343-5.215-4.379-7.231-1.549z" fill="url(#SVGID_1_)"/><g><g fill="#c50000"><circle cx="85" cy="418.518" r="12.387"/><circle cx="170" cy="418.518" r="12.387"/><circle cx="255" cy="418.518" r="12.387"/><circle cx="340" cy="418.518" r="12.387"/><circle cx="425" cy="418.518" r="12.387"/></g><g fill="#c50000"><circle cx="85" cy="327.036" r="12.387"/><circle cx="170" cy="327.036" r="12.387"/><circle cx="255" cy="327.036" r="12.387"/><circle cx="340" cy="327.036" r="12.387"/><circle cx="425" cy="327.036" r="12.387"/></g><g><g><path d="m160.556 327.035h-151.112c-5.216 0-9.444-4.228-9.444-9.444v-72.593c0-5.216 4.228-9.444 9.444-9.444h151.111c5.216 0 9.444 4.228 9.444 9.444v72.593c.001 5.216-4.227 9.444-9.443 9.444z" fill="url(#SVGID_2_)"/><path d="m160.556 235.553h-8.657v63.936c0 5.216-4.228 9.444-9.444 9.444h-142.455v8.657c0 5.216 4.228 9.444 9.444 9.444h151.111c5.216 0 9.444-4.229 9.444-9.444v-72.593c.001-5.215-4.227-9.444-9.443-9.444z" fill="url(#SVGID_3_)"/></g><g><path d="m330.556 327.035h-151.112c-5.216 0-9.444-4.228-9.444-9.444v-72.593c0-5.216 4.228-9.444 9.444-9.444h151.111c5.216 0 9.444 4.228 9.444 9.444v72.593c.001 5.216-4.227 9.444-9.443 9.444z" fill="url(#SVGID_4_)"/><path d="m330.556 235.553h-8.657v63.936c0 5.216-4.228 9.444-9.444 9.444h-142.455v8.657c0 5.216 4.228 9.444 9.444 9.444h151.111c5.216 0 9.444-4.229 9.444-9.444v-72.593c.001-5.215-4.227-9.444-9.443-9.444z" fill="url(#SVGID_5_)"/></g><g><path d="m500.556 327.035h-151.112c-5.216 0-9.444-4.228-9.444-9.444v-72.593c0-5.216 4.228-9.444 9.444-9.444h151.111c5.216 0 9.444 4.228 9.444 9.444v72.593c.001 5.216-4.227 9.444-9.443 9.444z" fill="url(#SVGID_6_)"/><path d="m500.556 235.553h-8.657v63.936c0 5.216-4.228 9.444-9.444 9.444h-142.455v8.657c0 5.216 4.228 9.444 9.444 9.444h151.111c5.216 0 9.444-4.229 9.444-9.444v-72.593c.001-5.215-4.227-9.444-9.443-9.444z" fill="url(#SVGID_7_)"/></g></g><g><g><path d="m245.556 418.518h-151.112c-5.216 0-9.444-4.228-9.444-9.444v-72.594c0-5.216 4.228-9.444 9.444-9.444h151.111c5.216 0 9.444 4.228 9.444 9.444v72.593c.001 5.216-4.227 9.445-9.443 9.445z" fill="url(#SVGID_8_)"/><path d="m245.556 327.035h-8.657v63.936c0 5.216-4.228 9.444-9.444 9.444h-142.455v8.657c0 5.216 4.228 9.444 9.444 9.444h151.111c5.216 0 9.444-4.229 9.444-9.444v-72.592c.001-5.216-4.227-9.445-9.443-9.445z" fill="url(#SVGID_9_)"/></g><g><path d="m75.556 418.518h-66.112c-5.216 0-9.444-4.228-9.444-9.444v-72.594c0-5.216 4.228-9.444 9.444-9.444h66.111c5.216 0 9.444 4.228 9.444 9.444v72.593c.001 5.216-4.227 9.445-9.443 9.445z" fill="url(#SVGID_10_)"/><path d="m75.556 327.035h-8.657v63.936c0 5.216-4.228 9.444-9.444 9.444h-57.455v8.657c0 5.216 4.228 9.444 9.444 9.444h66.111c5.216 0 9.444-4.229 9.444-9.444v-72.592c.001-5.216-4.227-9.445-9.443-9.445z" fill="url(#SVGID_11_)"/></g><g><path d="m500.556 418.518h-66.111c-5.216 0-9.444-4.228-9.444-9.444v-72.594c0-5.216 4.228-9.444 9.444-9.444h66.111c5.216 0 9.444 4.228 9.444 9.444v72.593c0 5.216-4.228 9.445-9.444 9.445z" fill="url(#SVGID_12_)"/><path d="m500.556 327.035h-8.657v63.936c0 5.216-4.228 9.444-9.444 9.444h-57.455v8.657c0 5.216 4.228 9.444 9.444 9.444h66.111c5.216 0 9.444-4.229 9.444-9.444v-72.592c.001-5.216-4.227-9.445-9.443-9.445z" fill="url(#SVGID_13_)"/></g><g><path d="m415.556 418.518h-151.112c-5.216 0-9.444-4.228-9.444-9.444v-72.594c0-5.216 4.228-9.444 9.444-9.444h151.111c5.216 0 9.444 4.228 9.444 9.444v72.593c.001 5.216-4.227 9.445-9.443 9.445z" fill="url(#SVGID_14_)"/><path d="m415.556 327.035h-8.657v63.936c0 5.216-4.228 9.444-9.444 9.444h-142.455v8.657c0 5.216 4.228 9.444 9.444 9.444h151.111c5.216 0 9.444-4.229 9.444-9.444v-72.592c.001-5.216-4.227-9.445-9.443-9.445z" fill="url(#SVGID_15_)"/></g></g><g><g><path d="m160.556 510h-151.112c-5.216 0-9.444-4.229-9.444-9.445v-72.593c0-5.216 4.228-9.444 9.444-9.444h151.111c5.216 0 9.444 4.228 9.444 9.444v72.593c.001 5.216-4.227 9.445-9.443 9.445z" fill="url(#SVGID_16_)"/><path d="m160.556 418.518h-8.657v63.936c0 5.216-4.228 9.444-9.444 9.444h-142.455v8.657c0 5.216 4.228 9.445 9.444 9.445h151.111c5.216 0 9.444-4.229 9.444-9.444v-72.593c.001-5.217-4.227-9.445-9.443-9.445z" fill="url(#SVGID_17_)"/></g><g><path d="m330.556 510h-151.112c-5.216 0-9.444-4.228-9.444-9.444v-72.593c0-5.216 4.228-9.444 9.444-9.444h151.111c5.216 0 9.444 4.228 9.444 9.444v72.593c.001 5.215-4.227 9.444-9.443 9.444z" fill="url(#SVGID_18_)"/><path d="m330.556 418.518h-8.657v63.936c0 5.216-4.228 9.444-9.444 9.444h-142.455v8.657c0 5.216 4.228 9.444 9.444 9.444h151.111c5.216 0 9.444-4.229 9.444-9.444v-72.593c.001-5.216-4.227-9.444-9.443-9.444z" fill="url(#SVGID_19_)"/></g><g><path d="m500.556 510h-151.112c-5.216 0-9.444-4.228-9.444-9.444v-72.593c0-5.216 4.228-9.444 9.444-9.444h151.111c5.216 0 9.444 4.228 9.444 9.444v72.593c.001 5.215-4.227 9.444-9.443 9.444z" fill="url(#SVGID_20_)"/><path d="m500.556 418.518h-8.657v63.936c0 5.216-4.228 9.444-9.444 9.444h-142.455v8.657c0 5.216 4.228 9.444 9.444 9.444h151.111c5.216 0 9.444-4.229 9.444-9.444v-72.593c.001-5.216-4.227-9.444-9.443-9.444z" fill="url(#SVGID_21_)"/></g></g></g><g><path d="m363.879 48.213c-3.091 4.341-6.963 10.186-11.141 17.458-2.041 3.553-7.65 3.706-9.922.266-25.466-38.572-55.957-65.937-88.73-65.937-52.215 0-98.642 69.446-128.173 143.038-4.004 9.979-19.977 9.922-23.652-.158-.056-.153-.111-.307-.166-.462-1.567-4.414-8.678-4.2-10.025.272-12.206 40.512-33.167 140.083 25.112 216.449 28.571 40.696 79.186 67.772 136.903 67.772 45.993 0 87.464-17.209 116.885-44.781 13.289-14.313 60.859-54.497 60.859-141.837 0-112.774-56.109-143.282-60.719-190.531-.326-3.343-5.215-4.379-7.231-1.549z" fill="url(#SVGID_22_)"/><path d="m363.879 48.213c-3.091 4.341-6.963 10.186-11.141 17.458-2.041 3.553-7.65 3.706-9.922.266-25.466-38.572-55.957-65.937-88.73-65.937-52.215 0-98.642 69.446-128.173 143.038-4.004 9.979-19.977 9.922-23.652-.158-.056-.153-.111-.307-.166-.462-1.567-4.414-8.678-4.2-10.025.272-12.206 40.512-33.167 140.083 25.112 216.449 28.571 40.696 79.186 67.772 136.903 67.772 45.993 0 87.464-17.209 116.885-44.781 13.289-14.313 60.859-54.497 60.859-141.837 0-112.774-56.109-143.282-60.719-190.531-.326-3.343-5.215-4.379-7.231-1.549z" fill="url(#SVGID_23_)"/><path d="m375.083 297.509c0 59.225-53.713 107.237-119.971 107.237s-119.971-48.012-119.971-107.237 53.713-209.802 119.971-209.802 119.971 150.577 119.971 209.802z" fill="url(#SVGID_24_)"/><path d="m342.254 326.854c0 43.019-39.015 77.892-87.142 77.892s-87.142-34.874-87.142-77.892 39.015-152.391 87.142-152.391c48.127-.001 87.142 109.372 87.142 152.391z" fill="url(#SVGID_25_)"/></g><path d="m126.894 104.079c0 9.042-7.33 16.371-16.371 16.371s-16.371-7.33-16.371-16.371 7.33-28.905 16.371-28.905 16.371 19.863 16.371 28.905z" fill="url(#SVGID_26_)"/><path d="m481.777 207.148c0 12.064-9.78 21.844-21.844 21.844s-21.844-9.78-21.844-21.844 9.78-38.567 21.844-38.567 21.844 26.503 21.844 38.567z" fill="url(#SVGID_27_)"/><circle cx="396.884" cy="55.316" fill="url(#SVGID_28_)" r="13.503"/><circle cx="59.003" cy="219.857" fill="url(#SVGID_29_)" r="13.503"/><circle cx="369.878" cy="23.544" fill="url(#SVGID_30_)" r="9.493"/></g></svg>