<svg id="Capa_1" enable-background="new 0 0 510 510" height="512" viewBox="0 0 510 510" width="512" xmlns="http://www.w3.org/2000/svg" xmlns:xlink="http://www.w3.org/1999/xlink"><linearGradient id="lg1"><stop offset="0" stop-color="#edf5ff"/><stop offset="1" stop-color="#b5dbff"/></linearGradient><linearGradient id="SVGID_1_" gradientUnits="userSpaceOnUse" x1="150.663" x2="310.33" xlink:href="#lg1" y1="50.547" y2="210.215"/><linearGradient id="SVGID_2_" gradientUnits="userSpaceOnUse" x1="248.575" x2="248.575" y1="165.39" y2="-217.454"><stop offset="0" stop-color="#b5dbff" stop-opacity="0"/><stop offset=".2428" stop-color="#93cef6" stop-opacity=".243"/><stop offset=".5763" stop-color="#6abfec" stop-opacity=".576"/><stop offset=".8403" stop-color="#51b5e5" stop-opacity=".84"/><stop offset="1" stop-color="#48b2e3"/></linearGradient><linearGradient id="SVGID_3_" gradientUnits="userSpaceOnUse" x1="49.998" x2="67.827" xlink:href="#lg1" y1="282.824" y2="296.408"/><linearGradient id="SVGID_4_" gradientUnits="userSpaceOnUse" x1="49.998" x2="67.827" xlink:href="#lg1" y1="322.927" y2="336.51"/><linearGradient id="SVGID_5_" gradientUnits="userSpaceOnUse" x1="49.998" x2="67.827" xlink:href="#lg1" y1="363.029" y2="376.613"/><linearGradient id="SVGID_6_" gradientUnits="userSpaceOnUse" x1="49.998" x2="67.827" xlink:href="#lg1" y1="403.132" y2="416.716"/><linearGradient id="SVGID_7_" gradientUnits="userSpaceOnUse" x1="451.331" x2="469.159" xlink:href="#lg1" y1="282.824" y2="296.408"/><linearGradient id="SVGID_8_" gradientUnits="userSpaceOnUse" x1="451.331" x2="469.159" xlink:href="#lg1" y1="322.927" y2="336.51"/><linearGradient id="SVGID_9_" gradientUnits="userSpaceOnUse" x1="451.331" x2="469.159" xlink:href="#lg1" y1="363.029" y2="376.613"/><linearGradient id="SVGID_10_" gradientUnits="userSpaceOnUse" x1="451.331" x2="469.159" xlink:href="#lg1" y1="403.132" y2="416.716"/><linearGradient id="SVGID_11_" gradientUnits="userSpaceOnUse" x1="148.912" x2="326.777" y1="240.193" y2="418.058"><stop offset="0" stop-color="#ffda2d"/><stop offset="1" stop-color="#fdbf00"/></linearGradient><linearGradient id="lg2"><stop offset="0" stop-color="#ff9100" stop-opacity="0"/><stop offset="1" stop-color="#ff9100"/></linearGradient><linearGradient id="SVGID_12_" gradientUnits="userSpaceOnUse" x1="255" x2="255" xlink:href="#lg2" y1="458.4" y2="511.971"/><linearGradient id="SVGID_13_" gradientUnits="userSpaceOnUse" x1="439.447" x2="326.33" xlink:href="#lg2" y1="436.143" y2="350.204"/><linearGradient id="SVGID_14_" gradientUnits="userSpaceOnUse" x1="417.309" x2="236.884" xlink:href="#lg2" y1="508.592" y2="328.167"/><linearGradient id="SVGID_15_" gradientUnits="userSpaceOnUse" x1="199.599" x2="314.407" y1="290.88" y2="405.688"><stop offset="0" stop-color="#b9dd39"/><stop offset="1" stop-color="#90cc1c"/></linearGradient><linearGradient id="SVGID_16_" gradientUnits="userSpaceOnUse" x1="363.266" x2="320.574" y1="416.013" y2="373.321"><stop offset="0" stop-color="#6b0" stop-opacity="0"/><stop offset="1" stop-color="#6b0"/></linearGradient><linearGradient id="SVGID_17_" gradientUnits="userSpaceOnUse" x1="244.517" x2="363.427" y1="258.68" y2="377.59"><stop offset="0" stop-color="#0b799d"/><stop offset="1" stop-color="#07485e"/></linearGradient><linearGradient id="lg3"><stop offset="0" stop-color="#76e2f8"/><stop offset="1" stop-color="#48b2e3"/></linearGradient><linearGradient id="SVGID_18_" gradientUnits="userSpaceOnUse" x1="90.086" x2="104.466" xlink:href="#lg3" y1="220.028" y2="230.984"/><linearGradient id="SVGID_19_" gradientUnits="userSpaceOnUse" x1="130.217" x2="144.597" xlink:href="#lg3" y1="220.028" y2="230.984"/><linearGradient id="SVGID_20_" gradientUnits="userSpaceOnUse" x1="170.347" x2="184.728" xlink:href="#lg3" y1="220.028" y2="230.984"/><g><g><path d="m419.22 196.844h-61.97v-26.199c0-59.924-48.752-108.675-108.675-108.675-59.924 0-108.675 48.751-108.675 108.675v26.199h-61.97v-26.199c0-94.094 76.551-170.645 170.645-170.645 94.093 0 170.645 76.551 170.645 170.645z" fill="url(#SVGID_1_)"/><path d="m248.575 33.553c-78.055 0-141.558 63.503-141.558 141.558v21.734h32.883v-26.199c0-59.924 48.751-108.675 108.675-108.675 59.923 0 108.675 48.751 108.675 108.675v26.199h32.883v-21.735c0-78.055-63.503-141.557-141.558-141.557z" fill="url(#SVGID_2_)"/></g><g><g><g><path d="m59.748 306.179h-10.828c-7.849 0-14.211-6.363-14.211-14.211v-11.68c0-7.849 6.363-14.211 14.211-14.211h10.828c7.849 0 14.211 6.363 14.211 14.211v11.68c0 7.848-6.363 14.211-14.211 14.211z" fill="url(#SVGID_3_)"/><path d="m59.748 346.281h-10.828c-7.849 0-14.211-6.363-14.211-14.211v-11.68c0-7.849 6.363-14.211 14.211-14.211h10.828c7.849 0 14.211 6.363 14.211 14.211v11.68c0 7.849-6.363 14.211-14.211 14.211z" fill="url(#SVGID_4_)"/><path d="m59.748 386.384h-10.828c-7.849 0-14.211-6.363-14.211-14.211v-11.68c0-7.849 6.363-14.211 14.211-14.211h10.828c7.849 0 14.211 6.363 14.211 14.211v11.68c0 7.848-6.363 14.211-14.211 14.211z" fill="url(#SVGID_5_)"/><path d="m59.748 426.487h-10.828c-7.849 0-14.211-6.363-14.211-14.211v-11.68c0-7.849 6.363-14.211 14.211-14.211h10.828c7.849 0 14.211 6.363 14.211 14.211v11.68c0 7.848-6.363 14.211-14.211 14.211z" fill="url(#SVGID_6_)"/></g><g><path d="m461.08 306.179h-10.828c-7.849 0-14.211-6.363-14.211-14.211v-11.68c0-7.849 6.363-14.211 14.211-14.211h10.828c7.849 0 14.211 6.363 14.211 14.211v11.68c.001 7.848-6.362 14.211-14.211 14.211z" fill="url(#SVGID_7_)"/><path d="m461.08 346.281h-10.828c-7.849 0-14.211-6.363-14.211-14.211v-11.68c0-7.849 6.363-14.211 14.211-14.211h10.828c7.849 0 14.211 6.363 14.211 14.211v11.68c.001 7.849-6.362 14.211-14.211 14.211z" fill="url(#SVGID_8_)"/><path d="m461.08 386.384h-10.828c-7.849 0-14.211-6.363-14.211-14.211v-11.68c0-7.849 6.363-14.211 14.211-14.211h10.828c7.849 0 14.211 6.363 14.211 14.211v11.68c.001 7.848-6.362 14.211-14.211 14.211z" fill="url(#SVGID_9_)"/><path d="m461.08 426.487h-10.828c-7.849 0-14.211-6.363-14.211-14.211v-11.68c0-7.849 6.363-14.211 14.211-14.211h10.828c7.849 0 14.211 6.363 14.211 14.211v11.68c.001 7.848-6.362 14.211-14.211 14.211z" fill="url(#SVGID_10_)"/></g></g><g><path d="m412.348 510h-314.696c-23.924 0-43.318-19.394-43.318-43.318v-240.8c0-23.924 19.394-43.318 43.318-43.318h314.696c23.924 0 43.318 19.394 43.318 43.318v240.8c0 23.923-19.394 43.318-43.318 43.318z" fill="url(#SVGID_11_)"/><path d="m54.334 401.12v65.562c0 23.924 19.394 43.318 43.318 43.318h314.696c23.924 0 43.318-19.394 43.318-43.318v-65.562z" fill="url(#SVGID_12_)"/></g><path d="m455.666 303.37v163.31c0 23.929-19.391 43.32-43.32 43.32h-82.995l-153.313-153.303c-9.014-9.014-8.094-21.782.92-30.805 9.014-9.014 22.711-9.014 31.725 0l43.113 43.113c1.101 1.101 2.346 1.335 3.203 1.335s3.952-2.084 5.053-3.176l92.108-92.099 20.365-20.374c9.014-9.014 23.632-10.864 32.646-1.85z" fill="url(#SVGID_13_)"/><path d="m455.666 378.569v88.111c0 23.929-19.391 43.32-43.32 43.32h-162.011l-77.211-77.211c-22.928-21.71-35.389-52.434-35.389-86.505 0-64.913 52.352-117.265 117.265-117.265 34.071 0 64.795 12.461 86.505 35.389z" fill="url(#SVGID_14_)"/><circle cx="255" cy="346.281" fill="url(#SVGID_15_)" r="119.112"/><path d="m351.186 276.025-91.135 91.135c-1.096 1.096-4.195 3.175-5.051 3.175s-2.106-.23-3.203-1.327l-43.113-43.112c-9.015-9.014-22.707-9.014-31.722 0-9.015 9.015-9.939 21.783-.924 30.798l105.688 105.688c52.915-12.131 92.386-59.505 92.386-116.1 0-26.276-8.515-50.56-22.926-70.257z" fill="url(#SVGID_16_)"/><path d="m255 414.655c-13.542 0-26.274-5.274-35.849-14.85l-43.112-43.112c-9.015-9.015-9.015-23.631 0-32.645 9.014-9.014 23.63-9.014 32.645 0l43.113 43.112c1.097 1.097 2.348 1.327 3.203 1.327.856 0 2.106-.23 3.203-1.327l114.32-114.32c9.015-9.014 23.631-9.014 32.645 0 9.015 9.015 9.015 23.631 0 32.645l-114.32 114.32c-9.574 9.576-22.306 14.85-35.848 14.85z" fill="url(#SVGID_17_)"/><g><path d="m98.698 238.43h-10.23c-5.867 0-10.623-4.756-10.623-10.623v-10.229c0-5.867 4.756-10.623 10.623-10.623h10.229c5.867 0 10.623 4.756 10.623 10.623v10.229c0 5.867-4.756 10.623-10.622 10.623z" fill="url(#SVGID_18_)"/><path d="m138.828 238.43h-10.229c-5.867 0-10.623-4.756-10.623-10.623v-10.229c0-5.867 4.756-10.623 10.623-10.623h10.229c5.867 0 10.623 4.756 10.623 10.623v10.229c0 5.867-4.756 10.623-10.623 10.623z" fill="url(#SVGID_19_)"/><path d="m178.959 238.43h-10.229c-5.867 0-10.623-4.756-10.623-10.623v-10.229c0-5.867 4.756-10.623 10.623-10.623h10.229c5.867 0 10.623 4.756 10.623 10.623v10.229c0 5.867-4.756 10.623-10.623 10.623z" fill="url(#SVGID_20_)"/></g></g></g></svg>