<svg height="512pt" viewBox="-39 0 512 512.00083" width="512pt" xmlns="http://www.w3.org/2000/svg" xmlns:xlink="http://www.w3.org/1999/xlink"><linearGradient id="a"><stop offset="0" stop-color="#575c55"/><stop offset="1" stop-color="#45425a"/></linearGradient><linearGradient id="b" gradientTransform="matrix(1.003922 0 0 -1.003922 -38.847335 512.000805)" gradientUnits="userSpaceOnUse" x1="166.8763" x2="321.418" xlink:href="#a" y1="140.3569" y2="140.3569"/><linearGradient id="c"><stop offset="0" stop-color="#45425a" stop-opacity="0"/><stop offset=".3474" stop-color="#353343" stop-opacity=".34902"/><stop offset="1" stop-color="#1a1a1a"/></linearGradient><linearGradient id="d" gradientUnits="userSpaceOnUse" x1="360.4840240386" x2="79.9587019318" xlink:href="#c" y1="413.5762109434" y2="133.0508888366"/><linearGradient id="e" gradientUnits="userSpaceOnUse" x1="184.65080025" x2="302.3950892746" xlink:href="#a" y1="168.9423066508" y2="408.291466751"/><linearGradient id="f" gradientUnits="userSpaceOnUse" x1="217.152775" x2="217.152775" xlink:href="#c" y1="241.1242984508" y2="346.6464394786"/><linearGradient id="g" gradientUnits="userSpaceOnUse" x1="217.152775" x2="217.152775" xlink:href="#c" y1="331.23984929" y2="135.865082987"/><linearGradient id="h" gradientUnits="userSpaceOnUse" x1="265.6273495544" x2="157.1932323734" xlink:href="#c" y1="304.2380620014" y2="185.0175056758"/><linearGradient id="i" gradientUnits="userSpaceOnUse" x1="180.4773961038" x2="238.9520377002" y1="185.5875325874" y2="298.5630917198"><stop offset="0" stop-color="#f2e9dc"/><stop offset=".3505" stop-color="#f1e7d9"/><stop offset=".5653" stop-color="#eee0d1"/><stop offset=".7434" stop-color="#e8d4c3"/><stop offset=".9006" stop-color="#e1c3ae"/><stop offset="1" stop-color="#dab49d"/></linearGradient><linearGradient id="j"><stop offset="0" stop-color="#f2e9dc"/><stop offset=".6623" stop-color="#e3c7b3"/><stop offset="1" stop-color="#dab49d"/></linearGradient><linearGradient id="k" gradientUnits="userSpaceOnUse" x1="65.147941058" x2="203.6979111794" xlink:href="#j" y1="138.6889147886" y2="85.4401891632"/><linearGradient id="l"><stop offset="0" stop-color="#ffb2bc"/><stop offset="1" stop-color="#ff90a4"/></linearGradient><linearGradient id="m" gradientUnits="userSpaceOnUse" x1="152.6928508318" x2="88.0706928684" xlink:href="#l" y1="133.5472278734" y2="155.2601532816"/><linearGradient id="n" gradientUnits="userSpaceOnUse" x1="288.6859320114" x2="376.915416197" xlink:href="#j" y1="138.5443500206" y2="181.280506423"/><linearGradient id="o" gradientUnits="userSpaceOnUse" x1="408.4864540764" x2="327.321167436" y1="214.0186036274" y2="119.9290259434"><stop offset="0" stop-color="#dab49d" stop-opacity="0"/><stop offset=".2054" stop-color="#d8b198" stop-opacity=".203922"/><stop offset=".4642" stop-color="#d3a788" stop-opacity=".462745"/><stop offset=".7504" stop-color="#ca976e" stop-opacity=".74902"/><stop offset="1" stop-color="#c08552"/></linearGradient><linearGradient id="p" gradientUnits="userSpaceOnUse" x1="306.9077186646" x2="259.3493233274" xlink:href="#l" y1="149.3918276228" y2="120.4432347918"/><linearGradient id="q" gradientUnits="userSpaceOnUse" x1="342.8580650924" x2="292.1946394014" y1="187.6264981694" y2="11.8549151916"><stop offset="0" stop-color="#972e07" stop-opacity="0"/><stop offset="1" stop-color="#582707"/></linearGradient><linearGradient id="r" gradientUnits="userSpaceOnUse" x1="328.8666049628" x2="299.1404745428" xlink:href="#j" y1="109.9171126218" y2="164.4581870378"/><linearGradient id="s" gradientUnits="userSpaceOnUse" x1="251.6377968766" x2="206.1268000662" xlink:href="#c" y1="493.6300555376" y2="352.4117611324"/><linearGradient id="t" gradientTransform="matrix(0 1.003922 -1.003922 0 893.796405 -12.759139)" gradientUnits="userSpaceOnUse" x1="372.7101" x2="396.7933" xlink:href="#a" y1="674.0006" y2="674.0006"/><linearGradient id="u" gradientTransform="matrix(0 1.003922 -1.003922 0 893.796405 -12.759139)" gradientUnits="userSpaceOnUse" x1="368.7101" x2="396.9944" xlink:href="#j" y1="513.1713" y2="513.1713"/><path d="m339.429688 259.125c-15.269532 44.332031-12.765626 100.839844 10.117187 159.460938l18.441406 47.242187c.761719 1.40625 1.257813 2.839844 1.457031 4.296875 3.125 22.742188-65.007812 41.875-152.292968 41.875s-155.414063-19.132812-152.292969-41.875c.199219-1.457031.695313-2.890625 1.457031-4.296875l18.441406-47.242187c22.882813-58.621094 25.386719-115.128907 10.117188-159.460938-.003906-.011719-.007812-.019531-.007812-.019531-.519532-1.121094-.714844-2.257813-.558594-3.414063 1.960937-14.269531 56.933594-25.503906 122.84375-25.503906s120.882812 11.234375 122.84375 25.503906c.15625 1.15625-.039063 2.292969-.5625 3.414063 0 0 0 .007812-.003906.019531zm0 0" fill="url(#b)"/><path d="m369.445312 470.125c-.199218-1.457031-.695312-2.890625-1.457031-4.296875l-18.441406-47.242187c-22.882813-58.621094-25.386719-115.128907-10.117187-159.460938.003906-.011719.007812-.019531.007812-.019531.523438-1.117188.71875-2.257813.558594-3.414063-1.960938-14.265625-56.933594-25.503906-122.84375-25.503906s-120.882813 11.238281-122.84375 25.503906c-.15625 1.15625.039062 2.296875.558594 3.414063 0 0 .003906.007812.007812.019531 3.933594 11.421875 6.679688 23.65625 8.207031 36.523438l.808594.679687 207.144531 207.140625c37.195313-7.714844 60.257813-19.898438 58.410156-33.34375zm0 0" fill="url(#d)"/><path d="m434.304688 235.011719c0-41.042969-97.222657-74.3125-217.152344-74.3125-119.929688 0-217.152344 33.269531-217.152344 74.3125s97.222656 74.3125 217.152344 74.3125c119.929687 0 217.152344-33.269531 217.152344-74.3125zm0 0" fill="url(#e)"/><path d="m217.152344 292.917969c-111.828125 0-203.894532-28.929688-215.828125-66.109375-.863281 2.695312-1.324219 5.429687-1.324219 8.203125 0 41.042969 97.222656 74.3125 217.152344 74.3125 119.933594 0 217.152344-33.269531 217.152344-74.3125 0-2.773438-.457032-5.507813-1.320313-8.203125-11.9375 37.179687-104.003906 66.109375-215.832031 66.109375zm0 0" fill="url(#f)"/><path d="m382.191406 221.957031c0-23.984375-73.890625-43.425781-165.039062-43.425781-91.148438 0-165.039063 19.441406-165.039063 43.425781 0 23.980469 73.890625 43.421875 165.039063 43.421875 91.148437 0 165.039062-19.441406 165.039062-43.421875zm0 0" fill="url(#g)"/><path d="m298.539062 230.699219c-20.644531-21.175781-49.472656-34.339844-81.386718-34.339844-43.402344 0-81.128906 24.328125-100.273438 60.085937l50.957032 50.953126c15.84375 1.261718 32.351562 1.925781 49.316406 1.925781 54.265625 0 103.878906-6.8125 141.945312-18.070313zm0 0" fill="url(#h)"/><path d="m317.425781 256.445312c-27.796875 5.601563-62.558593 8.933594-100.273437 8.933594s-72.476563-3.332031-100.273438-8.933594c19.144532-35.757812 56.871094-60.085937 100.273438-60.085937 43.40625 0 81.128906 24.328125 100.273437 60.085937zm0 0" fill="url(#i)"/><path d="m188.210938 209.84375c.132812 5.910156-3.527344 11.226562-9.085938 13.234375-.398438.144531-.796875.289063-1.199219.433594-13.585937 4.984375-26.53125 11.292969-38.6875 18.765625-1.179687.726562-2.351562 1.457031-3.515625 2.203125-5.269531 3.371093-12.121094 2.808593-16.734375-1.414063-32.058593-29.34375-89.308593-102.566406-53.121093-230.429687 3.0625-10.8125 15.40625-15.890625 25.230468-10.410157 32.292969 18.039063 94.070313 70.355469 97.113282 207.617188zm0 0" fill="url(#k)"/><path d="m177.925781 223.515625c-13.585937 4.980469-26.53125 11.289063-38.6875 18.765625-10.257812-6.785156-87.9375-62.835938-53.519531-184.4375 2.308594-8.148438 11.613281-11.972656 19.015625-7.847656 25.640625 14.308594 75.921875 57.289062 73.191406 173.519531zm0 0" fill="url(#m)"/><path d="m354.960938 173.851562c-13.855469 33.015626-33.890626 55.742188-48.605469 69.214844-4.621094 4.226563-11.464844 4.785156-16.738281 1.417969-1.160157-.746094-2.335938-1.480469-3.515626-2.203125-12.160156-7.476562-25.105468-13.785156-38.691406-18.765625-.390625-.144531-.796875-.289063-1.199218-.4375-5.550782-2.003906-9.210938-7.328125-9.089844-13.234375 1.375-61.921875 14.703125-106.558594 31.890625-138.546875 1.847656-3.464844 3.753906-6.773437 5.683593-9.9375 10.019532-10.027344 25.582032-11.15625 41.226563-8.570313 8.269531 1.351563 16.5625 3.753907 24.078125 6.410157 7.839844 2.78125 14.828125 5.839843 20.058594 8.324219 6.082031 2.882812 8.707031 9.085937 10.402344 15.609374.167968.652344.34375 1.335938.527343 2.058594.847657 35.246094-5.957031 64.671875-16.027343 88.660156zm0 0" fill="url(#n)"/><path d="m330.707031 216.148438c8.671875-11.558594 17.253907-25.613282 24.253907-42.296876 9.152343-21.796874 15.585937-48.105468 16.050781-79.175781-.742188-5.964843-1.695313-12.074219-2.867188-18.324219-1.722656-3.777343-4.195312-6.984374-8.085937-8.832031-5.230469-2.480469-12.21875-5.542969-20.058594-8.324219-7.515625-2.65625-15.808594-5.054687-24.078125-6.410156-1.285156-.210937-2.570313-.386718-3.851563-.546875-10.464843 8.761719-21.675781 20.390625-32.195312 35.726563zm0 0" fill="url(#o)"/><path d="m341.726562 163.945312c-14.652343 49.3125-49.039062 73.980469-55.625 78.332032-12.160156-7.472656-25.105468-13.78125-38.691406-18.765625-1.550781-66.171875 14.074219-108.605469 32.570313-135.519531 12.085937-17.617188 25.414062-28.589844 35.941406-35.207032 8.269531 1.355469 16.5625 3.753906 24.078125 6.410156 11.890625 42.890626 9.8125 77.570313 1.726562 104.75zm0 0" fill="url(#p)"/><path d="m340 59.199219c-7.515625-2.660157-15.808594-5.058594-24.082031-6.410157-10.523438 6.617188-23.851563 17.585938-35.9375 35.207032l44.886719 113.1875c6.519531-10.355469 12.546874-22.71875 16.859374-37.234375 8.085938-27.183594 10.164063-61.863281-1.726562-104.75zm0 0" fill="url(#q)"/><path d="m364.917969 177.90625c-3.082031-.578125-6.421875-1.984375-9.957031-4.054688-4.1875-2.449218-8.644532-5.839843-13.234376-9.90625-22.105468-19.582031-47.386718-54.757812-61.746093-75.953124-5.617188-8.300782-9.566407-14.464844-10.972657-16.699219 0 0 3.238282-7.484375 5.6875-9.933594 10.019532-10.03125 25.578126-11.15625 41.222657-8.574219 8.273437 1.355469 16.566406 3.753906 24.082031 6.410156 7.839844 2.78125 14.828125 5.84375 20.058594 8.324219 6.078125 2.886719 8.707031 9.089844 10.402344 15.613281.164062.652344.339843 1.332032.527343 2.058594 6.410157 25.796875 19.355469 97.480469-6.070312 92.714844zm0 0" fill="url(#r)"/><path d="m93.566406 392.765625 119.21875 119.21875c1.449219.011719 2.90625.015625 4.367188.015625 87.285156 0 155.417968-19.132812 152.292968-41.875-.199218-1.457031-.695312-2.890625-1.457031-4.296875l-18.441406-47.242187c-5.859375-15.015626-10.375-29.890626-13.605469-44.457032h-237.574218c-1.367188 6.160156-2.96875 12.378906-4.800782 18.636719zm0 0" fill="url(#s)"/><path d="m30.421875 375.46875c0-9.980469 8.09375-18.070312 18.070313-18.070312h337.320312c9.980469 0 18.070312 8.089843 18.070312 18.070312s-8.089843 18.070312-18.070312 18.070312h-337.320312c-9.976563 0-18.070313-8.089843-18.070313-18.070312zm0 0" fill="url(#t)"/><path d="m354.691406 375.46875c0 6.289062-.472656 12.355469-1.347656 18.070312h32.46875c9.980469 0 18.070312-8.089843 18.070312-18.070312s-8.089843-18.070312-18.070312-18.070312h-32.46875c.875 5.710937 1.347656 11.777343 1.347656 18.070312zm0 0" fill="url(#u)"/></svg>