<svg id="Capa_1" enable-background="new 0 0 510 510" height="512" viewBox="0 0 510 510" width="512" xmlns="http://www.w3.org/2000/svg" xmlns:xlink="http://www.w3.org/1999/xlink"><linearGradient id="SVGID_1_" gradientUnits="userSpaceOnUse" x1="167.343" x2="221.34" y1="94.837" y2="258.329"><stop offset="0" stop-color="#fdbf00"/><stop offset="1" stop-color="#ff9100"/></linearGradient><linearGradient id="lg1"><stop offset="0" stop-color="#edf5ff"/><stop offset="1" stop-color="#d5e8fe"/></linearGradient><linearGradient id="SVGID_2_" gradientUnits="userSpaceOnUse" x1="95.193" x2="246.328" xlink:href="#lg1" y1="109.575" y2="263.794"/><linearGradient id="lg2"><stop offset="0" stop-color="#b5dbff" stop-opacity="0"/><stop offset=".2428" stop-color="#93cef6" stop-opacity=".243"/><stop offset=".5763" stop-color="#6abfec" stop-opacity=".576"/><stop offset=".8403" stop-color="#51b5e5" stop-opacity=".84"/><stop offset="1" stop-color="#48b2e3"/></linearGradient><linearGradient id="SVGID_3_" gradientUnits="userSpaceOnUse" x1="422.262" x2="85.114" xlink:href="#lg2" y1="432.738" y2="95.59"/><linearGradient id="SVGID_4_" gradientUnits="userSpaceOnUse" x1="436.136" x2="409.736" xlink:href="#lg2" y1="180.058" y2="72.572"/><linearGradient id="SVGID_5_" gradientUnits="userSpaceOnUse" x1="403.184" x2="418.471" xlink:href="#lg1" y1="38.501" y2="116.849"/><linearGradient id="lg3"><stop offset="0" stop-color="#0b799d"/><stop offset="1" stop-color="#07485e"/></linearGradient><linearGradient id="SVGID_6_" gradientUnits="userSpaceOnUse" x1="177.397" x2="322.973" xlink:href="#lg3" y1="179.209" y2="296.547"/><linearGradient id="SVGID_7_" gradientUnits="userSpaceOnUse" x1="187.003" x2="263.022" xlink:href="#lg3" y1="239.158" y2="315.178"/><linearGradient id="SVGID_8_" gradientUnits="userSpaceOnUse" x1="266.791" x2="342.991" xlink:href="#lg3" y1="238.732" y2="314.932"/><linearGradient id="lg4"><stop offset="0" stop-color="#ffda2d"/><stop offset="1" stop-color="#fdbf00"/></linearGradient><linearGradient id="SVGID_9_" gradientUnits="userSpaceOnUse" x1="255" x2="255" xlink:href="#lg4" y1="378.382" y2="484.254"/><linearGradient id="SVGID_10_" gradientUnits="userSpaceOnUse" x1="255" x2="255" xlink:href="#lg4" y1="357.1" y2="458.687"/><linearGradient id="SVGID_11_" gradientUnits="userSpaceOnUse" x1="255" x2="255" y1="467.384" y2="553.851"><stop offset="0" stop-color="#ff9100" stop-opacity="0"/><stop offset="1" stop-color="#ff9100"/></linearGradient><g><g><path d="m484.683 214.616-198.207-202.173c-17.705-16.59-45.247-16.59-62.952 0l-198.207 202.173c-6.029 4.187-9.979 11.158-9.979 19.054v253.142c0 12.807 10.382 23.188 23.188 23.188h432.949c12.806 0 23.187-10.381 23.187-23.188v-253.142c0-7.896-3.95-14.866-9.979-19.054z" fill="url(#SVGID_1_)"/><g><path d="m373.923 21.806h-297.482c-15.201 0-27.524 12.323-27.524 27.524v411.338c0 15.201 12.323 27.525 27.524 27.525h357.118c15.201 0 27.525-12.323 27.525-27.525v-351.701c-.001-48.137-39.024-87.161-87.161-87.161z" fill="url(#SVGID_2_)"/><path d="m461.083 460.669v-234.458l-66.169-66.169c-2.392-4.804-7.338-8.112-13.069-8.112-2.095 0-4.083.449-5.884 1.243-.945-.83-1.996-1.537-3.134-2.104l-59.176-59.177c-2.392-4.804-7.338-8.112-13.069-8.112-8.067 0-14.606 6.539-14.606 14.606 0 14.523-4.698 27.74-11.88 36.357-2.929-.551-5.91-.948-8.929-1.208-.97-.868-2.053-1.606-3.23-2.191l-39.451-39.451c-2.392-4.804-7.338-8.112-13.069-8.112-8.067 0-14.606 6.539-14.606 14.606 0 17.219 4.521 33.648 12.813 46.945-16.658 9.782-29.821 24.866-37.128 42.967l-29.272-28.257c-2.392-4.804-7.338-8.112-13.069-8.112-8.067 0-14.606 6.539-14.606 14.606 0 20.291 9.148 38.592 23.741 51.437l17.122 17.333c-.029.461-.057.923-.062 1.39-.044 4.215-.078 8.662-.094 13.028-9.365 1.896-18.041 4.579-25.607 7.996-26.684 12.05-30.668 28.59-30.668 37.376 0 5.731 3.309 10.677 8.112 13.069l18.686 19.153c-7.112 10.775-11.231 23.488-11.231 37.098 0 5.731 3.309 10.677 8.112 13.069l110.708 110.708h201.19c15.202.001 27.525-12.323 27.525-27.524z" fill="url(#SVGID_3_)"/><path d="m375.858 102.305 85.225 85.225v-78.563c0-48.138-39.023-85.16-87.161-85.16h-5.645v57.635c.001 8.344 1.718 15.815 7.581 20.863z" fill="url(#SVGID_4_)"/><path d="m393.801 108.967c-15.201 0-27.525-12.323-27.525-27.525v-59.636h7.646c48.138 0 87.161 39.023 87.161 87.161z" fill="url(#SVGID_5_)"/></g><g><g fill="#07485e"><g><path d="m128.154 379.023c-8.067 0-14.606-6.539-14.606-14.606 0-38.777 33.376-70.325 74.4-70.325 8.067 0 14.606 6.539 14.606 14.606s-6.539 14.606-14.606 14.606c-24.917 0-45.188 18.443-45.188 41.112.001 8.068-6.539 14.607-14.606 14.607z"/><path d="m187.949 236.86c-41.025 0-74.4-31.548-74.4-70.325 0-8.067 6.539-14.606 14.606-14.606s14.606 6.539 14.606 14.606c0 22.669 20.271 41.112 45.188 41.112 8.067 0 14.606 6.539 14.606 14.606s-6.539 14.607-14.606 14.607z"/><path d="m112.587 309.702c-8.067 0-14.606-6.539-14.606-14.606 0-8.787 3.984-25.326 30.668-37.376 16.082-7.263 37.142-11.262 59.3-11.262 8.067 0 14.606 6.539 14.606 14.606s-6.539 14.606-14.606 14.606c-17.839 0-35.071 3.161-47.278 8.674-10.084 4.554-13.478 9.29-13.478 10.752 0 8.067-6.539 14.606-14.606 14.606z"/></g><g><path d="m381.846 379.023c-8.067 0-14.606-6.539-14.606-14.606 0-22.669-20.271-41.112-45.188-41.112-8.067 0-14.606-6.539-14.606-14.606s6.539-14.606 14.606-14.606c41.025 0 74.4 31.548 74.4 70.325 0 8.066-6.539 14.605-14.606 14.605z"/><path d="m322.051 236.86c-8.067 0-14.606-6.539-14.606-14.606s6.539-14.606 14.606-14.606c24.917 0 45.188-18.443 45.188-41.112 0-8.067 6.539-14.606 14.606-14.606s14.606 6.539 14.606 14.606c.001 38.777-33.375 70.324-74.4 70.324z"/><path d="m397.413 309.702c-8.067 0-14.606-6.539-14.606-14.606 0-1.462-3.394-6.198-13.478-10.752-12.206-5.512-29.438-8.674-47.278-8.674-8.067 0-14.606-6.539-14.606-14.606s6.539-14.606 14.606-14.606c22.158 0 43.218 4 59.3 11.262 26.684 12.05 30.668 28.59 30.668 37.376.001 8.067-6.539 14.606-14.606 14.606z"/></g></g><path d="m255 174.181c-16.659 0-32.677-8.675-43.945-23.802-10.475-14.061-16.244-32.526-16.244-51.993 0-8.067 6.539-14.606 14.606-14.606s14.606 6.539 14.606 14.606c0 25.25 14.186 46.582 30.976 46.582s30.976-21.332 30.976-46.582c0-8.067 6.539-14.606 14.606-14.606s14.606 6.539 14.606 14.606c0 19.467-5.769 37.931-16.244 51.993-11.266 15.127-27.284 23.802-43.943 23.802z" fill="#07485e"/><g><path d="m345.843 218.86c-1.194-47.526-40.116-85.386-87.656-85.666-2.125-.012-4.25-.012-6.376 0-47.54.28-86.461 38.14-87.655 85.666-.384 15.266-.384 30.532 0 45.798 1.194 47.526 40.115 85.386 87.656 85.666 2.125.013 4.25.013 6.376 0 47.54-.28 86.462-38.14 87.656-85.666.383-15.266.383-30.532-.001-45.798z" fill="url(#SVGID_6_)"/><path d="m177.722 210.833c-13.208 1.447-23.235 12.576-23.373 25.863-.124 11.921-.171 25.716.042 34.19.728 28.994 15.207 54.74 36.867 72.07 25.676 20.543 63.742 2.029 63.742-30.853v-105.389c-26.894 0-52.841 1.443-77.278 4.119z" fill="url(#SVGID_7_)"/><path d="m332.278 210.833c13.208 1.447 23.235 12.576 23.373 25.863.124 11.921.171 25.716-.042 34.19-.728 28.994-15.207 54.74-36.867 72.07-25.676 20.543-63.742 2.029-63.742-30.853v-105.389c26.894 0 52.841 1.443 77.278 4.119z" fill="url(#SVGID_8_)"/></g></g><g><path d="m489.75 219.408c.271.347.534.701.786 1.064l-204.06 208.144c-17.705 16.59-45.247 16.59-62.952 0l-204.06-208.144c.252-.363.514-.717.786-1.064-3.075 3.934-4.912 8.882-4.912 14.262v253.142c0 12.807 10.382 23.188 23.188 23.188h432.949c12.806 0 23.187-10.381 23.187-23.188v-253.142c0-5.38-1.837-10.327-4.912-14.262z" fill="url(#SVGID_9_)"/></g><path d="m471.474 510h-432.948c-7.901 0-14.875-3.955-19.061-9.989l204.06-191.216c17.705-16.59 45.247-16.59 62.952 0l204.06 191.216c-4.188 6.034-11.162 9.989-19.063 9.989z" fill="url(#SVGID_10_)"/><path d="m15.338 431.414v55.398c0 12.807 10.382 23.188 23.188 23.188h432.949c12.806 0 23.187-10.381 23.187-23.188v-55.398z" fill="url(#SVGID_11_)"/></g></g></svg>