<svg id="Capa_1" enable-background="new 0 0 510 510" height="512" viewBox="0 0 510 510" width="512" xmlns="http://www.w3.org/2000/svg" xmlns:xlink="http://www.w3.org/1999/xlink"><linearGradient id="SVGID_1_" gradientUnits="userSpaceOnUse" x1="198.5" x2="367.001" y1="198.5" y2="367.001"><stop offset="0" stop-color="#0b799d"/><stop offset="1" stop-color="#07485e"/></linearGradient><linearGradient id="lg1"><stop offset="0" stop-color="#07485e" stop-opacity="0"/><stop offset="1" stop-color="#03232e"/></linearGradient><linearGradient id="SVGID_2_" gradientUnits="userSpaceOnUse" x1="105.942" x2="52.791" xlink:href="#lg1" y1="181.058" y2="127.907"/><linearGradient id="lg2"><stop offset="0" stop-color="#edf5ff"/><stop offset="1" stop-color="#d5e8fe"/></linearGradient><linearGradient id="SVGID_3_" gradientUnits="userSpaceOnUse" x1="199.545" x2="210.121" xlink:href="#lg2" y1="45.025" y2="135.971"/><linearGradient id="lg3"><stop offset="0" stop-color="#b5dbff"/><stop offset="1" stop-color="#48b2e3"/></linearGradient><linearGradient id="SVGID_4_" gradientUnits="userSpaceOnUse" x1="203.707" x2="210.367" xlink:href="#lg3" y1="101.296" y2="158.568"/><linearGradient id="lg4"><stop offset="0" stop-color="#b5dbff" stop-opacity="0"/><stop offset=".1734" stop-color="#8fc5e9" stop-opacity=".173"/><stop offset=".4541" stop-color="#56a4c8" stop-opacity=".454"/><stop offset=".6955" stop-color="#2d8db1" stop-opacity=".696"/><stop offset=".8853" stop-color="#147ea2" stop-opacity=".885"/><stop offset="1" stop-color="#0b799d"/></linearGradient><linearGradient id="SVGID_5_" gradientUnits="userSpaceOnUse" x1="243.502" x2="23.556" xlink:href="#lg4" y1="79.746" y2="-24.049"/><linearGradient id="lg5"><stop offset="0" stop-color="#ff637b"/><stop offset="1" stop-color="#e63950"/></linearGradient><linearGradient id="SVGID_6_" gradientUnits="userSpaceOnUse" x1="50.397" x2="72.189" xlink:href="#lg5" y1="100.917" y2="117.52"/><linearGradient id="lg6"><stop offset="0" stop-color="#76e2f8"/><stop offset="1" stop-color="#0095ff"/></linearGradient><linearGradient id="SVGID_7_" gradientUnits="userSpaceOnUse" x1="165.742" x2="217.39" xlink:href="#lg6" y1="93.374" y2="145.022"/><linearGradient id="SVGID_8_" gradientUnits="userSpaceOnUse" x1="104.929" x2="156.577" xlink:href="#lg6" y1="93.374" y2="145.022"/><linearGradient id="SVGID_9_" gradientUnits="userSpaceOnUse" x1="308.199" x2="308.199" xlink:href="#lg3" y1="137.535" y2="50.996"/><linearGradient id="SVGID_10_" gradientUnits="userSpaceOnUse" x1="296.518" x2="307.093" xlink:href="#lg2" y1="345.116" y2="436.062"/><linearGradient id="SVGID_11_" gradientUnits="userSpaceOnUse" x1="300.679" x2="307.339" xlink:href="#lg3" y1="401.386" y2="458.659"/><linearGradient id="SVGID_12_" gradientUnits="userSpaceOnUse" x1="340.474" x2="120.528" xlink:href="#lg4" y1="379.837" y2="276.042"/><linearGradient id="SVGID_13_" gradientUnits="userSpaceOnUse" x1="147.369" x2="169.161" xlink:href="#lg5" y1="401.008" y2="417.611"/><linearGradient id="SVGID_14_" gradientUnits="userSpaceOnUse" x1="262.714" x2="314.362" xlink:href="#lg6" y1="393.465" y2="445.113"/><linearGradient id="SVGID_15_" gradientUnits="userSpaceOnUse" x1="201.901" x2="253.549" xlink:href="#lg6" y1="393.465" y2="445.113"/><linearGradient id="SVGID_16_" gradientUnits="userSpaceOnUse" x1="405.171" x2="405.171" xlink:href="#lg3" y1="437.626" y2="351.087"/><linearGradient id="SVGID_17_" gradientUnits="userSpaceOnUse" x1="512.646" x2="466.352" xlink:href="#lg1" y1="165.931" y2="119.637"/><linearGradient id="lg7"><stop offset="0" stop-color="#b9dd39"/><stop offset="1" stop-color="#90cc1c"/></linearGradient><linearGradient id="SVGID_18_" gradientUnits="userSpaceOnUse" x1="453.803" x2="488.596" xlink:href="#lg7" y1="92.197" y2="126.989"/><linearGradient id="SVGID_19_" gradientUnits="userSpaceOnUse" x1="30.681" x2="65.473" xlink:href="#lg7" y1="392.288" y2="427.08"/><g><path d="m467.416 424.264h-424.832c-11.046 0-20-8.954-20-20v-298.528c0-11.046 8.954-20 20-20h424.832c11.046 0 20 8.954 20 20v298.527c0 11.047-8.954 20.001-20 20.001zm-404.832-40h384.832v-258.528h-384.832z" fill="url(#SVGID_1_)"/><path d="m22.584 105.736v70.4l40 40v-90.4h26.473v-40h-46.473c-11.046 0-20 8.954-20 20z" fill="url(#SVGID_2_)"/><g><path d="m379.88 177.112h-346.732c-18.307 0-33.148-14.841-33.148-33.148v-78.019c0-18.307 14.841-33.148 33.148-33.148h346.732c18.307 0 33.148 14.841 33.148 33.148v78.019c0 18.307-14.841 33.148-33.148 33.148z" fill="url(#SVGID_3_)"/><path d="m0 104.955v39.009c0 18.307 14.841 33.148 33.148 33.148h346.732c18.307 0 33.148-14.841 33.148-33.148v-39.009z" fill="url(#SVGID_4_)"/><path d="m379.88 32.797h-173.366v144.315h173.366c18.307 0 33.148-14.841 33.148-33.148v-78.019c0-18.307-14.841-33.148-33.148-33.148z" fill="url(#SVGID_5_)"/><g><path d="m63.447 128.803h-15.501c-8.89 0-16.098-7.207-16.098-16.098v-15.501c0-8.89 7.207-16.098 16.098-16.098h15.501c8.89 0 16.098 7.207 16.098 16.098v15.501c0 8.891-7.207 16.098-16.098 16.098z" fill="url(#SVGID_6_)"/><path d="m185.073 128.803h-15.501c-8.89 0-16.098-7.207-16.098-16.098v-15.501c0-8.89 7.207-16.098 16.098-16.098h15.501c8.89 0 16.098 7.207 16.098 16.098v15.501c0 8.891-7.208 16.098-16.098 16.098z" fill="url(#SVGID_7_)"/><path d="m124.26 128.803h-15.501c-8.89 0-16.098-7.207-16.098-16.098v-15.501c0-8.89 7.207-16.098 16.098-16.098h15.501c8.89 0 16.098 7.207 16.098 16.098v15.501c0 8.891-7.208 16.098-16.098 16.098z" fill="url(#SVGID_8_)"/></g><path d="m360.454 128.803h-104.51c-10.212 0-18.491-8.279-18.491-18.491v-14.143c0-10.212 8.279-18.491 18.491-18.491h104.511c10.212 0 18.491 8.279 18.491 18.491v14.143c-.001 10.212-8.279 18.491-18.492 18.491z" fill="url(#SVGID_9_)"/></g><g><path d="m476.852 477.203h-346.732c-18.307 0-33.148-14.841-33.148-33.148v-78.019c0-18.307 14.841-33.148 33.148-33.148h346.731c18.307 0 33.148 14.841 33.148 33.148v78.019c.001 18.307-14.84 33.148-33.147 33.148z" fill="url(#SVGID_10_)"/><path d="m96.972 405.045v39.009c0 18.307 14.841 33.148 33.148 33.148h346.731c18.307 0 33.148-14.841 33.148-33.148v-39.009z" fill="url(#SVGID_11_)"/><path d="m476.852 332.888h-173.366v144.315h173.366c18.307 0 33.148-14.841 33.148-33.148v-78.019c0-18.307-14.841-33.148-33.148-33.148z" fill="url(#SVGID_12_)"/><g><path d="m160.419 428.894h-15.501c-8.89 0-16.098-7.207-16.098-16.098v-15.501c0-8.89 7.207-16.098 16.098-16.098h15.501c8.89 0 16.098 7.207 16.098 16.098v15.501c0 8.891-7.207 16.098-16.098 16.098z" fill="url(#SVGID_13_)"/><path d="m282.045 428.894h-15.501c-8.89 0-16.098-7.207-16.098-16.098v-15.501c0-8.89 7.207-16.098 16.098-16.098h15.501c8.89 0 16.098 7.207 16.098 16.098v15.501c0 8.891-7.207 16.098-16.098 16.098z" fill="url(#SVGID_14_)"/><path d="m221.232 428.894h-15.501c-8.89 0-16.098-7.207-16.098-16.098v-15.501c0-8.89 7.207-16.098 16.098-16.098h15.501c8.89 0 16.098 7.207 16.098 16.098v15.501c0 8.891-7.207 16.098-16.098 16.098z" fill="url(#SVGID_15_)"/></g><path d="m457.427 428.894h-104.511c-10.212 0-18.491-8.279-18.491-18.491v-14.143c0-10.212 8.279-18.491 18.491-18.491h104.511c10.212 0 18.491 8.279 18.491 18.491v14.143c0 10.212-8.279 18.491-18.491 18.491z" fill="url(#SVGID_16_)"/></g><path d="m467.416 85.736h-20v40 18.213l40 40v-78.213c0-11.046-8.954-20-20-20z" fill="url(#SVGID_17_)"/><circle cx="466.561" cy="104.955" fill="url(#SVGID_18_)" r="43.439"/><circle cx="43.439" cy="405.045" fill="url(#SVGID_19_)" r="43.439"/></g></svg>