<svg id="Capa_1" enable-background="new 0 0 510 510" height="512" viewBox="0 0 510 510" width="512" xmlns="http://www.w3.org/2000/svg" xmlns:xlink="http://www.w3.org/1999/xlink"><linearGradient id="lg1"><stop offset="0" stop-color="#edf5ff"/><stop offset="1" stop-color="#d5e8fe"/></linearGradient><linearGradient id="SVGID_1_" gradientUnits="userSpaceOnUse" x1="247.819" x2="258.717" xlink:href="#lg1" y1="54.862" y2="148.58"/><linearGradient id="lg2"><stop offset="0" stop-color="#b5dbff"/><stop offset="1" stop-color="#48b2e3"/></linearGradient><linearGradient id="SVGID_2_" gradientUnits="userSpaceOnUse" x1="251.81" x2="258.953" xlink:href="#lg2" y1="108.819" y2="170.248"/><linearGradient id="lg3"><stop offset="0" stop-color="#b5dbff" stop-opacity="0"/><stop offset=".1734" stop-color="#8fc5e9" stop-opacity=".173"/><stop offset=".4541" stop-color="#56a4c8" stop-opacity=".454"/><stop offset=".6955" stop-color="#2d8db1" stop-opacity=".696"/><stop offset=".8853" stop-color="#147ea2" stop-opacity=".885"/><stop offset="1" stop-color="#0b799d"/></linearGradient><linearGradient id="SVGID_3_" gradientUnits="userSpaceOnUse" x1="306.156" x2="47.51" xlink:href="#lg3" y1="86.406" y2="-35.652"/><linearGradient id="lg4"><stop offset="0" stop-color="#ff637b"/><stop offset="1" stop-color="#e63950"/></linearGradient><linearGradient id="SVGID_4_" gradientUnits="userSpaceOnUse" x1="48.325" x2="69.221" xlink:href="#lg4" y1="112.747" y2="128.667"/><linearGradient id="lg5"><stop offset="0" stop-color="#76e2f8"/><stop offset="1" stop-color="#0095ff"/></linearGradient><linearGradient id="SVGID_5_" gradientUnits="userSpaceOnUse" x1="158.927" x2="208.452" xlink:href="#lg5" y1="105.514" y2="155.038"/><linearGradient id="SVGID_6_" gradientUnits="userSpaceOnUse" x1="100.615" x2="150.139" xlink:href="#lg5" y1="105.514" y2="155.038"/><linearGradient id="SVGID_7_" gradientUnits="userSpaceOnUse" x1="379.6" x2="379.6" xlink:href="#lg2" y1="147.859" y2="64.878"/><linearGradient id="SVGID_8_" gradientUnits="userSpaceOnUse" x1="247.819" x2="258.717" xlink:href="#lg1" y1="193.244" y2="286.962"/><linearGradient id="SVGID_9_" gradientUnits="userSpaceOnUse" x1="251.81" x2="258.953" xlink:href="#lg2" y1="247.201" y2="308.63"/><linearGradient id="SVGID_10_" gradientUnits="userSpaceOnUse" x1="306.156" x2="47.51" xlink:href="#lg3" y1="224.787" y2="102.73"/><linearGradient id="SVGID_11_" gradientUnits="userSpaceOnUse" x1="48.325" x2="69.221" xlink:href="#lg4" y1="251.128" y2="267.049"/><linearGradient id="SVGID_12_" gradientUnits="userSpaceOnUse" x1="158.927" x2="208.452" xlink:href="#lg5" y1="243.896" y2="293.42"/><linearGradient id="SVGID_13_" gradientUnits="userSpaceOnUse" x1="100.615" x2="150.139" xlink:href="#lg4" y1="243.896" y2="293.42"/><linearGradient id="SVGID_14_" gradientUnits="userSpaceOnUse" x1="379.6" x2="379.6" xlink:href="#lg2" y1="286.241" y2="203.26"/><linearGradient id="SVGID_15_" gradientUnits="userSpaceOnUse" x1="247.819" x2="258.717" xlink:href="#lg1" y1="331.626" y2="425.344"/><linearGradient id="SVGID_16_" gradientUnits="userSpaceOnUse" x1="251.81" x2="258.953" xlink:href="#lg2" y1="385.583" y2="447.012"/><linearGradient id="SVGID_17_" gradientUnits="userSpaceOnUse" x1="306.156" x2="47.51" xlink:href="#lg3" y1="363.169" y2="241.112"/><linearGradient id="SVGID_18_" gradientUnits="userSpaceOnUse" x1="48.325" x2="69.221" xlink:href="#lg4" y1="389.51" y2="405.431"/><linearGradient id="SVGID_19_" gradientUnits="userSpaceOnUse" x1="158.927" x2="208.452" xlink:href="#lg5" y1="382.277" y2="431.802"/><linearGradient id="SVGID_20_" gradientUnits="userSpaceOnUse" x1="100.615" x2="150.139" xlink:href="#lg5" y1="382.277" y2="431.802"/><linearGradient id="SVGID_21_" gradientUnits="userSpaceOnUse" x1="379.6" x2="379.6" xlink:href="#lg2" y1="424.623" y2="341.642"/><linearGradient id="SVGID_22_" gradientUnits="userSpaceOnUse" x1="270.895" x2="270.895" xlink:href="#lg3" y1="240" y2="67"/><linearGradient id="SVGID_23_" gradientUnits="userSpaceOnUse" x1="270.895" x2="270.895" xlink:href="#lg3" y1="378.381" y2="205.381"/><g><g><path d="m478.215 185.809h-446.43c-17.554 0-31.785-14.231-31.785-31.785v-74.811c0-17.555 14.231-31.785 31.785-31.785h446.429c17.555 0 31.785 14.231 31.785 31.785v74.811c.001 17.554-14.23 31.785-31.784 31.785z" fill="url(#SVGID_1_)"/><path d="m0 116.618v37.405c0 17.555 14.231 31.785 31.785 31.785h446.429c17.555 0 31.785-14.231 31.785-31.785v-37.405z" fill="url(#SVGID_2_)"/><path d="m478.215 47.427h-223.215v138.382h223.215c17.555 0 31.785-14.231 31.785-31.785v-74.811c0-17.555-14.231-31.786-31.785-31.786z" fill="url(#SVGID_3_)"/><g><path d="m60.838 139.486h-14.864c-8.525 0-15.436-6.911-15.436-15.436v-14.864c0-8.525 6.911-15.436 15.436-15.436h14.864c8.525 0 15.436 6.911 15.436 15.436v14.864c0 8.525-6.911 15.436-15.436 15.436z" fill="url(#SVGID_4_)"/><path d="m177.464 139.486h-14.864c-8.525 0-15.436-6.911-15.436-15.436v-14.864c0-8.525 6.911-15.436 15.436-15.436h14.864c8.525 0 15.436 6.911 15.436 15.436v14.864c0 8.525-6.911 15.436-15.436 15.436z" fill="url(#SVGID_5_)"/><path d="m119.151 139.486h-14.864c-8.525 0-15.436-6.911-15.436-15.436v-14.864c0-8.525 6.911-15.436 15.436-15.436h14.864c8.525 0 15.436 6.911 15.436 15.436v14.864c0 8.525-6.911 15.436-15.436 15.436z" fill="url(#SVGID_6_)"/></g><path d="m460.609 139.486h-162.017c-9.229 0-16.71-7.481-16.71-16.71v-15.602c0-9.229 7.481-16.71 16.71-16.71h162.017c9.229 0 16.71 7.481 16.71 16.71v15.602c0 9.228-7.482 16.71-16.71 16.71z" fill="url(#SVGID_7_)"/></g><g><path d="m478.215 324.191h-446.43c-17.554 0-31.785-14.231-31.785-31.786v-74.811c0-17.555 14.231-31.785 31.785-31.785h446.429c17.555 0 31.785 14.231 31.785 31.785v74.811c.001 17.555-14.23 31.786-31.784 31.786z" fill="url(#SVGID_8_)"/><path d="m0 255v37.405c0 17.555 14.231 31.785 31.785 31.785h446.429c17.555 0 31.785-14.231 31.785-31.785v-37.405z" fill="url(#SVGID_9_)"/><path d="m478.215 185.809h-223.215v138.382h223.215c17.555 0 31.785-14.231 31.785-31.785v-74.811c0-17.555-14.231-31.786-31.785-31.786z" fill="url(#SVGID_10_)"/><g><path d="m60.838 277.868h-14.864c-8.525 0-15.436-6.911-15.436-15.436v-14.864c0-8.525 6.911-15.436 15.436-15.436h14.864c8.525 0 15.436 6.911 15.436 15.436v14.864c0 8.525-6.911 15.436-15.436 15.436z" fill="url(#SVGID_11_)"/><path d="m177.464 277.868h-14.864c-8.525 0-15.436-6.911-15.436-15.436v-14.864c0-8.525 6.911-15.436 15.436-15.436h14.864c8.525 0 15.436 6.911 15.436 15.436v14.864c0 8.525-6.911 15.436-15.436 15.436z" fill="url(#SVGID_12_)"/><path d="m119.151 277.868h-14.864c-8.525 0-15.436-6.911-15.436-15.436v-14.864c0-8.525 6.911-15.436 15.436-15.436h14.864c8.525 0 15.436 6.911 15.436 15.436v14.864c0 8.525-6.911 15.436-15.436 15.436z" fill="url(#SVGID_13_)"/></g><path d="m460.609 277.868h-162.017c-9.229 0-16.71-7.481-16.71-16.71v-15.602c0-9.229 7.481-16.71 16.71-16.71h162.017c9.229 0 16.71 7.481 16.71 16.71v15.602c0 9.228-7.482 16.71-16.71 16.71z" fill="url(#SVGID_14_)"/></g><g><path d="m478.215 462.573h-446.43c-17.554 0-31.785-14.231-31.785-31.786v-74.811c0-17.555 14.231-31.785 31.785-31.785h446.429c17.555 0 31.785 14.231 31.785 31.785v74.811c.001 17.555-14.23 31.786-31.784 31.786z" fill="url(#SVGID_15_)"/><path d="m0 393.382v37.405c0 17.555 14.231 31.785 31.785 31.785h446.429c17.555 0 31.785-14.231 31.785-31.785v-37.405z" fill="url(#SVGID_16_)"/><path d="m478.215 324.191h-223.215v138.382h223.215c17.555 0 31.785-14.231 31.785-31.785v-74.811c0-17.555-14.231-31.786-31.785-31.786z" fill="url(#SVGID_17_)"/><g><path d="m60.838 416.25h-14.864c-8.525 0-15.436-6.911-15.436-15.436v-14.864c0-8.525 6.911-15.436 15.436-15.436h14.864c8.525 0 15.436 6.911 15.436 15.436v14.864c0 8.525-6.911 15.436-15.436 15.436z" fill="url(#SVGID_18_)"/><path d="m177.464 416.25h-14.864c-8.525 0-15.436-6.911-15.436-15.436v-14.864c0-8.525 6.911-15.436 15.436-15.436h14.864c8.525 0 15.436 6.911 15.436 15.436v14.864c0 8.525-6.911 15.436-15.436 15.436z" fill="url(#SVGID_19_)"/><path d="m119.151 416.25h-14.864c-8.525 0-15.436-6.911-15.436-15.436v-14.864c0-8.525 6.911-15.436 15.436-15.436h14.864c8.525 0 15.436 6.911 15.436 15.436v14.864c0 8.525-6.911 15.436-15.436 15.436z" fill="url(#SVGID_20_)"/></g><path d="m460.609 416.25h-162.017c-9.229 0-16.71-7.481-16.71-16.71v-15.602c0-9.229 7.481-16.71 16.71-16.71h162.017c9.229 0 16.71 7.481 16.71 16.71v15.602c0 9.228-7.482 16.71-16.71 16.71z" fill="url(#SVGID_21_)"/></g><path d="m510 217.59v74.82c0 17.55-14.23 31.78-31.79 31.78h-308.05l-138.37-138.38h446.42c17.56 0 31.79 14.23 31.79 31.78z" fill="url(#SVGID_22_)"/><path d="m510 355.971v74.82c0 17.55-14.23 31.78-31.79 31.78h-308.05l-138.37-138.38h446.42c17.56 0 31.79 14.23 31.79 31.78z" fill="url(#SVGID_23_)"/></g></svg>