<svg id="Capa_1" enable-background="new 0 0 510 510" height="512" viewBox="0 0 510 510" width="512" xmlns="http://www.w3.org/2000/svg" xmlns:xlink="http://www.w3.org/1999/xlink"><linearGradient id="lg1"><stop offset="0" stop-color="#0b799d"/><stop offset="1" stop-color="#07485e"/></linearGradient><linearGradient id="SVGID_1_" gradientUnits="userSpaceOnUse" x1="124.345" x2="413.139" xlink:href="#lg1" y1="82.556" y2="371.35"/><linearGradient id="SVGID_2_" gradientUnits="userSpaceOnUse" x1="515.927" x2="-25.606" xlink:href="#lg1" y1="474.138" y2="-67.394"/><linearGradient id="lg2"><stop offset="0" stop-color="#ffda2d"/><stop offset="1" stop-color="#fdbf00"/></linearGradient><linearGradient id="SVGID_3_" gradientUnits="userSpaceOnUse" x1="359.059" x2="403.408" xlink:href="#lg2" y1="61.247" y2="112.988"/><linearGradient id="SVGID_4_" gradientUnits="userSpaceOnUse" x1="303.871" x2="348.22" xlink:href="#lg2" y1="61.247" y2="112.988"/><linearGradient id="SVGID_5_" gradientUnits="userSpaceOnUse" x1="248.683" x2="293.032" xlink:href="#lg2" y1="61.247" y2="112.988"/><linearGradient id="SVGID_6_" gradientUnits="userSpaceOnUse" x1="193.495" x2="237.844" xlink:href="#lg2" y1="61.247" y2="112.988"/><linearGradient id="SVGID_7_" gradientUnits="userSpaceOnUse" x1="138.307" x2="182.656" xlink:href="#lg2" y1="61.247" y2="112.988"/><linearGradient id="SVGID_8_" gradientUnits="userSpaceOnUse" x1="92.978" x2="124.433" xlink:href="#lg2" y1="93.648" y2="130.345"/><linearGradient id="SVGID_9_" gradientUnits="userSpaceOnUse" x1="157.691" x2="466.299" xlink:href="#lg1" y1="172.889" y2="481.498"/><linearGradient id="lg3"><stop offset="0" stop-color="#07485e" stop-opacity="0"/><stop offset="1" stop-color="#03232e"/></linearGradient><linearGradient id="SVGID_10_" gradientUnits="userSpaceOnUse" x1="255" x2="255" xlink:href="#lg3" y1="361" y2="435.243"/><linearGradient id="SVGID_11_" gradientUnits="userSpaceOnUse" x1="419.646" x2="286.979" xlink:href="#lg3" y1="471.359" y2="392.026"/><linearGradient id="SVGID_12_" gradientUnits="userSpaceOnUse" x1="192.044" x2="317.956" y1="289.754" y2="492.022"><stop offset="0" stop-color="#b9dd39"/><stop offset="1" stop-color="#90cc1c"/></linearGradient><linearGradient id="SVGID_13_" gradientUnits="userSpaceOnUse" x1="318.922" x2="102.921" y1="463.745" y2="247.744"><stop offset="0" stop-color="#0b799d" stop-opacity="0"/><stop offset=".3645" stop-color="#096380" stop-opacity=".365"/><stop offset=".76" stop-color="#084f67" stop-opacity=".76"/><stop offset="1" stop-color="#07485e"/></linearGradient><linearGradient id="SVGID_14_" gradientUnits="userSpaceOnUse" x1="217.63" x2="274.817" y1="306.728" y2="363.915"><stop offset="0" stop-color="#edf5ff"/><stop offset="1" stop-color="#b5dbff"/></linearGradient><linearGradient id="SVGID_15_" gradientUnits="userSpaceOnUse" x1="252.699" x2="252.699" y1="347.86" y2="210.74"><stop offset="0" stop-color="#b5dbff" stop-opacity="0"/><stop offset=".2428" stop-color="#93cef6" stop-opacity=".243"/><stop offset=".5763" stop-color="#6abfec" stop-opacity=".576"/><stop offset=".8403" stop-color="#51b5e5" stop-opacity=".84"/><stop offset="1" stop-color="#48b2e3"/></linearGradient><linearGradient id="SVGID_16_" gradientUnits="userSpaceOnUse" x1="217.003" x2="280.708" xlink:href="#lg2" y1="374.652" y2="438.357"/><linearGradient id="SVGID_17_" gradientUnits="userSpaceOnUse" x1="282.848" x2="219.302" xlink:href="#lg2" y1="437.35" y2="373.804"/><linearGradient id="SVGID_18_" gradientUnits="userSpaceOnUse" x1="276.825" x2="227.024" xlink:href="#lg1" y1="431.331" y2="381.531"/><linearGradient id="SVGID_19_" gradientUnits="userSpaceOnUse" x1="255" x2="255" y1="452.806" y2="471.993"><stop offset="0" stop-color="#ff9100" stop-opacity="0"/><stop offset="1" stop-color="#ff9100"/></linearGradient><g><g><path d="m129.299 10.16-65.706 65.707c-6.506 6.506-10.16 15.329-10.16 24.529v291.337c0 19.159 15.531 34.69 34.69 34.69h333.756c19.159 0 34.69-15.531 34.69-34.69v-357.043c0-19.159-15.531-34.69-34.69-34.69h-268.05c-9.201 0-18.024 3.655-24.53 10.16z" fill="url(#SVGID_1_)"/><path d="m140.69 28.56-59.753 59.752c-5.916 5.916-9.24 13.94-9.24 22.307v264.937c0 17.423 14.124 31.546 31.546 31.546h303.513c17.423 0 31.546-14.124 31.546-31.546v-324.689c0-17.423-14.124-31.546-31.546-31.546h-243.76c-8.366-.001-16.39 3.323-22.306 9.239z" fill="url(#SVGID_2_)"/><g><path d="m404.351 160.283h-22.762c-4.617 0-8.359-3.743-8.359-8.359v-102.228c0-4.617 3.743-8.359 8.359-8.359h22.762c4.617 0 8.359 3.743 8.359 8.359v102.227c0 4.617-3.742 8.36-8.359 8.36z" fill="url(#SVGID_3_)"/><path d="m349.163 160.283h-22.762c-4.617 0-8.359-3.743-8.359-8.359v-102.228c0-4.617 3.743-8.359 8.359-8.359h22.762c4.617 0 8.359 3.743 8.359 8.359v102.227c0 4.617-3.742 8.36-8.359 8.36z" fill="url(#SVGID_4_)"/><path d="m293.975 160.283h-22.762c-4.617 0-8.359-3.743-8.359-8.359v-102.228c0-4.617 3.743-8.359 8.359-8.359h22.762c4.617 0 8.359 3.743 8.359 8.359v102.227c0 4.617-3.742 8.36-8.359 8.36z" fill="url(#SVGID_5_)"/><path d="m238.787 160.283h-22.762c-4.617 0-8.359-3.743-8.359-8.359v-102.228c0-4.617 3.743-8.359 8.359-8.359h22.762c4.617 0 8.359 3.743 8.359 8.359v102.227c0 4.617-3.742 8.36-8.359 8.36z" fill="url(#SVGID_6_)"/><path d="m183.599 160.283h-22.762c-4.617 0-8.359-3.743-8.359-8.359v-102.228c0-4.617 3.743-8.359 8.359-8.359h22.762c4.617 0 8.359 3.743 8.359 8.359v102.227c0 4.617-3.742 8.36-8.359 8.36z" fill="url(#SVGID_7_)"/><path d="m128.411 160.283h-22.762c-4.617 0-8.359-3.743-8.359-8.359v-60.43c0-4.617 3.743-8.359 8.359-8.359h22.762c4.617 0 8.359 3.743 8.359 8.359v60.43c0 4.616-3.742 8.359-8.359 8.359z" fill="url(#SVGID_8_)"/></g><path d="m403.138 393.265h-296.276c-10.298 0-18.647-8.348-18.647-18.647v-208.839c0-10.298 8.348-18.647 18.647-18.647h296.276c10.298 0 18.647 8.348 18.647 18.647v208.839c0 10.299-8.349 18.647-18.647 18.647z" fill="url(#SVGID_9_)"/></g><path d="m53.432 323.875v67.858c0 19.159 15.531 34.69 34.69 34.69h333.756c19.159 0 34.69-15.531 34.69-34.69v-67.858z" fill="url(#SVGID_10_)"/><path d="m447.567 415.045-106.674-106.674c-21.674-22.555-52.142-34.594-85.893-34.594-65.784 0-117.111 51.327-117.111 117.111 0 12.378 1.895 24.312 5.4 35.535h278.589c10.184 0 19.343-4.389 25.689-11.378z" fill="url(#SVGID_11_)"/><g><circle cx="255" cy="390.888" fill="url(#SVGID_12_)" r="119.112"/><path d="m374.112 390.888c0-2.084-.056-4.154-.161-6.212l-76.486-76.486c-11.169-12.024-27.1-18.108-44.766-18.108-33.701 0-59.66 25.959-59.66 59.66v7.44c-5.014 2.571-8.452 6.322-8.452 12.344v86.246c0 5.105 1.018 9.62 4.823 12.447l38.694 38.694c8.648 1.997 17.642 3.087 26.896 3.087 65.784 0 119.112-53.328 119.112-119.112z" fill="url(#SVGID_13_)"/><g><g><path d="m313.817 359.126h-22.195v-9.384c0-21.462-17.461-38.923-38.923-38.923s-38.923 17.461-38.923 38.923v9.384h-22.196v-9.384c0-33.701 27.418-61.119 61.119-61.119s61.119 27.418 61.119 61.119v9.384z" fill="url(#SVGID_14_)"/><path d="m252.699 300.641c-27.956 0-50.701 22.744-50.701 50.701v7.784h11.777v-9.384c0-21.462 17.461-38.923 38.923-38.923s38.923 17.461 38.923 38.923v9.384h11.779v-7.784c0-27.957-22.745-50.701-50.701-50.701z" fill="url(#SVGID_15_)"/></g><g><g><path d="m311.356 471.287h-112.712c-8.569 0-15.515-6.946-15.515-15.515v-86.246c0-8.569 6.946-15.515 15.515-15.515h112.712c8.569 0 15.515 6.946 15.515 15.515v86.246c0 8.568-6.946 15.515-15.515 15.515z" fill="url(#SVGID_16_)"/><path d="m282.553 401.595c0-15.217-12.336-27.553-27.553-27.553s-27.553 12.336-27.553 27.553c0 10.773 6.186 20.095 15.197 24.625v12.679c0 6.824 5.532 12.357 12.357 12.357 6.824 0 12.357-5.532 12.357-12.357v-12.679c9.009-4.53 15.195-13.852 15.195-24.625z" fill="url(#SVGID_17_)"/><path d="m255 444.093c-2.864 0-5.193-2.33-5.193-5.193v-17.095l-3.945-1.984c-6.94-3.489-11.251-10.473-11.251-18.226 0-11.243 9.147-20.39 20.39-20.39s20.39 9.147 20.39 20.39c0 7.753-4.311 14.736-11.251 18.226l-3.945 1.984v17.095c-.002 2.863-2.331 5.193-5.195 5.193z" fill="url(#SVGID_18_)"/><path d="m183.129 432.29v23.482c0 8.569 6.946 15.515 15.515 15.515h112.712c8.569 0 15.515-6.946 15.515-15.515v-23.482z" fill="url(#SVGID_19_)"/></g></g></g></g></g></svg>