<svg id="Capa_1" enable-background="new 0 0 510 510" height="512" viewBox="0 0 510 510" width="512" xmlns="http://www.w3.org/2000/svg" xmlns:xlink="http://www.w3.org/1999/xlink"><linearGradient id="lg1"><stop offset="0" stop-color="#edf5ff"/><stop offset="1" stop-color="#d5e8fe"/></linearGradient><linearGradient id="SVGID_1_" gradientUnits="userSpaceOnUse" x1="37.864" x2="147.232" xlink:href="#lg1" y1="73.539" y2="185.14"/><linearGradient id="lg2"><stop offset="0" stop-color="#b5dbff" stop-opacity="0"/><stop offset=".2428" stop-color="#93cef6" stop-opacity=".243"/><stop offset=".5763" stop-color="#6abfec" stop-opacity=".576"/><stop offset=".8403" stop-color="#51b5e5" stop-opacity=".84"/><stop offset="1" stop-color="#48b2e3"/></linearGradient><linearGradient id="SVGID_2_" gradientUnits="userSpaceOnUse" x1="274.727" x2="254.528" xlink:href="#lg2" y1="121.079" y2="38.841"/><linearGradient id="SVGID_3_" gradientUnits="userSpaceOnUse" x1="249.515" x2="261.212" xlink:href="#lg1" y1="12.773" y2="72.717"/><linearGradient id="SVGID_4_" gradientUnits="userSpaceOnUse" x1="153.873" x2="153.873" xlink:href="#lg2" y1="328.692" y2="371.749"/><linearGradient id="SVGID_5_" gradientUnits="userSpaceOnUse" x1="240.118" x2="349.486" xlink:href="#lg1" y1="226.704" y2="338.305"/><linearGradient id="SVGID_6_" gradientUnits="userSpaceOnUse" x1="476.981" x2="456.782" xlink:href="#lg2" y1="274.244" y2="192.006"/><linearGradient id="SVGID_7_" gradientUnits="userSpaceOnUse" x1="451.769" x2="463.466" xlink:href="#lg1" y1="165.938" y2="225.882"/><linearGradient id="SVGID_8_" gradientUnits="userSpaceOnUse" x1="356.127" x2="356.127" xlink:href="#lg2" y1="481.857" y2="524.914"/><linearGradient id="lg3"><stop offset="0" stop-color="#b9dd39"/><stop offset="1" stop-color="#90cc1c"/></linearGradient><linearGradient id="SVGID_9_" gradientUnits="userSpaceOnUse" x1="117.8" x2="85.453" xlink:href="#lg3" y1="421.337" y2="492.499"/><linearGradient id="SVGID_10_" gradientTransform="matrix(-1 0 0 -1 703.742 349.195)" gradientUnits="userSpaceOnUse" x1="311.542" x2="279.195" xlink:href="#lg3" y1="260.532" y2="331.694"/><g><g><g><g><path d="m227.127 0h-192.136c-11.631 0-21.059 9.428-21.059 21.059v314.717c0 11.631 9.428 21.059 21.059 21.059h237.764c11.631 0 21.059-9.428 21.059-21.059v-269.089c0-36.83-29.857-66.687-66.687-66.687z" fill="url(#SVGID_1_)"/><path d="m228.608 61.59 65.206 65.206v-60.109c0-36.83-29.857-65.156-66.687-65.156h-4.319v44.097c0 6.384 1.314 12.1 5.8 15.962z" fill="url(#SVGID_2_)"/><path d="m242.336 66.687c-11.631 0-21.059-9.429-21.059-21.059v-45.628h5.85c36.83 0 66.687 29.857 66.687 66.687z" fill="url(#SVGID_3_)"/></g><g><g><g fill="#b5dbff"><g><path d="m116.424 214.932h-57.168c-4.189 0-7.585-3.396-7.585-7.585v-15.171c0-4.189 3.396-7.585 7.585-7.585h57.168c4.189 0 7.585 3.396 7.585 7.585v15.171c0 4.189-3.396 7.585-7.585 7.585z"/><path d="m248.49 214.932h-99.807c-4.189 0-7.585-3.396-7.585-7.585v-15.171c0-4.189 3.396-7.585 7.585-7.585h99.807c4.189 0 7.585 3.396 7.585 7.585v15.171c0 4.189-3.396 7.585-7.585 7.585z"/></g><g><path d="m191.322 260.631h57.168c4.189 0 7.585-3.396 7.585-7.585v-15.171c0-4.189-3.396-7.585-7.585-7.585h-57.168c-4.189 0-7.585 3.396-7.585 7.585v15.171c0 4.189 3.396 7.585 7.585 7.585z"/><path d="m59.256 260.631h99.807c4.189 0 7.585-3.396 7.585-7.585v-15.171c0-4.189-3.396-7.585-7.585-7.585h-99.807c-4.189 0-7.585 3.396-7.585 7.585v15.171c0 4.189 3.396 7.585 7.585 7.585z"/></g><g><path d="m116.424 306.33h-57.168c-4.189 0-7.585-3.396-7.585-7.585v-15.171c0-4.189 3.396-7.585 7.585-7.585h57.168c4.189 0 7.585 3.396 7.585 7.585v15.171c0 4.189-3.396 7.585-7.585 7.585z"/><path d="m248.49 306.33h-99.807c-4.189 0-7.585-3.396-7.585-7.585v-15.171c0-4.189 3.396-7.585 7.585-7.585h99.807c4.189 0 7.585 3.396 7.585 7.585v15.171c0 4.189-3.396 7.585-7.585 7.585z"/></g></g></g><path d="m145.512 167.537h-83.356c-5.791 0-10.485-4.694-10.485-10.485v-100.77c0-5.791 4.694-10.485 10.485-10.485h83.356c5.791 0 10.485 4.694 10.485 10.485v100.77c0 5.79-4.695 10.485-10.485 10.485z" fill="#48b2e3"/></g><path d="m13.932 306.33v29.446c0 11.63 9.428 21.059 21.059 21.059h237.764c11.631 0 21.059-9.428 21.059-21.059v-29.446z" fill="url(#SVGID_4_)"/></g><g><g><path d="m429.381 153.165h-192.136c-11.631 0-21.059 9.428-21.059 21.059v314.717c0 11.631 9.428 21.059 21.059 21.059h237.764c11.631 0 21.059-9.428 21.059-21.059v-269.089c0-36.83-29.856-66.687-66.687-66.687z" fill="url(#SVGID_5_)"/><path d="m430.862 214.755 65.206 65.206v-60.109c0-36.83-29.857-65.156-66.687-65.156h-4.319v44.097c.001 6.384 1.314 12.1 5.8 15.962z" fill="url(#SVGID_6_)"/><path d="m444.591 219.852c-11.631 0-21.059-9.429-21.059-21.059v-45.628h5.85c36.83 0 66.687 29.857 66.687 66.687z" fill="url(#SVGID_7_)"/></g><g><g><g fill="#b5dbff"><g><path d="m318.678 368.097h-57.168c-4.189 0-7.585-3.396-7.585-7.585v-15.171c0-4.189 3.396-7.585 7.585-7.585h57.168c4.189 0 7.585 3.396 7.585 7.585v15.171c0 4.189-3.396 7.585-7.585 7.585z"/><path d="m450.744 368.097h-99.807c-4.189 0-7.585-3.396-7.585-7.585v-15.171c0-4.189 3.396-7.585 7.585-7.585h99.807c4.189 0 7.585 3.396 7.585 7.585v15.171c0 4.189-3.396 7.585-7.585 7.585z"/></g><g><path d="m393.576 413.796h57.168c4.189 0 7.585-3.396 7.585-7.585v-15.171c0-4.189-3.396-7.585-7.585-7.585h-57.168c-4.189 0-7.585 3.396-7.585 7.585v15.171c0 4.189 3.396 7.585 7.585 7.585z"/><path d="m261.51 413.796h99.807c4.189 0 7.585-3.396 7.585-7.585v-15.171c0-4.189-3.396-7.585-7.585-7.585h-99.807c-4.189 0-7.585 3.396-7.585 7.585v15.171c0 4.189 3.396 7.585 7.585 7.585z"/></g><g><path d="m318.678 459.495h-57.168c-4.189 0-7.585-3.396-7.585-7.585v-15.171c0-4.189 3.396-7.585 7.585-7.585h57.168c4.189 0 7.585 3.396 7.585 7.585v15.171c0 4.189-3.396 7.585-7.585 7.585z"/><path d="m450.744 459.495h-99.807c-4.189 0-7.585-3.396-7.585-7.585v-15.171c0-4.189 3.396-7.585 7.585-7.585h99.807c4.189 0 7.585 3.396 7.585 7.585v15.171c0 4.189-3.396 7.585-7.585 7.585z"/></g></g></g><path d="m347.766 320.702h-83.356c-5.791 0-10.485-4.694-10.485-10.485v-100.77c0-5.791 4.694-10.485 10.485-10.485h83.356c5.791 0 10.485 4.694 10.485 10.485v100.77c0 5.79-4.694 10.485-10.485 10.485z" fill="#48b2e3"/></g><path d="m216.186 459.495v29.446c0 11.63 9.428 21.059 21.059 21.059h237.764c11.631 0 21.059-9.428 21.059-21.059v-29.446z" fill="url(#SVGID_8_)"/></g></g><path d="m203.814 463.884c-6.362-6.362-15.741-8.532-24.307-5.781-9.463 3.04-19.613 4.536-30.148 4.192-25.482-.831-48.301-12.494-64.045-30.472l12.494-8.089c7.921-5.128 7.099-16.969-1.454-20.955l-65.351-30.451c-8.025-3.739-17.198 2.2-17.071 11.052v72.089c.136 9.435 11.642 15.031 19.563 9.902l12.196-7.896c24.611 30.792 61.905 51.361 102.846 52.472 16.069.436 31.545-1.915 45.976-6.605 16.844-5.473 21.824-26.935 9.301-39.458z" fill="url(#SVGID_9_)"/><path d="m306.186 46.116c6.362 6.362 15.741 8.532 24.307 5.781 9.463-3.04 19.613-4.536 30.148-4.192 25.482.831 48.301 12.494 64.045 30.472l-12.494 8.089c-7.921 5.128-7.099 16.969 1.454 20.955l65.351 30.451c8.025 3.739 17.198-2.2 17.071-11.052v-72.09c-.136-9.435-11.642-15.031-19.563-9.902l-12.196 7.896c-24.611-30.793-61.905-51.361-102.847-52.473-16.069-.436-31.545 1.915-45.976 6.605-16.843 5.475-21.823 26.937-9.3 39.46z" fill="url(#SVGID_10_)"/></g></svg>