<svg id="Capa_1" enable-background="new 0 0 510 510" height="512" viewBox="0 0 510 510" width="512" xmlns="http://www.w3.org/2000/svg" xmlns:xlink="http://www.w3.org/1999/xlink"><linearGradient id="lg1"><stop offset="0" stop-color="#0b799d"/><stop offset="1" stop-color="#07485e"/></linearGradient><linearGradient id="SVGID_1_" gradientUnits="userSpaceOnUse" x1="162.365" x2="465.247" xlink:href="#lg1" y1="138.188" y2="441.07"/><linearGradient id="SVGID_2_" gradientUnits="userSpaceOnUse" x1="409.202" x2="51.196" xlink:href="#lg1" y1="385.025" y2="27.019"/><linearGradient id="lg2"><stop offset="0" stop-color="#07485e" stop-opacity="0"/><stop offset="1" stop-color="#03232e"/></linearGradient><linearGradient id="SVGID_3_" gradientUnits="userSpaceOnUse" x1="255" x2="255" xlink:href="#lg2" y1="305.348" y2="366.484"/><linearGradient id="SVGID_4_" gradientUnits="userSpaceOnUse" x1="156.338" x2="353.817" y1="132.162" y2="329.64"><stop offset="0" stop-color="#edf5ff"/><stop offset="1" stop-color="#d5e8fe"/></linearGradient><linearGradient id="SVGID_5_" gradientUnits="userSpaceOnUse" x1="268.136" x2="238.24" xlink:href="#lg1" y1="104.869" y2="74.972"/><linearGradient id="SVGID_6_" gradientTransform="matrix(-1 0 0 -1 1574 -824)" gradientUnits="userSpaceOnUse" x1="1327.244" x2="1308.481" xlink:href="#lg1" y1="-907.488" y2="-926.251"/><linearGradient id="SVGID_7_" gradientUnits="userSpaceOnUse" x1="255" x2="255" xlink:href="#lg1" y1="364.157" y2="467.141"/><linearGradient id="SVGID_8_" gradientUnits="userSpaceOnUse" x1="249.937" x2="285.654" xlink:href="#lg2" y1="378.626" y2="517.374"/><linearGradient id="SVGID_9_" gradientUnits="userSpaceOnUse" x1="255" x2="255" xlink:href="#lg1" y1="360.722" y2="383.389"/><linearGradient id="lg3"><stop offset="0" stop-color="#ff637b"/><stop offset="1" stop-color="#e63950"/></linearGradient><linearGradient id="SVGID_10_" gradientUnits="userSpaceOnUse" x1="38.921" x2="48.065" xlink:href="#lg3" y1="375.809" y2="382.776"/><linearGradient id="SVGID_11_" gradientUnits="userSpaceOnUse" x1="64.439" x2="73.584" y1="375.809" y2="382.776"><stop offset="0" stop-color="#ffda2d"/><stop offset="1" stop-color="#fdbf00"/></linearGradient><linearGradient id="SVGID_12_" gradientUnits="userSpaceOnUse" x1="87.322" x2="108.994" y1="372.644" y2="394.316"><stop offset="0" stop-color="#b9dd39"/><stop offset="1" stop-color="#0b799d"/></linearGradient><linearGradient id="lg4"><stop offset="0" stop-color="#b5dbff" stop-opacity="0"/><stop offset=".1734" stop-color="#8fc5e9" stop-opacity=".173"/><stop offset=".4541" stop-color="#56a4c8" stop-opacity=".454"/><stop offset=".6955" stop-color="#2d8db1" stop-opacity=".696"/><stop offset=".8853" stop-color="#147ea2" stop-opacity=".885"/><stop offset="1" stop-color="#0b799d"/></linearGradient><linearGradient id="SVGID_13_" gradientUnits="userSpaceOnUse" x1="189.623" x2="-113.877" xlink:href="#lg4" y1="293.928" y2="104.428"/><linearGradient id="SVGID_14_" gradientUnits="userSpaceOnUse" x1="273.234" x2="-30.266" xlink:href="#lg4" y1="288.903" y2="99.403"/><linearGradient id="SVGID_15_" gradientUnits="userSpaceOnUse" x1="352.471" x2="94.585" xlink:href="#lg4" y1="281.15" y2="120.13"/><linearGradient id="SVGID_16_" gradientUnits="userSpaceOnUse" x1="421.351" x2="253.538" xlink:href="#lg4" y1="264.045" y2="159.266"/><linearGradient id="SVGID_17_" gradientUnits="userSpaceOnUse" x1="95.603" x2="136.659" xlink:href="#lg3" y1="208.545" y2="249.602"/><linearGradient id="SVGID_18_" gradientUnits="userSpaceOnUse" x1="187.262" x2="228.318" xlink:href="#lg3" y1="208.545" y2="249.602"/><linearGradient id="SVGID_19_" gradientUnits="userSpaceOnUse" x1="278.921" x2="319.977" xlink:href="#lg3" y1="208.545" y2="249.602"/><linearGradient id="SVGID_20_" gradientUnits="userSpaceOnUse" x1="370.579" x2="411.636" xlink:href="#lg3" y1="208.545" y2="249.602"/><g><g><g><path d="m452.104 391.052h-394.208c-15.832 0-28.667-12.835-28.667-28.667v-263.124c0-15.832 12.835-28.667 28.667-28.667h394.209c15.832 0 28.667 12.835 28.667 28.667v263.124c-.001 15.832-12.835 28.667-28.668 28.667z" fill="url(#SVGID_1_)"/><path d="m436.554 369.914h-363.108c-12.586 0-22.789-10.203-22.789-22.789v-232.603c0-12.586 10.203-22.789 22.789-22.789h363.108c12.586 0 22.789 10.203 22.789 22.789v232.603c0 12.586-10.203 22.789-22.789 22.789z" fill="url(#SVGID_2_)"/><path d="m29.229 285.429v76.956c0 15.832 12.835 28.667 28.667 28.667h394.209c15.832 0 28.667-12.835 28.667-28.667v-76.956z" fill="url(#SVGID_3_)"/><path d="m425.361 356.177h-340.721c-11.561 0-20.932-9.372-20.932-20.932v-208.843c0-11.561 9.372-20.932 20.932-20.932h340.721c11.561 0 20.932 9.372 20.932 20.932v208.842c0 11.561-9.372 20.933-20.932 20.933z" fill="url(#SVGID_4_)"/><circle cx="255" cy="91.732" fill="url(#SVGID_5_)" r="8.758"/><circle cx="255" cy="91.732" fill="url(#SVGID_6_)" r="5.496"/></g><g><path d="m0 378.283v16.751c0 7.751 3.464 15.096 9.445 20.026l20.732 17.09c5.69 4.691 12.835 7.256 20.21 7.256h409.225c7.375 0 14.52-2.565 20.21-7.256l20.732-17.09c5.981-4.93 9.445-12.275 9.445-20.026v-16.751c0-12.209-9.897-22.106-22.106-22.106h-465.787c-12.209 0-22.106 9.897-22.106 22.106z" fill="url(#SVGID_7_)"/><path d="m.145 397.726c.703 6.739 4.018 12.979 9.301 17.334l20.732 17.09c5.691 4.691 12.835 7.256 20.21 7.256h409.225c7.375 0 14.52-2.565 20.21-7.256l20.732-17.089c5.283-4.355 8.598-10.595 9.301-17.334h-509.711z" fill="url(#SVGID_8_)"/><path d="m282.761 379.244h-55.523c-12.74 0-23.067-10.327-23.067-23.067h101.657c0 12.739-10.327 23.067-23.067 23.067z" fill="url(#SVGID_9_)"/><g><path d="m44.397 387.51h-6.505c-3.731 0-6.755-3.024-6.755-6.755v-6.505c0-3.731 3.024-6.755 6.755-6.755h6.505c3.731 0 6.755 3.024 6.755 6.755v6.505c0 3.731-3.024 6.755-6.755 6.755z" fill="url(#SVGID_10_)"/><path d="m69.915 387.51h-6.505c-3.731 0-6.755-3.024-6.755-6.755v-6.505c0-3.731 3.024-6.755 6.755-6.755h6.505c3.731 0 6.755 3.024 6.755 6.755v6.505c0 3.731-3.024 6.755-6.755 6.755z" fill="url(#SVGID_11_)"/><path d="m95.434 387.51h-6.505c-3.731 0-6.755-3.024-6.755-6.755v-6.505c0-3.731 3.024-6.755 6.755-6.755h6.505c3.731 0 6.755 3.024 6.755 6.755v6.505c0 3.731-3.025 6.755-6.755 6.755z" fill="url(#SVGID_12_)"/></g></g></g><path d="m156.474 212.074c-1.667-2.753-4.341-4.8-7.641-4.8-.915 0-1.832.183-2.747.549l-1.897.644-17.658-17.023c-1.554-3.323-4.988-4.868-8.835-4.868-5.128 0-9.707 2.748-9.891 8.792l.916 18.682-19.233-6.228c-1.281-.549-2.198-.549-2.747-.549-5.861 0-10.074 5.312-10.074 10.074 0 4.179 1.553 7.511 4.78 8.883l14.332 14.732-5.924 8.437c-1.282 1.466-2.198 3.48-2.198 5.861 0 3.291 2.122 5.815 4.761 7.438l93.477 93.477h114.682z" fill="url(#SVGID_13_)"/><path d="m248.132 212.074c-1.667-2.753-4.341-4.8-7.641-4.8-.915 0-1.832.183-2.747.549l-1.897.644-17.658-17.023c-1.554-3.323-4.988-4.868-8.835-4.868-5.128 0-9.707 2.748-9.891 8.792l.916 18.682-19.233-6.228c-1.281-.549-2.198-.549-2.747-.549-5.861 0-10.074 5.312-10.074 10.074 0 4.179 1.553 7.511 4.78 8.883l14.332 14.732-5.924 8.437c-1.282 1.466-2.198 3.48-2.198 5.861 0 3.291 2.122 5.815 4.761 7.438l93.477 93.477h114.682z" fill="url(#SVGID_14_)"/><path d="m446.29 318.58v16.66c0 1.94-.26 3.82-.76 5.6-2.45 8.84-10.55 15.34-20.17 15.34h-56.15l-93.47-93.48c-2.64-1.62-4.77-4.15-4.77-7.44 0-2.38.92-4.39 2.2-5.86l5.93-8.44-14.34-14.73c-3.22-1.37-4.78-4.7-4.78-8.88 0-4.76 4.22-10.08 10.08-10.08.55 0 1.46 0 2.75.55l19.23 6.23-.92-18.68c.19-6.05 4.76-8.79 9.89-8.79 3.85 0 7.28 1.54 8.84 4.87l17.66 17.02 1.89-.65c.92-.36 1.83-.55 2.75-.55 3.3 0 5.97 2.05 7.64 4.8z" fill="url(#SVGID_15_)"/><path d="m446.29 226.91v108.33c0 1.94-.26 3.82-.76 5.6l-78.14-78.14c-2.63-1.62-4.76-4.15-4.76-7.44 0-2.38.92-4.39 2.2-5.86l5.93-8.44-14.34-14.73c-3.22-1.37-4.78-4.7-4.78-8.88 0-4.76 4.22-10.08 10.08-10.08.55 0 1.46 0 2.74.55l19.24 6.23-.92-18.68c.18-6.05 4.76-8.79 9.89-8.79 3.85 0 7.28 1.54 8.84 4.87l17.65 17.02 1.9-.65c.92-.36 1.83-.55 2.75-.55 3.3 0 5.97 2.05 7.64 4.8z" fill="url(#SVGID_16_)"/><g><path d="m146.269 249.585c.915 1.099 1.465 3.297 1.465 5.312 0 5.861-5.861 9.891-11.173 9.891-2.014 0-4.945-.366-6.96-3.48l-11.906-18.316-12.088 18.499c-1.648 2.748-3.846 3.297-6.411 3.297-4.396 0-11.539-3.48-11.539-9.525 0-2.381.915-4.395 2.198-5.861l12.088-17.217-19.048-5.495c-4.213-.916-6.228-4.579-6.228-9.341s4.213-10.074 10.074-10.074c.549 0 1.466 0 2.747.549l19.233 6.228-.916-18.682c.183-6.044 4.762-8.792 9.891-8.792s9.525 2.748 9.708 8.792l-.733 19.049 19.415-6.594c.915-.366 1.832-.549 2.747-.549 5.679 0 9.525 6.045 9.525 11.356 0 3.663-1.832 7.143-6.227 8.059l-18.683 4.396z" fill="url(#SVGID_17_)"/></g><g><path d="m237.927 249.585c.915 1.099 1.465 3.297 1.465 5.312 0 5.861-5.861 9.891-11.173 9.891-2.014 0-4.945-.366-6.96-3.48l-11.906-18.316-12.088 18.499c-1.648 2.748-3.846 3.297-6.411 3.297-4.396 0-11.539-3.48-11.539-9.525 0-2.381.915-4.395 2.198-5.861l12.088-17.217-19.048-5.495c-4.213-.916-6.228-4.579-6.228-9.341s4.213-10.074 10.074-10.074c.549 0 1.466 0 2.747.549l19.233 6.228-.916-18.682c.183-6.044 4.762-8.792 9.891-8.792s9.525 2.748 9.708 8.792l-.733 19.049 19.415-6.594c.915-.366 1.832-.549 2.747-.549 5.679 0 9.525 6.045 9.525 11.356 0 3.663-1.832 7.143-6.227 8.059l-18.683 4.396z" fill="url(#SVGID_18_)"/></g><g><path d="m329.586 249.585c.915 1.099 1.465 3.297 1.465 5.312 0 5.861-5.861 9.891-11.173 9.891-2.014 0-4.945-.366-6.96-3.48l-11.906-18.316-12.088 18.499c-1.648 2.748-3.846 3.297-6.411 3.297-4.396 0-11.539-3.48-11.539-9.525 0-2.381.915-4.395 2.198-5.861l12.088-17.217-19.048-5.495c-4.213-.916-6.228-4.579-6.228-9.341s4.213-10.074 10.074-10.074c.549 0 1.466 0 2.747.549l19.233 6.228-.916-18.682c.183-6.044 4.762-8.792 9.891-8.792s9.525 2.748 9.708 8.792l-.733 19.049 19.415-6.594c.915-.366 1.832-.549 2.747-.549 5.679 0 9.525 6.045 9.525 11.356 0 3.663-1.832 7.143-6.227 8.059l-18.683 4.396z" fill="url(#SVGID_19_)"/></g><g><path d="m421.245 249.585c.915 1.099 1.465 3.297 1.465 5.312 0 5.861-5.861 9.891-11.173 9.891-2.014 0-4.945-.366-6.96-3.48l-11.906-18.316-12.088 18.499c-1.648 2.748-3.846 3.297-6.411 3.297-4.396 0-11.539-3.48-11.539-9.525 0-2.381.915-4.395 2.198-5.861l12.088-17.217-19.048-5.495c-4.213-.916-6.228-4.579-6.228-9.341s4.213-10.074 10.074-10.074c.549 0 1.466 0 2.747.549l19.233 6.228-.916-18.682c.183-6.044 4.762-8.792 9.891-8.792s9.525 2.748 9.708 8.792l-.733 19.049 19.415-6.594c.915-.366 1.832-.549 2.747-.549 5.679 0 9.525 6.045 9.525 11.356 0 3.663-1.832 7.143-6.227 8.059l-18.683 4.396z" fill="url(#SVGID_20_)"/></g></g></svg>