<svg id="Capa_1" enable-background="new 0 0 510 510" height="512" viewBox="0 0 510 510" width="512" xmlns="http://www.w3.org/2000/svg" xmlns:xlink="http://www.w3.org/1999/xlink"><linearGradient id="SVGID_1_" gradientUnits="userSpaceOnUse" x1="161.955" x2="325.955" y1="203.689" y2="452.689"><stop offset="0" stop-color="#ff637b"/><stop offset="1" stop-color="#e63950"/></linearGradient><linearGradient id="lg1"><stop offset="0" stop-color="#ffda2d"/><stop offset="1" stop-color="#fdbf00"/></linearGradient><linearGradient id="SVGID_2_" gradientUnits="userSpaceOnUse" x1="78.083" x2="177.736" xlink:href="#lg1" y1="269.536" y2="369.19"/><linearGradient id="SVGID_3_" gradientUnits="userSpaceOnUse" x1="194.178" x2="90.54" xlink:href="#lg1" y1="385.631" y2="281.993"/><linearGradient id="lg2"><stop offset="0" stop-color="#ff9100" stop-opacity="0"/><stop offset="1" stop-color="#ff9100"/></linearGradient><linearGradient id="SVGID_4_" gradientUnits="userSpaceOnUse" x1="143.024" x2="143.024" xlink:href="#lg2" y1="410.534" y2="260.627"/><linearGradient id="SVGID_5_" gradientUnits="userSpaceOnUse" x1="356.252" x2="389.205" xlink:href="#lg1" y1="431.163" y2="464.116"/><linearGradient id="SVGID_6_" gradientUnits="userSpaceOnUse" x1="390.535" x2="423.488" y1="431.163" y2="464.116"><stop offset="0" stop-color="#ff9100"/><stop offset="1" stop-color="#e63950"/></linearGradient><linearGradient id="SVGID_7_" gradientUnits="userSpaceOnUse" x1="342.929" x2="291.968" y1="392.593" y2="42.866"><stop offset="0" stop-color="#c50000" stop-opacity="0"/><stop offset="1" stop-color="#c50000"/></linearGradient><linearGradient id="SVGID_8_" gradientUnits="userSpaceOnUse" x1="205.95" x2="281.012" y1="23.763" y2="98.824"><stop offset="0" stop-color="#edf5ff"/><stop offset="1" stop-color="#b5dbff"/></linearGradient><linearGradient id="SVGID_9_" gradientUnits="userSpaceOnUse" x1="251.98" x2="251.98" y1="77.752" y2="-102.228"><stop offset="0" stop-color="#b5dbff" stop-opacity="0"/><stop offset=".2428" stop-color="#93cef6" stop-opacity=".243"/><stop offset=".5763" stop-color="#6abfec" stop-opacity=".576"/><stop offset=".8403" stop-color="#51b5e5" stop-opacity=".84"/><stop offset="1" stop-color="#48b2e3"/></linearGradient><linearGradient id="SVGID_10_" gradientUnits="userSpaceOnUse" x1="205.127" x2="288.743" xlink:href="#lg1" y1="112.917" y2="196.534"/><linearGradient id="SVGID_11_" gradientUnits="userSpaceOnUse" x1="291.553" x2="208.145" xlink:href="#lg1" y1="195.212" y2="111.804"/><linearGradient id="SVGID_12_" gradientUnits="userSpaceOnUse" x1="283.646" x2="218.28" y1="187.313" y2="121.946"><stop offset="0" stop-color="#0b799d"/><stop offset="1" stop-color="#07485e"/></linearGradient><linearGradient id="SVGID_13_" gradientUnits="userSpaceOnUse" x1="255" x2="255" xlink:href="#lg2" y1="215.499" y2="240.684"/><linearGradient id="SVGID_14_" gradientUnits="userSpaceOnUse" x1="255" x2="255" y1="456" y2="510.452"><stop offset="0" stop-color="#e63950" stop-opacity="0"/><stop offset=".0467" stop-color="#e4354b" stop-opacity=".047"/><stop offset=".4669" stop-color="#d31822" stop-opacity=".467"/><stop offset=".7991" stop-color="#c90709" stop-opacity=".799"/><stop offset="1" stop-color="#c50000"/></linearGradient><g><g><g><g><g><path d="m458.025 510h-406.05c-16.308 0-29.528-13.22-29.528-29.528v-271.027c0-16.308 13.22-29.528 29.528-29.528h406.049c16.308 0 29.528 13.22 29.528 29.528v271.028c0 16.307-13.22 29.527-29.527 29.527z" fill="url(#SVGID_1_)"/><g><g><g><path d="m193.47 402.552h-100.893c-9.736 0-17.628-7.892-17.628-17.628v-100.893c0-9.736 7.893-17.628 17.628-17.628h100.893c9.736 0 17.628 7.893 17.628 17.628v100.893c.001 9.736-7.892 17.628-17.628 17.628z" fill="url(#SVGID_2_)"/><path d="m184.137 389.957h-82.226c-7.935 0-14.367-6.432-14.367-14.367v-82.226c0-7.935 6.432-14.367 14.367-14.367h82.226c7.935 0 14.367 6.432 14.367 14.367v82.226c0 7.935-6.432 14.367-14.367 14.367z" fill="url(#SVGID_3_)"/><path d="m184.456 310.609c0-2.685 2.184-4.869 4.869-4.869h9.178v-9.578h-9.178c-7.966 0-14.447 6.481-14.447 14.447 0 2.597-2.048 4.705-4.61 4.843-2.89-5.925-8.959-10.028-15.983-10.028h-6.473v-26.427h-9.578v26.427h-6.473c-7.024 0-13.093 4.102-15.983 10.028-2.562-.138-4.609-2.247-4.609-4.843 0-7.966-6.481-14.447-14.447-14.447h-9.179v9.578h9.179c2.685 0 4.869 2.184 4.869 4.869 0 7.262 5.392 13.273 12.379 14.282v4.798h-26.426v9.578h26.427v4.797c-6.987 1.009-12.379 7.019-12.379 14.282 0 2.685-2.184 4.869-4.869 4.869h-9.179v9.578h9.179c7.966 0 14.447-6.481 14.447-14.447 0-2.596 2.047-4.705 4.609-4.843 2.89 5.925 8.959 10.028 15.983 10.028h6.473v26.427h9.578v-26.428h6.473c7.024 0 13.092-4.102 15.983-10.028 2.562.138 4.61 2.247 4.61 4.843 0 7.966 6.481 14.447 14.447 14.447h9.178v-9.578h-9.178c-2.685 0-4.869-2.184-4.869-4.869 0-7.262-5.392-13.273-12.38-14.282v-4.797h26.427v-9.578h-26.427v-4.798c6.987-1.008 12.379-7.019 12.379-14.281zm-21.957 35.13c0 4.529-3.684 8.213-8.213 8.213h-22.524c-4.529 0-8.213-3.684-8.213-8.213v-22.524c0-4.529 3.684-8.213 8.213-8.213h22.524c4.528 0 8.213 3.684 8.213 8.213z" fill="url(#SVGID_4_)"/></g><g><g fill="#c50000"><g><path d="m308.194 301.057h-65.295c-4.785 0-8.664-3.879-8.664-8.664v-17.327c0-4.785 3.879-8.664 8.664-8.664h65.295c4.785 0 8.664 3.879 8.664 8.664v17.327c-.001 4.785-3.88 8.664-8.664 8.664z"/><path d="m426.387 301.057h-81.349c-4.785 0-8.664-3.879-8.664-8.664v-17.327c0-4.785 3.879-8.664 8.664-8.664h81.349c4.785 0 8.664 3.879 8.664 8.664v17.327c0 4.785-3.879 8.664-8.664 8.664z"/></g><g><path d="m393.74 353.253h32.648c4.785 0 8.664-3.879 8.664-8.664v-17.327c0-4.785-3.879-8.664-8.664-8.664h-32.648c-4.785 0-8.664 3.879-8.664 8.664v17.327c0 4.786 3.879 8.664 8.664 8.664z"/><path d="m242.898 353.253h113.996c4.785 0 8.664-3.879 8.664-8.664v-17.327c0-4.785-3.879-8.664-8.664-8.664h-113.996c-4.785 0-8.664 3.879-8.664 8.664v17.327c0 4.786 3.879 8.664 8.664 8.664z"/></g></g></g><g fill="#c50000"><path d="m148.908 475.679h-65.295c-4.785 0-8.664-3.879-8.664-8.664v-17.327c0-4.785 3.879-8.664 8.664-8.664h65.295c4.785 0 8.664 3.879 8.664 8.664v17.327c0 4.786-3.879 8.664-8.664 8.664z"/><path d="m267.102 475.679h-81.349c-4.785 0-8.664-3.879-8.664-8.664v-17.327c0-4.785 3.879-8.664 8.664-8.664h81.349c4.785 0 8.664 3.879 8.664 8.664v17.327c0 4.786-3.879 8.664-8.664 8.664z"/></g></g><g><circle cx="374.033" cy="448.944" fill="url(#SVGID_5_)" r="26.736"/><circle cx="408.316" cy="448.944" fill="url(#SVGID_6_)" r="26.736"/></g></g><path d="m487.552 480.472v-162.331l-138.216-138.216h-186.67v39.468c0 6.666 1.202 12.583 6.152 16.298l274.31 274.309h14.897c16.307 0 29.527-13.22 29.527-29.528z" fill="url(#SVGID_7_)"/></g></g></g></g><g><g><path d="m332.202 92.539h-29.133v-12.317c0-28.171-22.919-51.089-51.089-51.089-28.171 0-51.089 22.919-51.089 51.089v12.317h-29.133v-12.317c0-44.235 35.987-80.222 80.222-80.222 44.234 0 80.222 35.987 80.222 80.222z" fill="url(#SVGID_8_)"/><path d="m251.98 15.774c-36.695 0-66.548 29.853-66.548 66.548v10.217h15.459v-12.317c0-28.171 22.919-51.089 51.089-51.089 28.171 0 51.089 22.919 51.089 51.089v12.317h15.459v-10.218c-.001-36.694-29.854-66.547-66.548-66.547z" fill="url(#SVGID_9_)"/></g><g><g><path d="m328.971 239.757h-147.942c-11.247 0-20.365-9.117-20.365-20.365v-113.202c0-11.247 9.118-20.365 20.365-20.365h147.942c11.247 0 20.365 9.118 20.365 20.365v113.203c0 11.246-9.118 20.364-20.365 20.364z" fill="url(#SVGID_10_)"/><path d="m291.165 148.282c0-19.973-16.192-36.165-36.165-36.165s-36.165 16.192-36.165 36.165c0 14.14 8.12 26.376 19.946 32.323v16.642c0 8.957 7.261 16.219 16.219 16.219 8.957 0 16.219-7.261 16.219-16.219v-16.642c11.827-5.947 19.946-18.183 19.946-32.323z" fill="url(#SVGID_11_)"/><path d="m255 204.063c-3.759 0-6.817-3.058-6.817-6.817v-22.439l-5.179-2.604c-9.109-4.58-14.768-13.746-14.768-23.922 0-14.757 12.006-26.763 26.763-26.763s26.763 12.006 26.763 26.763c0 10.176-5.659 19.343-14.768 23.922l-5.179 2.604v22.439c.002 3.759-3.056 6.817-6.815 6.817z" fill="url(#SVGID_12_)"/><path d="m160.664 188.571v30.821c0 11.247 9.117 20.365 20.365 20.365h147.942c11.247 0 20.365-9.117 20.365-20.365v-30.821z" fill="url(#SVGID_13_)"/></g></g></g><path d="m22.448 439v41.472c0 16.308 13.22 29.528 29.528 29.528h406.049c16.308 0 29.528-13.22 29.528-29.528v-41.472z" fill="url(#SVGID_14_)"/></g></svg>