<svg id="Capa_1" enable-background="new 0 0 510 510" height="512" viewBox="0 0 510 510" width="512" xmlns="http://www.w3.org/2000/svg" xmlns:xlink="http://www.w3.org/1999/xlink"><linearGradient id="lg1"><stop offset="0" stop-color="#0b799d"/><stop offset="1" stop-color="#07485e"/></linearGradient><linearGradient id="SVGID_1_" gradientUnits="userSpaceOnUse" x1="161.423" x2="385.714" xlink:href="#lg1" y1="176.172" y2="400.463"/><linearGradient id="SVGID_2_" gradientUnits="userSpaceOnUse" x1="316.639" x2="157.802" xlink:href="#lg1" y1="404.504" y2="57.254"/><linearGradient id="SVGID_3_" gradientUnits="userSpaceOnUse" x1="51.721" x2="84.822" xlink:href="#lg1" y1="202.337" y2="235.437"/><linearGradient id="SVGID_4_" gradientUnits="userSpaceOnUse" x1="117.214" x2="150.315" xlink:href="#lg1" y1="202.337" y2="235.437"/><linearGradient id="SVGID_5_" gradientUnits="userSpaceOnUse" x1="182.708" x2="215.809" xlink:href="#lg1" y1="202.337" y2="235.437"/><linearGradient id="SVGID_6_" gradientUnits="userSpaceOnUse" x1="248.201" x2="281.302" xlink:href="#lg1" y1="202.337" y2="235.437"/><linearGradient id="SVGID_7_" gradientUnits="userSpaceOnUse" x1="313.694" x2="346.795" xlink:href="#lg1" y1="202.337" y2="235.437"/><linearGradient id="SVGID_8_" gradientUnits="userSpaceOnUse" x1="379.188" x2="412.288" xlink:href="#lg1" y1="202.337" y2="235.437"/><linearGradient id="SVGID_9_" gradientUnits="userSpaceOnUse" x1="444.681" x2="477.782" xlink:href="#lg1" y1="202.337" y2="235.437"/><linearGradient id="SVGID_10_" gradientUnits="userSpaceOnUse" x1="51.721" x2="84.822" xlink:href="#lg1" y1="262.95" y2="296.051"/><linearGradient id="SVGID_11_" gradientUnits="userSpaceOnUse" x1="117.214" x2="150.315" xlink:href="#lg1" y1="262.95" y2="296.051"/><linearGradient id="SVGID_12_" gradientUnits="userSpaceOnUse" x1="182.708" x2="215.809" xlink:href="#lg1" y1="262.95" y2="296.051"/><linearGradient id="SVGID_13_" gradientUnits="userSpaceOnUse" x1="248.201" x2="281.302" xlink:href="#lg1" y1="262.95" y2="296.051"/><linearGradient id="SVGID_14_" gradientUnits="userSpaceOnUse" x1="313.694" x2="346.795" xlink:href="#lg1" y1="262.95" y2="296.051"/><linearGradient id="SVGID_15_" gradientUnits="userSpaceOnUse" x1="379.188" x2="412.288" xlink:href="#lg1" y1="262.95" y2="296.051"/><linearGradient id="SVGID_16_" gradientUnits="userSpaceOnUse" x1="444.681" x2="477.782" xlink:href="#lg1" y1="262.95" y2="296.051"/><linearGradient id="SVGID_17_" gradientUnits="userSpaceOnUse" x1="51.721" x2="84.822" xlink:href="#lg1" y1="323.564" y2="356.665"/><linearGradient id="SVGID_18_" gradientUnits="userSpaceOnUse" x1="117.214" x2="150.315" xlink:href="#lg1" y1="323.564" y2="356.665"/><linearGradient id="SVGID_19_" gradientUnits="userSpaceOnUse" x1="255" x2="255" xlink:href="#lg1" y1="306.446" y2="379.801"/><linearGradient id="SVGID_20_" gradientUnits="userSpaceOnUse" x1="379.188" x2="412.288" xlink:href="#lg1" y1="323.564" y2="356.665"/><linearGradient id="SVGID_21_" gradientUnits="userSpaceOnUse" x1="444.681" x2="477.782" xlink:href="#lg1" y1="323.564" y2="356.665"/><linearGradient id="lg2"><stop offset="0" stop-color="#07485e" stop-opacity="0"/><stop offset="1" stop-color="#03232e"/></linearGradient><linearGradient id="SVGID_22_" gradientUnits="userSpaceOnUse" x1="255" x2="255" xlink:href="#lg2" y1="329.998" y2="385.907"/><linearGradient id="SVGID_23_" gradientUnits="userSpaceOnUse" x1="523.045" x2="464.379" xlink:href="#lg2" y1="287.917" y2="277.251"/><linearGradient id="lg3"><stop offset="0" stop-color="#ff637b"/><stop offset="1" stop-color="#e63950"/></linearGradient><linearGradient id="SVGID_24_" gradientUnits="userSpaceOnUse" x1="201.485" x2="225.615" xlink:href="#lg3" y1="397.764" y2="421.894"/><linearGradient id="SVGID_25_" gradientTransform="matrix(.707 .707 -.707 .707 -1841.493 788.873)" gradientUnits="userSpaceOnUse" x1="1190.621" x2="1190.621" y1="-1642.18" y2="-1652.454"><stop offset="0" stop-color="#76e2f8"/><stop offset="1" stop-color="#48b2e3"/></linearGradient><linearGradient id="SVGID_26_" gradientUnits="userSpaceOnUse" x1="235.425" x2="253.425" y1="447.827" y2="367.16"><stop offset="0" stop-color="#e63950" stop-opacity="0"/><stop offset=".0467" stop-color="#e4354b" stop-opacity=".047"/><stop offset=".4669" stop-color="#d31822" stop-opacity=".467"/><stop offset=".7991" stop-color="#c90709" stop-opacity=".799"/><stop offset="1" stop-color="#c50000"/></linearGradient><linearGradient id="lg4"><stop offset="0" stop-color="#edf5ff"/><stop offset="1" stop-color="#d5e8fe"/></linearGradient><linearGradient id="SVGID_27_" gradientTransform="matrix(.707 .707 -.707 .707 -1841.493 788.873)" gradientUnits="userSpaceOnUse" x1="1167.909" x2="1217.513" xlink:href="#lg4" y1="-1799.763" y2="-1750.159"/><linearGradient id="SVGID_28_" gradientTransform="matrix(.707 .707 -.707 .707 -1841.493 788.873)" gradientUnits="userSpaceOnUse" x1="1190.621" x2="1190.621" y1="-1756.897" y2="-1795.285"><stop offset="0" stop-color="#b5dbff" stop-opacity="0"/><stop offset=".1734" stop-color="#8fc5e9" stop-opacity=".173"/><stop offset=".4541" stop-color="#56a4c8" stop-opacity=".454"/><stop offset=".6955" stop-color="#2d8db1" stop-opacity=".696"/><stop offset=".8853" stop-color="#147ea2" stop-opacity=".885"/><stop offset="1" stop-color="#0b799d"/></linearGradient><linearGradient id="SVGID_29_" gradientUnits="userSpaceOnUse" x1="355.397" x2="355.397" y1="363.014" y2="150.798"><stop offset="0" stop-color="#fff" stop-opacity="0"/><stop offset="1" stop-color="#fff"/></linearGradient><linearGradient id="lg5"><stop offset="0" stop-color="#ffda2d"/><stop offset="1" stop-color="#fdbf00"/></linearGradient><linearGradient id="SVGID_30_" gradientUnits="userSpaceOnUse" x1="274.512" x2="451.169" xlink:href="#lg5" y1="194.89" y2="371.547"/><linearGradient id="SVGID_31_" gradientTransform="matrix(-1 0 0 -1 -1631.95 -451.81)" gradientUnits="userSpaceOnUse" x1="-2055.435" x2="-1906.729" xlink:href="#lg5" y1="-795.673" y2="-646.966"/><linearGradient id="SVGID_32_" gradientTransform="matrix(.707 .707 -.707 .707 -1841.493 788.873)" gradientUnits="userSpaceOnUse" x1="1190.621" x2="1190.621" xlink:href="#lg4" y1="-1672.982" y2="-1649.832"/><linearGradient id="SVGID_33_" gradientTransform="matrix(-.005 -1 1 -.005 229.251 -550.466)" gradientUnits="userSpaceOnUse" x1="-626.614" x2="-615.607" xlink:href="#lg3" y1="-163.718" y2="-163.718"/><linearGradient id="SVGID_34_" gradientTransform="matrix(.791 -.613 .613 .791 552.944 1073.691)" gradientUnits="userSpaceOnUse" x1="259.219" x2="270.225" xlink:href="#lg3" y1="-1102.363" y2="-1102.363"/><linearGradient id="SVGID_35_" gradientTransform="matrix(.796 .605 .605 -.796 548.357 89.114)" gradientUnits="userSpaceOnUse" x1="-360.302" x2="-349.296" xlink:href="#lg3" y1="-295.043" y2="-295.043"/><g><path d="m238.911 183.186c-8.284 0-15-6.716-15-15v-2.689c0-32.169 26.172-58.341 58.342-58.341h48.943c5.074 0 9.202-4.129 9.202-9.203s-4.128-9.203-9.202-9.203h-207.183c-8.284 0-15-6.716-15-15s6.716-15 15-15h207.183c21.616 0 39.202 17.586 39.202 39.203 0 21.616-17.586 39.203-39.202 39.203h-48.943c-15.628 0-28.342 12.714-28.342 28.341v2.689c0 8.284-6.716 15-15 15z" fill="#07485e"/><g><path d="m488.4 384.763h-466.8c-11.929 0-21.6-9.671-21.6-21.6v-186.828c0-11.929 9.671-21.6 21.6-21.6h466.8c11.929 0 21.6 9.671 21.6 21.6v186.828c0 11.93-9.671 21.6-21.6 21.6z" fill="url(#SVGID_1_)"/><path d="m473.833 363.956h-437.666c-10.424 0-18.874-8.45-18.874-18.874v-150.665c0-10.424 8.45-18.874 18.874-18.874h437.666c10.424 0 18.874 8.45 18.874 18.874v150.665c0 10.424-8.45 18.874-18.874 18.874z" fill="url(#SVGID_2_)"/><g><g><path d="m69.318 233.932h-21.596c-7.731 0-13.998-6.267-13.998-13.998v-21.597c0-7.731 6.267-13.998 13.998-13.998h21.597c7.731 0 13.998 6.267 13.998 13.998v21.597c-.001 7.731-6.268 13.998-13.999 13.998z" fill="url(#SVGID_3_)"/><path d="m134.812 233.932h-21.597c-7.731 0-13.998-6.267-13.998-13.998v-21.597c0-7.731 6.267-13.998 13.998-13.998h21.597c7.731 0 13.998 6.267 13.998 13.998v21.597c-.001 7.731-6.268 13.998-13.998 13.998z" fill="url(#SVGID_4_)"/><path d="m200.305 233.932h-21.597c-7.731 0-13.998-6.267-13.998-13.998v-21.597c0-7.731 6.267-13.998 13.998-13.998h21.597c7.731 0 13.998 6.267 13.998 13.998v21.597c0 7.731-6.267 13.998-13.998 13.998z" fill="url(#SVGID_5_)"/><path d="m265.798 233.932h-21.597c-7.731 0-13.998-6.267-13.998-13.998v-21.597c0-7.731 6.267-13.998 13.998-13.998h21.597c7.731 0 13.998 6.267 13.998 13.998v21.597c0 7.731-6.267 13.998-13.998 13.998z" fill="url(#SVGID_6_)"/><path d="m331.292 233.932h-21.597c-7.731 0-13.998-6.267-13.998-13.998v-21.597c0-7.731 6.267-13.998 13.998-13.998h21.597c7.731 0 13.998 6.267 13.998 13.998v21.597c-.001 7.731-6.268 13.998-13.998 13.998z" fill="url(#SVGID_7_)"/><path d="m396.785 233.932h-21.597c-7.731 0-13.998-6.267-13.998-13.998v-21.597c0-7.731 6.267-13.998 13.998-13.998h21.597c7.731 0 13.998 6.267 13.998 13.998v21.597c0 7.731-6.267 13.998-13.998 13.998z" fill="url(#SVGID_8_)"/><path d="m462.278 233.932h-21.597c-7.731 0-13.998-6.267-13.998-13.998v-21.597c0-7.731 6.267-13.998 13.998-13.998h21.597c7.731 0 13.998 6.267 13.998 13.998v21.597c0 7.731-6.267 13.998-13.998 13.998z" fill="url(#SVGID_9_)"/></g><g><path d="m69.318 294.545h-21.596c-7.731 0-13.998-6.267-13.998-13.998v-21.597c0-7.731 6.267-13.998 13.998-13.998h21.597c7.731 0 13.998 6.267 13.998 13.998v21.597c-.001 7.731-6.268 13.998-13.999 13.998z" fill="url(#SVGID_10_)"/><path d="m134.812 294.545h-21.597c-7.731 0-13.998-6.267-13.998-13.998v-21.597c0-7.731 6.267-13.998 13.998-13.998h21.597c7.731 0 13.998 6.267 13.998 13.998v21.597c-.001 7.731-6.268 13.998-13.998 13.998z" fill="url(#SVGID_11_)"/><path d="m200.305 294.545h-21.597c-7.731 0-13.998-6.267-13.998-13.998v-21.597c0-7.731 6.267-13.998 13.998-13.998h21.597c7.731 0 13.998 6.267 13.998 13.998v21.597c0 7.731-6.267 13.998-13.998 13.998z" fill="url(#SVGID_12_)"/><path d="m265.798 294.545h-21.597c-7.731 0-13.998-6.267-13.998-13.998v-21.597c0-7.731 6.267-13.998 13.998-13.998h21.597c7.731 0 13.998 6.267 13.998 13.998v21.597c0 7.731-6.267 13.998-13.998 13.998z" fill="url(#SVGID_13_)"/><path d="m331.292 294.545h-21.597c-7.731 0-13.998-6.267-13.998-13.998v-21.597c0-7.731 6.267-13.998 13.998-13.998h21.597c7.731 0 13.998 6.267 13.998 13.998v21.597c-.001 7.731-6.268 13.998-13.998 13.998z" fill="url(#SVGID_14_)"/><path d="m396.785 294.545h-21.597c-7.731 0-13.998-6.267-13.998-13.998v-21.597c0-7.731 6.267-13.998 13.998-13.998h21.597c7.731 0 13.998 6.267 13.998 13.998v21.597c0 7.731-6.267 13.998-13.998 13.998z" fill="url(#SVGID_15_)"/><path d="m462.278 294.545h-21.597c-7.731 0-13.998-6.267-13.998-13.998v-21.597c0-7.731 6.267-13.998 13.998-13.998h21.597c7.731 0 13.998 6.267 13.998 13.998v21.597c0 7.731-6.267 13.998-13.998 13.998z" fill="url(#SVGID_16_)"/></g><g><path d="m69.318 355.159h-21.596c-7.731 0-13.998-6.267-13.998-13.998v-21.597c0-7.731 6.267-13.998 13.998-13.998h21.597c7.731 0 13.998 6.267 13.998 13.998v21.597c-.001 7.731-6.268 13.998-13.999 13.998z" fill="url(#SVGID_17_)"/><path d="m134.812 355.159h-21.597c-7.731 0-13.998-6.267-13.998-13.998v-21.597c0-7.731 6.267-13.998 13.998-13.998h21.597c7.731 0 13.998 6.267 13.998 13.998v21.597c-.001 7.731-6.268 13.998-13.998 13.998z" fill="url(#SVGID_18_)"/><path d="m331.292 305.567h-152.584c-7.731 0-13.998 6.267-13.998 13.998v21.597c0 7.731 6.267 13.998 13.998 13.998h152.583c7.731 0 13.998-6.267 13.998-13.998v-21.597c0-7.731-6.267-13.998-13.997-13.998z" fill="url(#SVGID_19_)"/><path d="m396.785 355.159h-21.597c-7.731 0-13.998-6.267-13.998-13.998v-21.597c0-7.731 6.267-13.998 13.998-13.998h21.597c7.731 0 13.998 6.267 13.998 13.998v21.597c0 7.731-6.267 13.998-13.998 13.998z" fill="url(#SVGID_20_)"/><path d="m462.278 355.159h-21.597c-7.731 0-13.998-6.267-13.998-13.998v-21.597c0-7.731 6.267-13.998 13.998-13.998h21.597c7.731 0 13.998 6.267 13.998 13.998v21.597c0 7.731-6.267 13.998-13.998 13.998z" fill="url(#SVGID_21_)"/></g></g><path d="m0 305.567v57.596c0 11.929 9.671 21.6 21.6 21.6h466.8c11.929 0 21.6-9.671 21.6-21.6v-57.596z" fill="url(#SVGID_22_)"/></g><path d="m510 234.99v128.17c0 11.93-9.67 21.6-21.6 21.6h-64.29c7.94-5.01 15.45-10.98 22.37-17.9 50.31-50.31 50.31-131.86 0-182.17-13.74-13.74-29.8-23.72-46.93-29.95h22.59c11.11 6.13 21.55 13.9 30.97 23.32z" fill="url(#SVGID_23_)"/><g><path d="m199.105 475.628-43.561-43.561 80.244-80.244 43.561 43.562z" fill="url(#SVGID_24_)"/><path d="m199.105 475.628-43.561-43.561c-9.328 9.328-9.328 24.452 0 33.78l9.782 9.782c9.327 9.328 24.451 9.328 33.779-.001z" fill="url(#SVGID_25_)"/><path d="m222.392 367.164v85.177l56.957-56.956-43.561-43.562-14.369 14.368z" fill="url(#SVGID_26_)"/><path d="m264.008 408.78-41.616-41.616c-5.636-5.636-5.636-14.774 0-20.41l11.353-11.353 62.026 62.026-11.353 11.353c-5.636 5.636-14.774 5.636-20.41 0z" fill="url(#SVGID_27_)"/><path d="m233.745 335.401-2.051 2.051v39.013l32.314 32.314c5.636 5.636 14.774 5.636 20.41 0l11.353-11.353z" fill="url(#SVGID_28_)"/><circle cx="355.397" cy="275.775" fill="url(#SVGID_29_)" r="107.589"/><g><path d="m453.112 178.06c-53.97-53.97-141.46-53.97-195.43 0s-53.97 141.46 0 195.43 141.46 53.97 195.43 0 53.97-141.46 0-195.43zm-168.13 168.13c-38.88-38.89-38.88-101.94 0-140.83 38.89-38.88 101.94-38.88 140.82 0 38.89 38.89 38.89 101.94 0 140.83-38.88 38.88-101.93 38.88-140.82 0z" fill="url(#SVGID_30_)"/><path d="m273.142 358.03c45.43 45.43 119.08 45.43 164.51 0s45.43-119.08 0-164.51-119.08-45.43-164.51 0c-45.429 45.43-45.429 119.08 0 164.51zm11.851-152.67c38.88-38.88 101.93-38.88 140.82 0 38.88 38.89 38.88 101.94 0 140.83-38.89 38.88-101.94 38.88-140.82 0-38.891-38.89-38.891-101.94 0-140.83z" fill="url(#SVGID_31_)"/></g><path d="m190.506 481.27-40.604-40.604c-3.341-3.341-3.341-8.759 0-12.1 3.341-3.341 8.759-3.341 12.1 0l40.604 40.604c3.341 3.341 3.341 8.759 0 12.1-3.341 3.341-8.758 3.341-12.1 0z" fill="url(#SVGID_32_)"/></g><g><g><path d="m86.088 74.746c.026 5.477-4.393 9.937-9.87 9.962l-15.454.072c-5.477.026-9.937-4.393-9.962-9.87-.026-5.477 4.393-9.937 9.87-9.962l15.454-.072c5.476-.025 9.937 4.394 9.962 9.87z" fill="url(#SVGID_33_)"/></g><g><path d="m95.128 56.196c-4.329 3.354-10.558 2.564-13.912-1.765l-9.465-12.217c-3.354-4.329-2.564-10.558 1.765-13.912 4.329-3.354 10.558-2.564 13.912 1.765l9.465 12.217c3.355 4.329 2.564 10.558-1.765 13.912z" fill="url(#SVGID_34_)"/></g><g><path d="m95.301 93.211c-4.36-3.314-10.581-2.466-13.895 1.895l-9.351 12.304c-3.314 4.36-2.465 10.581 1.895 13.895 4.36 3.314 10.581 2.465 13.895-1.895l9.351-12.304c3.313-4.36 2.465-10.581-1.895-13.895z" fill="url(#SVGID_35_)"/></g></g></g></svg>