<svg id="Capa_1" enable-background="new 0 0 510 510" height="512" viewBox="0 0 510 510" width="512" xmlns="http://www.w3.org/2000/svg" xmlns:xlink="http://www.w3.org/1999/xlink"><linearGradient id="lg1"><stop offset="0" stop-color="#0b799d"/><stop offset="1" stop-color="#07485e"/></linearGradient><linearGradient id="SVGID_1_" gradientUnits="userSpaceOnUse" x1="162.365" x2="465.247" xlink:href="#lg1" y1="138.617" y2="441.499"/><linearGradient id="SVGID_2_" gradientUnits="userSpaceOnUse" x1="409.202" x2="51.196" xlink:href="#lg1" y1="385.454" y2="27.448"/><linearGradient id="lg2"><stop offset="0" stop-color="#07485e" stop-opacity="0"/><stop offset="1" stop-color="#03232e"/></linearGradient><linearGradient id="SVGID_3_" gradientUnits="userSpaceOnUse" x1="255" x2="255" xlink:href="#lg2" y1="305.777" y2="366.912"/><linearGradient id="SVGID_4_" gradientUnits="userSpaceOnUse" x1="156.338" x2="353.817" y1="132.59" y2="330.069"><stop offset="0" stop-color="#fdbf00"/><stop offset="1" stop-color="#ff9100"/></linearGradient><linearGradient id="SVGID_5_" gradientUnits="userSpaceOnUse" x1="268.136" x2="238.24" xlink:href="#lg1" y1="105.298" y2="75.401"/><linearGradient id="SVGID_6_" gradientTransform="matrix(-1 0 0 -1 -554 -5080)" gradientUnits="userSpaceOnUse" x1="-800.756" x2="-819.519" xlink:href="#lg1" y1="-5163.917" y2="-5182.68"/><linearGradient id="lg3"><stop offset="0" stop-color="#e63950" stop-opacity="0"/><stop offset=".0467" stop-color="#e4354b" stop-opacity=".047"/><stop offset=".4669" stop-color="#d31822" stop-opacity=".467"/><stop offset=".7991" stop-color="#c90709" stop-opacity=".799"/><stop offset="1" stop-color="#c50000"/></linearGradient><linearGradient id="SVGID_7_" gradientUnits="userSpaceOnUse" x1="165.585" x2="85.585" xlink:href="#lg3" y1="342.625" y2="244.624"/><linearGradient id="SVGID_8_" gradientUnits="userSpaceOnUse" x1="439.751" x2="332.055" xlink:href="#lg3" y1="190.249" y2="82.553"/><linearGradient id="SVGID_9_" gradientUnits="userSpaceOnUse" x1="242.175" x2="326.175" xlink:href="#lg3" y1="253.65" y2="106.984"/><linearGradient id="SVGID_10_" gradientUnits="userSpaceOnUse" x1="353.612" x2="145.603" xlink:href="#lg3" y1="308.388" y2="100.378"/><linearGradient id="SVGID_11_" gradientUnits="userSpaceOnUse" x1="255" x2="255" xlink:href="#lg1" y1="364.586" y2="467.57"/><linearGradient id="SVGID_12_" gradientUnits="userSpaceOnUse" x1="249.937" x2="285.654" xlink:href="#lg2" y1="379.055" y2="517.803"/><linearGradient id="SVGID_13_" gradientUnits="userSpaceOnUse" x1="255" x2="255" xlink:href="#lg1" y1="361.151" y2="383.818"/><linearGradient id="lg4"><stop offset="0" stop-color="#ff637b"/><stop offset="1" stop-color="#e63950"/></linearGradient><linearGradient id="SVGID_14_" gradientUnits="userSpaceOnUse" x1="38.921" x2="48.065" xlink:href="#lg4" y1="376.238" y2="383.205"/><linearGradient id="SVGID_15_" gradientUnits="userSpaceOnUse" x1="64.439" x2="73.584" xlink:href="#lg4" y1="376.238" y2="383.205"/><linearGradient id="SVGID_16_" gradientUnits="userSpaceOnUse" x1="87.322" x2="108.994" xlink:href="#lg4" y1="373.073" y2="394.745"/><linearGradient id="lg5"><stop offset="0" stop-color="#b5dbff"/><stop offset="1" stop-color="#48b2e3"/></linearGradient><linearGradient id="SVGID_17_" gradientTransform="matrix(.518 .855 -.855 .518 -1134.36 -590.088)" gradientUnits="userSpaceOnUse" x1="1375.848" x2="1438.102" xlink:href="#lg5" y1="-576.326" y2="-576.326"/><linearGradient id="SVGID_18_" gradientTransform="matrix(.518 .855 -.855 .518 -1134.36 -590.088)" gradientUnits="userSpaceOnUse" x1="1375.848" x2="1438.102" xlink:href="#lg5" y1="-653.051" y2="-653.051"/><linearGradient id="SVGID_19_" gradientTransform="matrix(.518 .855 -.855 .518 -1134.36 -590.088)" gradientUnits="userSpaceOnUse" x1="1398.037" x2="1415.913" xlink:href="#lg5" y1="-691.833" y2="-691.833"/><linearGradient id="SVGID_20_" gradientTransform="matrix(.518 .855 -.855 .518 -1134.36 -590.088)" gradientUnits="userSpaceOnUse" x1="1398.037" x2="1415.913" xlink:href="#lg5" y1="-614.268" y2="-614.268"/><linearGradient id="SVGID_21_" gradientTransform="matrix(.518 .855 -.855 .518 -1134.36 -590.088)" gradientUnits="userSpaceOnUse" x1="1398.037" x2="1415.913" xlink:href="#lg5" y1="-536.702" y2="-536.702"/><linearGradient id="SVGID_22_" gradientTransform="matrix(.518 .855 -.855 .518 -1134.36 -590.088)" gradientUnits="userSpaceOnUse" x1="1375.553" x2="1437.806" xlink:href="#lg5" y1="-892.23" y2="-892.23"/><linearGradient id="SVGID_23_" gradientTransform="matrix(.518 .855 -.855 .518 -1134.36 -590.088)" gradientUnits="userSpaceOnUse" x1="1375.553" x2="1437.806" xlink:href="#lg5" y1="-968.955" y2="-968.955"/><linearGradient id="SVGID_24_" gradientTransform="matrix(.518 .855 -.855 .518 -1134.36 -590.088)" gradientUnits="userSpaceOnUse" x1="1397.742" x2="1415.617" xlink:href="#lg5" y1="-1007.738" y2="-1007.738"/><linearGradient id="SVGID_25_" gradientTransform="matrix(.518 .855 -.855 .518 -1134.36 -590.088)" gradientUnits="userSpaceOnUse" x1="1397.742" x2="1415.617" xlink:href="#lg5" y1="-930.172" y2="-930.172"/><linearGradient id="SVGID_26_" gradientTransform="matrix(.518 .855 -.855 .518 -1134.36 -590.088)" gradientUnits="userSpaceOnUse" x1="1397.742" x2="1415.617" xlink:href="#lg5" y1="-852.606" y2="-852.606"/><linearGradient id="SVGID_27_" gradientTransform="matrix(-.518 .855 .855 .518 573.253 -590.088)" gradientUnits="userSpaceOnUse" x1="820.922" x2="883.176" xlink:href="#lg5" y1="339.822" y2="339.822"/><linearGradient id="SVGID_28_" gradientTransform="matrix(-.518 .855 .855 .518 573.253 -590.088)" gradientUnits="userSpaceOnUse" x1="820.922" x2="883.176" xlink:href="#lg5" y1="263.097" y2="263.097"/><linearGradient id="SVGID_29_" gradientTransform="matrix(-.518 .855 .855 .518 573.253 -590.088)" gradientUnits="userSpaceOnUse" x1="843.111" x2="860.987" xlink:href="#lg5" y1="224.315" y2="224.315"/><linearGradient id="SVGID_30_" gradientTransform="matrix(-.518 .855 .855 .518 573.253 -590.088)" gradientUnits="userSpaceOnUse" x1="843.111" x2="860.987" xlink:href="#lg5" y1="301.88" y2="301.88"/><linearGradient id="SVGID_31_" gradientTransform="matrix(-.518 .855 .855 .518 573.253 -590.088)" gradientUnits="userSpaceOnUse" x1="843.111" x2="860.987" xlink:href="#lg5" y1="379.446" y2="379.446"/><linearGradient id="SVGID_32_" gradientTransform="matrix(-.518 .855 .855 .518 573.253 -590.088)" gradientUnits="userSpaceOnUse" x1="820.627" x2="882.881" xlink:href="#lg5" y1="23.918" y2="23.918"/><linearGradient id="SVGID_33_" gradientTransform="matrix(-.518 .855 .855 .518 573.253 -590.088)" gradientUnits="userSpaceOnUse" x1="820.627" x2="882.881" xlink:href="#lg5" y1="-52.807" y2="-52.807"/><linearGradient id="SVGID_34_" gradientTransform="matrix(-.518 .855 .855 .518 573.253 -590.088)" gradientUnits="userSpaceOnUse" x1="842.816" x2="860.692" xlink:href="#lg5" y1="-91.59" y2="-91.59"/><linearGradient id="SVGID_35_" gradientTransform="matrix(-.518 .855 .855 .518 573.253 -590.088)" gradientUnits="userSpaceOnUse" x1="842.816" x2="860.692" xlink:href="#lg5" y1="-14.025" y2="-14.025"/><linearGradient id="SVGID_36_" gradientTransform="matrix(-.518 .855 .855 .518 573.253 -590.088)" gradientUnits="userSpaceOnUse" x1="842.816" x2="860.692" xlink:href="#lg5" y1="63.541" y2="63.541"/><linearGradient id="SVGID_37_" gradientUnits="userSpaceOnUse" x1="217.538" x2="299.18" xlink:href="#lg1" y1="147.559" y2="278.71"/><linearGradient id="SVGID_38_" gradientUnits="userSpaceOnUse" x1="318.882" x2="201.356" xlink:href="#lg2" y1="279.452" y2="161.925"/><linearGradient id="SVGID_39_" gradientUnits="userSpaceOnUse" x1="234.128" x2="271.208" y1="158.564" y2="195.645"><stop offset="0" stop-color="#edf5ff"/><stop offset="1" stop-color="#b5dbff"/></linearGradient><linearGradient id="SVGID_40_" gradientUnits="userSpaceOnUse" x1="256.866" x2="256.866" y1="185.235" y2="96.326"><stop offset="0" stop-color="#b5dbff" stop-opacity="0"/><stop offset=".2428" stop-color="#93cef6" stop-opacity=".243"/><stop offset=".5763" stop-color="#6abfec" stop-opacity=".576"/><stop offset=".8403" stop-color="#51b5e5" stop-opacity=".84"/><stop offset="1" stop-color="#48b2e3"/></linearGradient><linearGradient id="lg6"><stop offset="0" stop-color="#ffda2d"/><stop offset="1" stop-color="#fdbf00"/></linearGradient><linearGradient id="SVGID_41_" gradientUnits="userSpaceOnUse" x1="233.721" x2="275.028" xlink:href="#lg6" y1="202.607" y2="243.913"/><linearGradient id="SVGID_42_" gradientUnits="userSpaceOnUse" x1="276.415" x2="235.212" xlink:href="#lg6" y1="243.26" y2="202.057"/><linearGradient id="SVGID_43_" gradientUnits="userSpaceOnUse" x1="272.51" x2="240.219" xlink:href="#lg1" y1="239.358" y2="207.067"/><linearGradient id="SVGID_44_" gradientUnits="userSpaceOnUse" x1="258.359" x2="258.359" y1="253.282" y2="265.723"><stop offset="0" stop-color="#ff9100" stop-opacity="0"/><stop offset="1" stop-color="#ff9100"/></linearGradient><g><g><g><g><path d="m452.104 391.481h-394.208c-15.832 0-28.667-12.835-28.667-28.667v-263.124c0-15.832 12.835-28.667 28.667-28.667h394.209c15.832 0 28.667 12.835 28.667 28.667v263.124c-.001 15.832-12.835 28.667-28.668 28.667z" fill="url(#SVGID_1_)"/><path d="m436.554 370.343h-363.108c-12.586 0-22.789-10.203-22.789-22.789v-232.604c0-12.586 10.203-22.789 22.789-22.789h363.108c12.586 0 22.789 10.203 22.789 22.789v232.603c0 12.587-10.203 22.79-22.789 22.79z" fill="url(#SVGID_2_)"/><path d="m29.229 285.858v76.956c0 15.832 12.835 28.667 28.667 28.667h394.209c15.832 0 28.667-12.835 28.667-28.667v-76.956z" fill="url(#SVGID_3_)"/><path d="m425.361 356.606h-340.721c-11.561 0-20.932-9.372-20.932-20.932v-208.843c0-11.561 9.372-20.932 20.932-20.932h340.721c11.561 0 20.932 9.372 20.932 20.932v208.842c0 11.561-9.372 20.933-20.932 20.933z" fill="url(#SVGID_4_)"/><circle cx="255" cy="92.161" fill="url(#SVGID_5_)" r="8.758"/><circle cx="255" cy="92.161" fill="url(#SVGID_6_)" r="5.496"/></g><g><path d="m213.586 238.392c-2.557-4.222-8.053-4.626-12.275-2.069l-21.472 13.952c-8.309-9.667-22.657-13.164-33.913-6.346l-17.807 10.786c-11.256 6.818-14.695 20.716-9.976 32.557l-3.929 2.753c-8.309-9.667-22.657-13.164-33.913-6.346l-17.807 10.786c-11.256 6.818-14.694 20.716-9.975 32.557l-23.138 12.496c.827 1.747.677 4.931-.151 9.112v14.183c0 15.832 12.835 28.667 28.667 28.667h308.75c-67.821-67.806-152.995-152.979-153.061-153.088z" fill="url(#SVGID_7_)"/><path d="m480.771 362.814v-263.124c0-2.45-.309-4.828-.887-7.098-2.635-6.237-7.118-11.264-13.496-15.083l-16.501 9.795c-8.309-9.667-22.657-13.164-33.913-6.346l-17.807 10.786c-11.256 6.818-13.749 20.716-9.03 32.558l-4.875 2.753c-8.309-9.667-22.657-13.164-33.913-6.346l-17.807 10.786c-11.256 6.818-13.748 19.77-9.03 31.612l-24.083 13.442c-4.222 2.557-5.572 7.107-3.014 11.329l183.21 182.964c.741-2.55 1.146-5.241 1.146-8.028z" fill="url(#SVGID_8_)"/><path d="m480.771 362.814v-36.979c-16.081-15.963-31.927-31.511-33.262-32.319l-17.807-9.839c-6.588-3.989-13.289-4.764-20.17-2.789-1.692-2.372-24.443-25.18-27.647-27.118l-17.807-9.839c-11.257-6.824-25.605-3.326-33.913 6.343l-21.475-14.897c-4.225-2.562-9.717-1.21-12.278 3.015-1.711 2.826-1.664 6.219-.18 8.923l-110.908-110.368c-2.042-2.874-4.66-4.461-7.864-6.398l-17.807-10.785c-6.588-3.998-13.289-4.773-20.17-2.788-1.692-2.382-24.443-25.18-27.647-27.127l-17.807-9.839c-11.257-6.815-25.605-3.317-33.913 6.352l-17.154-11.145c-4.779 2.922-8.631 7.206-11.027 12.311l18.436 18.436-.217.226c-1.219 9.509 1.843 19.263 10.037 25.057l260.234 260.234h131.68c15.832 0 28.666-12.835 28.666-28.667z" fill="url(#SVGID_9_)"/><path d="m480.771 362.814v-36.349l-165.136-165.137c-14.132-15.615-34.557-25.427-57.276-25.427-42.654 0-77.232 34.578-77.232 77.233 0 22.719 9.812 43.144 25.427 57.276l121.071 121.071h124.481c15.831 0 28.665-12.835 28.665-28.667z" fill="url(#SVGID_10_)"/><path d="m0 378.712v16.751c0 7.751 3.464 15.096 9.445 20.026l20.732 17.09c5.69 4.691 12.835 7.256 20.21 7.256h409.225c7.375 0 14.52-2.565 20.21-7.256l20.732-17.09c5.981-4.93 9.445-12.275 9.445-20.026v-16.751c0-12.209-9.897-22.106-22.106-22.106h-465.787c-12.209 0-22.106 9.897-22.106 22.106z" fill="url(#SVGID_11_)"/><path d="m.145 398.155c.703 6.739 4.018 12.979 9.301 17.334l20.732 17.09c5.691 4.691 12.835 7.256 20.21 7.256h409.225c7.375 0 14.52-2.565 20.21-7.256l20.732-17.09c5.283-4.355 8.598-10.595 9.301-17.334z" fill="url(#SVGID_12_)"/><path d="m282.761 379.673h-55.523c-12.74 0-23.067-10.327-23.067-23.067h101.657c0 12.739-10.327 23.067-23.067 23.067z" fill="url(#SVGID_13_)"/><g><path d="m44.397 387.939h-6.505c-3.731 0-6.755-3.024-6.755-6.755v-6.505c0-3.731 3.024-6.755 6.755-6.755h6.505c3.731 0 6.755 3.024 6.755 6.755v6.505c0 3.731-3.024 6.755-6.755 6.755z" fill="url(#SVGID_14_)"/><path d="m69.915 387.939h-6.505c-3.731 0-6.755-3.024-6.755-6.755v-6.505c0-3.731 3.024-6.755 6.755-6.755h6.505c3.731 0 6.755 3.024 6.755 6.755v6.505c0 3.731-3.024 6.755-6.755 6.755z" fill="url(#SVGID_15_)"/><path d="m95.434 387.939h-6.505c-3.731 0-6.755-3.024-6.755-6.755v-6.505c0-3.731 3.024-6.755 6.755-6.755h6.505c3.731 0 6.755 3.024 6.755 6.755v6.505c0 3.731-3.025 6.755-6.755 6.755z" fill="url(#SVGID_16_)"/></g></g></g></g><g><g><g><g><path d="m58.243 337.804-4.713-7.781c-7.593-12.535-3.572-28.91 8.963-36.503l17.807-10.786c12.535-7.593 28.91-3.572 36.503 8.963l4.713 7.781c7.593 12.535 3.572 28.91-8.963 36.503l-17.807 10.786c-12.535 7.593-28.91 3.572-36.503-8.963zm43.27-36.846c-2.486-4.105-7.848-5.421-11.952-2.935l-17.807 10.786c-4.104 2.486-5.421 7.848-2.934 11.952l4.713 7.781c2.486 4.105 7.848 5.421 11.952 2.935l17.807-10.786c4.105-2.486 5.421-7.848 2.935-11.952z" fill="url(#SVGID_17_)"/><path d="m123.868 298.054-4.713-7.781c-7.593-12.535-3.572-28.91 8.963-36.503l17.807-10.786c12.535-7.593 28.91-3.572 36.503 8.963l4.713 7.781c7.593 12.535 3.572 28.91-8.963 36.503l-17.807 10.786c-12.536 7.593-28.911 3.572-36.503-8.963zm43.27-36.846c-2.486-4.105-7.848-5.421-11.952-2.935l-17.807 10.786c-4.105 2.486-5.421 7.848-2.935 11.952l4.713 7.781c2.486 4.105 7.848 5.421 11.952 2.935l17.807-10.786c4.105-2.486 5.421-7.848 2.935-11.952z" fill="url(#SVGID_18_)"/></g><g><path d="m159.053 271.423c-2.557-4.222-1.208-9.718 3.014-12.275l39.243-23.77c4.222-2.557 9.718-1.208 12.275 3.014s1.208 9.718-3.014 12.275l-39.243 23.77c-4.221 2.558-9.717 1.208-12.275-3.014z" fill="url(#SVGID_19_)"/><path d="m92.71 311.609c-2.557-4.222-1.208-9.718 3.014-12.275l39.243-23.77c4.222-2.557 9.718-1.208 12.275 3.014s1.208 9.718-3.014 12.275l-39.243 23.77c-4.222 2.557-9.718 1.208-12.275-3.014z" fill="url(#SVGID_20_)"/><path d="m26.365 351.795c-2.557-4.222-1.208-9.718 3.014-12.275l39.243-23.77c4.222-2.557 9.718-1.208 12.275 3.014s1.208 9.718-3.014 12.275l-39.243 23.77c-4.222 2.557-9.717 1.208-12.275-3.014z" fill="url(#SVGID_21_)"/></g></g><g><g><path d="m328.292 173.885-4.713-7.781c-7.593-12.535-3.572-28.91 8.963-36.503l17.807-10.786c12.535-7.593 28.91-3.572 36.503 8.963l4.713 7.781c7.593 12.535 3.572 28.91-8.963 36.503l-17.807 10.786c-12.535 7.593-28.91 3.572-36.503-8.963zm43.27-36.845c-2.486-4.105-7.848-5.421-11.952-2.935l-17.807 10.786c-4.104 2.486-5.421 7.848-2.934 11.952l4.713 7.781c2.486 4.105 7.848 5.421 11.952 2.935l17.807-10.786c4.105-2.486 5.421-7.848 2.935-11.952z" fill="url(#SVGID_22_)"/><path d="m393.917 134.135-4.713-7.781c-7.593-12.535-3.572-28.91 8.963-36.503l17.807-10.786c12.535-7.593 28.91-3.572 36.503 8.963l4.713 7.781c7.593 12.535 3.572 28.91-8.963 36.503l-17.807 10.786c-12.535 7.593-28.91 3.573-36.503-8.963zm43.27-36.845c-2.486-4.105-7.848-5.421-11.952-2.935l-17.807 10.786c-4.105 2.486-5.421 7.848-2.935 11.952l4.713 7.781c2.486 4.105 7.848 5.421 11.952 2.935l17.807-10.786c4.105-2.486 5.421-7.848 2.935-11.952z" fill="url(#SVGID_23_)"/></g><g><path d="m429.102 107.505c-2.557-4.222-1.208-9.718 3.014-12.275l39.243-23.77c4.222-2.557 9.718-1.208 12.275 3.014s1.208 9.718-3.014 12.275l-39.243 23.77c-4.221 2.557-9.717 1.208-12.275-3.014z" fill="url(#SVGID_24_)"/><path d="m362.759 147.69c-2.557-4.222-1.208-9.718 3.014-12.275l39.243-23.77c4.222-2.557 9.718-1.208 12.275 3.014s1.208 9.718-3.014 12.275l-39.243 23.77c-4.222 2.558-9.718 1.208-12.275-3.014z" fill="url(#SVGID_25_)"/><path d="m296.414 187.876c-2.557-4.222-1.208-9.718 3.014-12.275l39.243-23.77c4.222-2.557 9.718-1.208 12.275 3.014s1.208 9.718-3.014 12.275l-39.243 23.77c-4.221 2.558-9.717 1.208-12.275-3.014z" fill="url(#SVGID_26_)"/></g></g></g><g><g><g><path d="m415.255 346.767-17.807-10.786c-12.535-7.593-16.556-23.968-8.963-36.503l4.713-7.781c7.593-12.535 23.968-16.556 36.503-8.963l17.807 10.786c12.535 7.592 16.556 23.967 8.963 36.503l-4.713 7.781c-7.594 12.535-23.969 16.556-36.503 8.963zm-11.481-38.028c-2.486 4.105-1.17 9.466 2.935 11.952l17.807 10.786c4.104 2.486 9.466 1.169 11.952-2.935l4.713-7.781c2.486-4.105 1.17-9.466-2.934-11.952l-17.807-10.786c-4.105-2.486-9.466-1.17-11.952 2.935z" fill="url(#SVGID_27_)"/><path d="m349.629 307.017-17.807-10.786c-12.535-7.593-16.556-23.968-8.963-36.503l4.713-7.781c7.593-12.535 23.968-16.556 36.503-8.963l17.807 10.786c12.535 7.593 16.556 23.968 8.963 36.503l-4.713 7.781c-7.592 12.535-23.967 16.556-36.503 8.963zm-11.48-38.028c-2.486 4.105-1.17 9.466 2.935 11.952l17.807 10.786c4.105 2.486 9.466 1.17 11.952-2.935l4.713-7.781c2.486-4.105 1.17-9.466-2.935-11.952l-17.807-10.786c-4.105-2.486-9.466-1.17-11.952 2.935z" fill="url(#SVGID_28_)"/></g><g><path d="m350.947 271.423c2.557-4.222 1.208-9.718-3.014-12.275l-39.243-23.77c-4.222-2.557-9.718-1.208-12.275 3.014s-1.208 9.718 3.014 12.275l39.243 23.77c4.221 2.558 9.717 1.208 12.275-3.014z" fill="url(#SVGID_29_)"/><path d="m417.29 311.609c2.557-4.222 1.208-9.718-3.014-12.275l-39.243-23.77c-4.222-2.557-9.718-1.208-12.275 3.014s-1.208 9.718 3.014 12.275l39.243 23.77c4.222 2.557 9.718 1.208 12.275-3.014z" fill="url(#SVGID_30_)"/><path d="m483.635 351.795c2.557-4.222 1.208-9.718-3.014-12.275l-39.243-23.77c-4.222-2.557-9.718-1.208-12.275 3.014s-1.208 9.718 3.014 12.275l39.243 23.77c4.222 2.557 9.717 1.208 12.275-3.014z" fill="url(#SVGID_31_)"/></g></g><g><g><path d="m145.205 182.849-17.807-10.786c-12.535-7.593-16.556-23.968-8.963-36.503l4.713-7.781c7.593-12.535 23.968-16.556 36.503-8.963l17.807 10.786c12.535 7.592 16.556 23.967 8.963 36.503l-4.713 7.781c-7.593 12.534-23.968 16.555-36.503 8.963zm-11.48-38.028c-2.486 4.105-1.17 9.466 2.935 11.952l17.807 10.786c4.104 2.486 9.466 1.169 11.952-2.935l4.713-7.781c2.486-4.105 1.17-9.466-2.934-11.952l-17.807-10.786c-4.105-2.486-9.466-1.17-11.952 2.935z" fill="url(#SVGID_32_)"/><path d="m79.58 143.099-17.807-10.786c-12.535-7.593-16.556-23.968-8.963-36.503l4.713-7.781c7.593-12.535 23.968-16.556 36.503-8.963l17.807 10.786c12.535 7.593 16.556 23.968 8.963 36.503l-4.713 7.781c-7.593 12.535-23.968 16.555-36.503 8.963zm-11.48-38.028c-2.486 4.105-1.17 9.466 2.935 11.952l17.807 10.786c4.105 2.486 9.466 1.17 11.952-2.935l4.713-7.781c2.486-4.105 1.17-9.466-2.935-11.952l-17.807-10.786c-4.105-2.486-9.466-1.17-11.952 2.935z" fill="url(#SVGID_33_)"/></g><g><path d="m80.898 107.505c2.557-4.222 1.208-9.718-3.014-12.275l-39.244-23.77c-4.222-2.557-9.718-1.208-12.275 3.014s-1.208 9.718 3.014 12.275l39.243 23.77c4.222 2.557 9.718 1.208 12.276-3.014z" fill="url(#SVGID_34_)"/><path d="m147.241 147.69c2.557-4.222 1.208-9.718-3.014-12.275l-39.243-23.77c-4.222-2.557-9.718-1.208-12.275 3.014s-1.208 9.718 3.014 12.275l39.243 23.77c4.222 2.558 9.718 1.208 12.275-3.014z" fill="url(#SVGID_35_)"/><path d="m213.586 187.876c2.557-4.222 1.208-9.718-3.014-12.275l-39.243-23.77c-4.222-2.557-9.718-1.208-12.275 3.014s-1.208 9.718 3.014 12.275l39.243 23.77c4.221 2.558 9.717 1.208 12.275-3.014z" fill="url(#SVGID_36_)"/></g></g></g><g><circle cx="258.359" cy="213.134" fill="url(#SVGID_37_)" r="77.232"/><path d="m335.591 213.134c0-1.351-.036-2.694-.105-4.028l-49.594-49.594c-7.242-7.796-17.571-11.741-29.026-11.741-21.852 0-38.684 16.832-38.684 38.684v4.824c-3.251 1.667-5.48 4.099-5.48 8.004v55.922c0 3.31.66 6.237 3.127 8.071l25.089 25.089c5.607 1.295 11.439 2.002 17.439 2.002 42.656 0 77.234-34.579 77.234-77.233z" fill="url(#SVGID_38_)"/><g><g><path d="m296.496 192.54h-14.391v-6.084c0-13.916-11.322-25.238-25.238-25.238s-25.238 11.322-25.238 25.238v6.084h-14.391v-6.084c0-21.852 17.778-39.629 39.629-39.629 21.852 0 39.629 17.778 39.629 39.629z" fill="url(#SVGID_39_)"/><path d="m256.866 154.618c-18.127 0-32.874 14.747-32.874 32.874v5.047h7.636v-6.084c0-13.916 11.322-25.238 25.238-25.238s25.238 11.322 25.238 25.238v6.084h7.636v-5.047c.001-18.127-14.747-32.874-32.874-32.874z" fill="url(#SVGID_40_)"/></g><g><g><path d="m294.9 265.265h-73.083c-5.556 0-10.06-4.504-10.06-10.06v-55.922c0-5.556 4.504-10.06 10.06-10.06h73.083c5.556 0 10.06 4.504 10.06 10.06v55.922c0 5.556-4.504 10.06-10.06 10.06z" fill="url(#SVGID_41_)"/><path d="m276.224 220.076c0-9.867-7.999-17.866-17.866-17.866s-17.866 7.999-17.866 17.866c0 6.985 4.011 13.03 9.853 15.967v8.221c0 4.425 3.587 8.012 8.012 8.012 4.425 0 8.012-3.587 8.012-8.012v-8.221c5.844-2.937 9.855-8.981 9.855-15.967z" fill="url(#SVGID_42_)"/><path d="m258.359 247.632c-1.857 0-3.367-1.511-3.367-3.367v-11.085l-2.558-1.286c-4.5-2.262-7.295-6.791-7.295-11.818 0-7.29 5.931-13.221 13.221-13.221s13.221 5.931 13.221 13.221c0 5.027-2.795 9.555-7.295 11.818l-2.558 1.286v11.085c-.002 1.857-1.513 3.367-3.369 3.367z" fill="url(#SVGID_43_)"/><path d="m211.757 239.979v15.226c0 5.556 4.504 10.06 10.06 10.06h73.083c5.556 0 10.06-4.504 10.06-10.06v-15.226z" fill="url(#SVGID_44_)"/></g></g></g></g></g></g></svg>