<svg id="Capa_1" enable-background="new 0 0 510 510" height="512" viewBox="0 0 510 510" width="512" xmlns="http://www.w3.org/2000/svg" xmlns:xlink="http://www.w3.org/1999/xlink"><linearGradient id="lg1"><stop offset="0" stop-color="#edf5ff"/><stop offset="1" stop-color="#d5e8fe"/></linearGradient><linearGradient id="SVGID_1_" gradientUnits="userSpaceOnUse" x1="117.907" x2="404.713" xlink:href="#lg1" y1="177.766" y2="464.571"/><linearGradient id="SVGID_2_" gradientUnits="userSpaceOnUse" x1="251.442" x2="259.282" y1="125.138" y2="244.982"><stop offset="0" stop-color="#b5dbff"/><stop offset="1" stop-color="#48b2e3"/></linearGradient><linearGradient id="lg2"><stop offset="0" stop-color="#ff637b"/><stop offset="1" stop-color="#e63950"/></linearGradient><linearGradient id="SVGID_3_" gradientUnits="userSpaceOnUse" x1="32.241" x2="46.622" xlink:href="#lg2" y1="167.478" y2="178.435"/><linearGradient id="SVGID_4_" gradientUnits="userSpaceOnUse" x1="72.372" x2="86.753" y1="167.478" y2="178.435"><stop offset="0" stop-color="#ffda2d"/><stop offset="1" stop-color="#fdbf00"/></linearGradient><linearGradient id="SVGID_5_" gradientUnits="userSpaceOnUse" x1="108.358" x2="142.441" y1="162.5" y2="196.583"><stop offset="0" stop-color="#b9dd39"/><stop offset="1" stop-color="#0b799d"/></linearGradient><linearGradient id="SVGID_6_" gradientUnits="userSpaceOnUse" x1="255" x2="255" y1="452.035" y2="551.03"><stop offset="0" stop-color="#b5dbff" stop-opacity="0"/><stop offset=".2428" stop-color="#93cef6" stop-opacity=".243"/><stop offset=".5763" stop-color="#6abfec" stop-opacity=".576"/><stop offset=".8403" stop-color="#51b5e5" stop-opacity=".84"/><stop offset="1" stop-color="#48b2e3"/></linearGradient><linearGradient id="lg3"><stop offset="0" stop-color="#07485e" stop-opacity="0"/><stop offset=".3332" stop-color="#063f52" stop-opacity=".333"/><stop offset=".9358" stop-color="#032632" stop-opacity=".936"/><stop offset="1" stop-color="#03232e"/></linearGradient><linearGradient id="SVGID_7_" gradientUnits="userSpaceOnUse" x1="384.249" x2="296.249" xlink:href="#lg3" y1="293.451" y2="86.451"/><linearGradient id="lg4"><stop offset="0" stop-color="#ff9100"/><stop offset="1" stop-color="#e63950"/></linearGradient><linearGradient id="SVGID_8_" gradientUnits="userSpaceOnUse" x1="199.599" x2="314.407" xlink:href="#lg4" y1="74.85" y2="189.658"/><linearGradient id="lg5"><stop offset="0" stop-color="#e63950" stop-opacity="0"/><stop offset=".0467" stop-color="#e4354b" stop-opacity=".047"/><stop offset=".4669" stop-color="#d31822" stop-opacity=".467"/><stop offset=".7991" stop-color="#c90709" stop-opacity=".799"/><stop offset="1" stop-color="#c50000"/></linearGradient><linearGradient id="SVGID_9_" gradientUnits="userSpaceOnUse" x1="329.439" x2="206.468" xlink:href="#lg5" y1="162.048" y2="79.737"/><linearGradient id="SVGID_10_" gradientUnits="userSpaceOnUse" x1="301.052" x2="238.614" xlink:href="#lg5" y1="243.249" y2="200.138"/><linearGradient id="SVGID_11_" gradientUnits="userSpaceOnUse" x1="234.751" x2="275.249" xlink:href="#lg1" y1="130.251" y2="130.251"/><linearGradient id="SVGID_12_" gradientUnits="userSpaceOnUse" x1="56.212" x2="50.319" xlink:href="#lg3" y1="308.368" y2="360.562"/><linearGradient id="SVGID_13_" gradientUnits="userSpaceOnUse" x1="60.179" x2="124.301" xlink:href="#lg2" y1="265.491" y2="329.612"/><linearGradient id="SVGID_14_" gradientUnits="userSpaceOnUse" x1="54.577" x2="101.851" xlink:href="#lg4" y1="268.573" y2="315.847"/><linearGradient id="SVGID_15_" gradientUnits="userSpaceOnUse" x1="319.286" x2="267.289" xlink:href="#lg3" y1="398.25" y2="398.25"/><linearGradient id="SVGID_16_" gradientUnits="userSpaceOnUse" x1="341.532" x2="419.219" xlink:href="#lg2" y1="301.038" y2="378.726"/><linearGradient id="SVGID_17_" gradientUnits="userSpaceOnUse" x1="293.25" x2="348.271" xlink:href="#lg4" y1="378.455" y2="433.476"/><linearGradient id="SVGID_18_" gradientUnits="userSpaceOnUse" x1="394.428" x2="444.074" xlink:href="#lg4" y1="280.769" y2="330.415"/><linearGradient id="SVGID_19_" gradientUnits="userSpaceOnUse" x1="358.295" x2="411.195" xlink:href="#lg4" y1="349.152" y2="402.052"/><g><g><g><path d="m490.588 498.861h-471.176c-10.721 0-19.412-8.691-19.412-19.412v-329.182c0-10.721 8.691-19.412 19.412-19.412h471.176c10.721 0 19.412 8.691 19.412 19.412v329.182c0 10.721-8.691 19.412-19.412 19.412z" fill="url(#SVGID_1_)"/><path d="m510 209.43h-510v-59.163c0-10.721 8.691-19.412 19.412-19.412h471.176c10.721 0 19.412 8.691 19.412 19.412z" fill="url(#SVGID_2_)"/><g><path d="m40.853 185.88h-10.229c-5.867 0-10.623-4.756-10.623-10.623v-10.229c0-5.867 4.756-10.623 10.623-10.623h10.229c5.867 0 10.623 4.756 10.623 10.623v10.229c0 5.867-4.756 10.623-10.623 10.623z" fill="url(#SVGID_3_)"/><path d="m80.984 185.88h-10.23c-5.867 0-10.623-4.756-10.623-10.623v-10.229c0-5.867 4.756-10.623 10.623-10.623h10.229c5.867 0 10.623 4.756 10.623 10.623v10.229c.001 5.867-4.755 10.623-10.622 10.623z" fill="url(#SVGID_4_)"/><path d="m121.115 185.88h-10.229c-5.867 0-10.623-4.756-10.623-10.623v-10.229c0-5.867 4.756-10.623 10.623-10.623h10.229c5.867 0 10.623 4.756 10.623 10.623v10.229c0 5.867-4.756 10.623-10.623 10.623z" fill="url(#SVGID_5_)"/></g><path d="m0 409.351v70.099c0 10.721 8.691 19.412 19.412 19.412h471.176c10.721 0 19.412-8.691 19.412-19.412v-70.099z" fill="url(#SVGID_6_)"/></g><g fill="#b5dbff"><path d="m166.113 416.236h-104.397c-7.252 0-13.131-5.879-13.131-13.131v-126.207c0-7.252 5.879-13.131 13.131-13.131h104.397c7.252 0 13.131 5.879 13.131 13.131v126.206c.001 7.253-5.878 13.132-13.131 13.132z"/><g><g><path d="m286.513 301.767h-71.598c-5.247 0-9.5-4.253-9.5-9.5v-19c0-5.247 4.253-9.5 9.5-9.5h71.598c5.247 0 9.5 4.253 9.5 9.5v19c0 5.246-4.253 9.5-9.5 9.5z"/><path d="m451.915 301.767h-125c-5.247 0-9.5-4.253-9.5-9.5v-19c0-5.247 4.253-9.5 9.5-9.5h125c5.247 0 9.5 4.253 9.5 9.5v19c0 5.246-4.253 9.5-9.5 9.5z"/></g><g><path d="m380.317 359.001h71.598c5.247 0 9.5-4.253 9.5-9.5v-19c0-5.247-4.253-9.5-9.5-9.5h-71.598c-5.247 0-9.5 4.253-9.5 9.5v19c0 5.247 4.253 9.5 9.5 9.5z"/><path d="m214.915 359.001h125c5.247 0 9.5-4.253 9.5-9.5v-19c0-5.247-4.253-9.5-9.5-9.5h-125c-5.247 0-9.5 4.253-9.5 9.5v19c0 5.247 4.253 9.5 9.5 9.5z"/></g><g><path d="m286.513 416.236h-71.598c-5.247 0-9.5-4.253-9.5-9.5v-19c0-5.247 4.253-9.5 9.5-9.5h71.598c5.247 0 9.5 4.253 9.5 9.5v19c0 5.246-4.253 9.5-9.5 9.5z"/><path d="m451.915 416.236h-125c-5.247 0-9.5-4.253-9.5-9.5v-19c0-5.247 4.253-9.5 9.5-9.5h125c5.247 0 9.5 4.253 9.5 9.5v19c0 5.246-4.253 9.5-9.5 9.5z"/></g></g></g></g><path d="m490.588 130.855h-352.69c.148 34.277 12.819 65.123 36.142 86.745l281.253 281.261h35.295c10.721 0 19.412-8.691 19.412-19.412v-329.182c0-10.721-8.691-19.412-19.412-19.412z" fill="url(#SVGID_7_)"/><g><circle cx="255" cy="130.251" fill="url(#SVGID_8_)" r="119.112"/><path d="m373.513 142.247-102.52-102.521c-3.407-4.547-9.423-5.014-16.125-5.014-10.852 0-17.321 3.822-17.321 14.145 0 31.498 3.706 76.762 3.706 108.26 0 4.117-.2 7.034 2.663 8.919l68.56 68.56c33.433-18.455 57.053-52.507 61.037-92.349z" fill="url(#SVGID_9_)"/><path d="m311.349 235.212-41.405-41.405c-3.719-4.136-9.032-5.779-14.812-5.779-11.647 0-19.381 8.264-19.381 19.381 0 5.927 1.617 11.445 5.878 15.246l26.036 26.036c15.668-1.655 30.429-6.348 43.684-13.479z" fill="url(#SVGID_10_)"/><g><path d="m275.249 207.41c0 10.853-9.264 20.382-20.117 20.382-11.647 0-20.382-9.529-20.382-20.382 0-11.117 8.735-20.382 20.382-20.382 10.853 0 20.117 9.265 20.117 20.382zm-5.029-50.293c0 8.206-9 11.647-15.353 11.647-8.47 0-15.617-3.441-15.617-11.647 0-31.498-3.706-76.762-3.706-108.26 0-10.323 8.47-16.147 19.323-16.147 10.323 0 19.058 5.823 19.058 16.147.001 31.498-3.705 76.762-3.705 108.26z" fill="url(#SVGID_11_)"/></g></g><g><path d="m105.73 315.91c0 10.9-10.67 20.37-26.39 25.22-2.46.76-5.05 1.41-7.75 1.92-5.09 1-10.55 1.53-16.23 1.53-9.52 0-18.42-1.5-26.01-4.11-.9-.31-1.78-.63-2.64-.97-13.12-5.18-21.72-13.81-21.72-23.59 0-10.09 9.16-18.96 23.01-24.07 1.94-.71 3.97-1.35 6.08-1.91 6.46-1.72 13.67-2.68 21.28-2.68 8.4 0 16.33 1.17 23.29 3.25 4.66 1.38 8.9 3.17 12.56 5.29 8.98 5.16 14.52 12.27 14.52 20.12z" fill="url(#SVGID_12_)"/><path d="m152.01 260.2c0 13.81-11.19 25-25 25h-6.75c-11.05 0-21.19 3.98-29.05 10.59-9.9 8.3-16.2 20.76-16.2 34.66 0 4.6-1.24 8.9-3.42 12.6-5.09 1-10.55 1.53-16.23 1.53-9.52 0-18.42-1.5-26.01-4.11-.9-.31-1.78-.63-2.64-.97-1.1-2.8-1.7-5.86-1.7-9.05 0-14.48 3.25-28.22 9.07-40.52 15.24-32.32 48.14-54.73 86.18-54.73h6.75c13.81 0 25 11.19 25 25z" fill="url(#SVGID_13_)"/><path d="m39.448 280.092c3.747 7.749 9.029 15.305 15.82 22.096 6.637 6.637 14.006 11.832 21.57 15.563 4.142-14.139 15.01-25.423 28.895-30.144-7.27-3.699-14.339-8.762-20.73-15.153-6.852-6.852-12.169-14.482-15.921-22.303-11.962 7.649-22.103 17.899-29.634 29.941z" fill="url(#SVGID_14_)"/></g><path d="m344.43 398.25c0 8.4-1.17 16.33-3.25 23.29-4.78 16.1-14.36 27.08-25.41 27.08-10.9 0-20.37-10.67-25.22-26.39-2.2-7.13-3.45-15.3-3.45-23.98 0-9.52 1.5-18.42 4.11-26.01 5.02-14.6 14.14-24.36 24.56-24.36 10.09 0 18.96 9.16 24.07 23.01 2.9 7.88 4.59 17.27 4.59 27.36z" fill="url(#SVGID_15_)"/><g><path d="m481.21 278.9c0 13.8-11.19 25-25 25h-7.53c-18.84 0-34.17 15.32-34.17 34.17 0 42.74-32.02 78.14-73.33 83.47-3.55.46-7.17.7-10.84.7h-39.53c-.09 0-.17 0-.26-.01-2.2-7.13-3.45-15.3-3.45-23.98 0-9.52 1.5-18.42 4.11-26.01h39.13c3.3 0 6.48-.47 9.5-1.35 14.24-4.12 24.67-17.28 24.67-32.82 0-46.42 37.76-84.17 84.17-84.17h7.53c13.81 0 25 11.19 25 25z" fill="url(#SVGID_16_)"/><path d="m329.15 398.22c0 8.5 1.25 16.6 3.5 23.98-.77.03-1.54.04-2.31.04h-39.73c-2.26-7.39-3.51-15.51-3.51-24.02 0-9.28 1.48-18.07 4.13-25.98h39.11c1.01 0 2.01-.04 2.99-.13-2.68 7.94-4.18 16.78-4.18 26.11z" fill="url(#SVGID_17_)"/><path d="m446.23 303.99c-15.47 1.1-28.13 12.54-31.07 27.44-8.59-4.66-16.83-11.39-23.86-19.99-5.3-6.49-9.42-13.44-12.34-20.48 8.05-11.88 19.06-21.61 31.96-28.11 2.95 7.55 7.27 15.04 12.95 21.99 6.62 8.1 14.31 14.54 22.36 19.15z" fill="url(#SVGID_18_)"/><path d="m410.59 363.48c-4.37 13.78-12.21 26.04-22.48 35.75-8.16-1.86-16.47-5.2-24.41-10.05-8.71-5.33-16-11.88-21.6-19.03 13.06-4.8 22.41-17.37 22.41-32.08 0-1.04.02-2.08.07-3.12 5.51 6.89 12.61 13.2 21.05 18.36 8.12 4.96 16.62 8.33 24.96 10.17z" fill="url(#SVGID_19_)"/></g></g></svg>