<svg id="Capa_1" enable-background="new 0 0 510 510" height="512" viewBox="0 0 510 510" width="512" xmlns="http://www.w3.org/2000/svg" xmlns:xlink="http://www.w3.org/1999/xlink"><linearGradient id="lg1"><stop offset="0" stop-color="#0b799d"/><stop offset="1" stop-color="#07485e"/></linearGradient><linearGradient id="SVGID_1_" gradientUnits="userSpaceOnUse" x1="166.564" x2="392.261" xlink:href="#lg1" y1="151.162" y2="376.86"/><linearGradient id="SVGID_2_" gradientUnits="userSpaceOnUse" x1="390.007" x2="137.241" xlink:href="#lg1" y1="199.204" y2="-53.562"/><linearGradient id="lg2"><stop offset="0" stop-color="#07485e" stop-opacity="0"/><stop offset="1" stop-color="#03232e"/></linearGradient><linearGradient id="SVGID_3_" gradientUnits="userSpaceOnUse" x1="418.412" x2="196.412" xlink:href="#lg2" y1="189.444" y2="-13.556"/><linearGradient id="lg3"><stop offset="0" stop-color="#edf5ff"/><stop offset="1" stop-color="#d5e8fe"/></linearGradient><linearGradient id="SVGID_4_" gradientUnits="userSpaceOnUse" x1="261.116" x2="327.992" xlink:href="#lg3" y1="36.095" y2="102.971"/><linearGradient id="SVGID_5_" gradientUnits="userSpaceOnUse" x1="374.173" x2="268.431" xlink:href="#lg3" y1="130.538" y2="24.796"/><linearGradient id="SVGID_6_" gradientUnits="userSpaceOnUse" x1="187.704" x2="357.399" xlink:href="#lg3" y1="253.718" y2="423.413"/><linearGradient id="SVGID_7_" gradientUnits="userSpaceOnUse" x1="254.999" x2="254.999" xlink:href="#lg2" y1="383.211" y2="428.256"/><linearGradient id="SVGID_8_" gradientUnits="userSpaceOnUse" x1="409.87" x2="288.537" xlink:href="#lg2" y1="393.712" y2="367.712"/><linearGradient id="SVGID_9_" gradientUnits="userSpaceOnUse" x1="192.043" x2="317.955" y1="289.754" y2="492.022"><stop offset="0" stop-color="#b9dd39"/><stop offset="1" stop-color="#90cc1c"/></linearGradient><linearGradient id="SVGID_10_" gradientUnits="userSpaceOnUse" x1="318.921" x2="102.92" y1="463.745" y2="247.744"><stop offset="0" stop-color="#0b799d" stop-opacity="0"/><stop offset=".3645" stop-color="#096380" stop-opacity=".365"/><stop offset=".76" stop-color="#084f67" stop-opacity=".76"/><stop offset="1" stop-color="#07485e"/></linearGradient><linearGradient id="SVGID_11_" gradientUnits="userSpaceOnUse" x1="217.629" x2="274.816" y1="306.728" y2="363.915"><stop offset="0" stop-color="#edf5ff"/><stop offset="1" stop-color="#b5dbff"/></linearGradient><linearGradient id="SVGID_12_" gradientUnits="userSpaceOnUse" x1="252.698" x2="252.698" y1="347.86" y2="210.74"><stop offset="0" stop-color="#b5dbff" stop-opacity="0"/><stop offset=".2428" stop-color="#93cef6" stop-opacity=".243"/><stop offset=".5763" stop-color="#6abfec" stop-opacity=".576"/><stop offset=".8403" stop-color="#51b5e5" stop-opacity=".84"/><stop offset="1" stop-color="#48b2e3"/></linearGradient><linearGradient id="lg4"><stop offset="0" stop-color="#ffda2d"/><stop offset="1" stop-color="#fdbf00"/></linearGradient><linearGradient id="SVGID_13_" gradientUnits="userSpaceOnUse" x1="217.002" x2="280.707" xlink:href="#lg4" y1="374.652" y2="438.357"/><linearGradient id="SVGID_14_" gradientUnits="userSpaceOnUse" x1="282.847" x2="219.301" xlink:href="#lg4" y1="437.35" y2="373.804"/><linearGradient id="SVGID_15_" gradientUnits="userSpaceOnUse" x1="276.823" x2="227.023" xlink:href="#lg1" y1="431.331" y2="381.531"/><linearGradient id="SVGID_16_" gradientUnits="userSpaceOnUse" x1="254.999" x2="254.999" y1="452.806" y2="471.993"><stop offset="0" stop-color="#ff9100" stop-opacity="0"/><stop offset="1" stop-color="#ff9100"/></linearGradient><g><g><path d="m390.209 7.194 57.185 56.727c5.87 5.823 9.172 13.75 9.172 22.019v305.793c0 19.159-15.531 34.69-34.69 34.69h-333.755c-19.159 0-34.69-15.531-34.69-34.69v-357.043c0-19.159 15.531-34.69 34.69-34.69h286.63c5.962 0 11.619 2.633 15.458 7.194z" fill="url(#SVGID_1_)"/><path d="m374.999 0h-240v116.623c0 15.691 12.72 28.412 28.412 28.412h183.176c15.691 0 28.412-12.72 28.412-28.412z" fill="url(#SVGID_2_)"/><path d="m456.569 85.941v295.09l-240.68-240.68c-6.35-4.54-10.48-11.96-10.48-20.36v-119.99h169.34c.08 0 .17 0 .25.01 5.87.06 11.42 2.68 15.21 7.18l57.19 56.73c5.87 5.82 9.17 13.75 9.17 22.02z" fill="url(#SVGID_3_)"/><g><path d="m205.409.001v119.99c0 13.83 11.21 25.04 25.04 25.04h116.14c15.69 0 28.41-12.72 28.41-28.41v-116.62zm136.69 107.76c0 9.8-7.94 17.74-17.74 17.74h-16.42c-9.79 0-17.74-7.94-17.74-17.74v-70.49c0-9.8 7.95-17.74 17.74-17.74h16.42c9.8 0 17.74 7.94 17.74 17.74z" fill="url(#SVGID_4_)"/><path d="m330.149 8.711h-27.99c-12.9 0-23.36 10.45-23.36 23.35v80.91c0 12.9 10.46 23.35 23.36 23.35h27.99c12.9 0 23.35-10.45 23.35-23.35v-80.91c0-12.9-10.45-23.35-23.35-23.35zm11.95 99.05c0 9.8-7.94 17.74-17.74 17.74h-16.42c-9.79 0-17.74-7.94-17.74-17.74v-70.49c0-9.8 7.95-17.74 17.74-17.74h16.42c9.8 0 17.74 7.94 17.74 17.74z" fill="url(#SVGID_5_)"/></g><g><path d="m386.589 426.423h-263.18c-11.548 0-20.91-9.362-20.91-20.91v-169c0-11.548 9.362-20.91 20.91-20.91h263.179c11.548 0 20.91 9.362 20.91 20.91v169c.001 11.548-9.361 20.91-20.909 20.91z" fill="url(#SVGID_6_)"/><g><g fill="#b5dbff"><g><path d="m217.55 290.484h-57.168c-4.189 0-7.585-3.396-7.585-7.585v-15.171c0-4.189 3.396-7.585 7.585-7.585h57.168c4.189 0 7.585 3.396 7.585 7.585v15.171c0 4.189-3.396 7.585-7.585 7.585z"/><path d="m349.616 290.484h-99.807c-4.189 0-7.585-3.396-7.585-7.585v-15.171c0-4.189 3.396-7.585 7.585-7.585h99.807c4.189 0 7.585 3.396 7.585 7.585v15.171c0 4.189-3.396 7.585-7.585 7.585z"/></g><g><path d="m292.448 336.183h57.168c4.189 0 7.585-3.396 7.585-7.585v-15.171c0-4.189-3.396-7.585-7.585-7.585h-57.168c-4.189 0-7.585 3.396-7.585 7.585v15.171c0 4.189 3.396 7.585 7.585 7.585z"/><path d="m160.382 336.183h99.807c4.189 0 7.585-3.396 7.585-7.585v-15.171c0-4.189-3.396-7.585-7.585-7.585h-99.807c-4.189 0-7.585 3.396-7.585 7.585v15.171c0 4.189 3.396 7.585 7.585 7.585z"/></g><g><path d="m217.55 381.882h-57.168c-4.189 0-7.585-3.396-7.585-7.585v-15.171c0-4.189 3.396-7.585 7.585-7.585h57.168c4.189 0 7.585 3.396 7.585 7.585v15.171c0 4.189-3.396 7.585-7.585 7.585z"/><path d="m349.616 381.882h-99.807c-4.189 0-7.585-3.396-7.585-7.585v-15.171c0-4.189 3.396-7.585 7.585-7.585h99.807c4.189 0 7.585 3.396 7.585 7.585v15.171c0 4.189-3.396 7.585-7.585 7.585z"/></g></g></g></g><path d="m53.431 350.426v41.307c0 19.159 15.531 34.69 34.69 34.69h333.756c19.158 0 34.69-15.531 34.69-34.69v-41.307z" fill="url(#SVGID_7_)"/></g><path d="m447.566 415.045-106.674-106.674c-21.674-22.555-52.142-34.594-85.893-34.594-65.784 0-117.111 51.327-117.111 117.111 0 12.378 1.895 24.312 5.4 35.535h278.589c10.184 0 19.343-4.389 25.689-11.378z" fill="url(#SVGID_8_)"/><g><circle cx="254.999" cy="390.888" fill="url(#SVGID_9_)" r="119.112"/><path d="m374.111 390.888c0-2.084-.056-4.154-.161-6.212l-76.486-76.486c-11.169-12.024-27.1-18.108-44.766-18.108-33.701 0-59.66 25.959-59.66 59.66v7.44c-5.014 2.571-8.452 6.322-8.452 12.344v86.246c0 5.105 1.018 9.62 4.823 12.447l38.694 38.694c8.647 1.997 17.642 3.087 26.896 3.087 65.784 0 119.112-53.328 119.112-119.112z" fill="url(#SVGID_10_)"/><g><g><path d="m313.816 359.126h-22.195v-9.384c0-21.462-17.461-38.923-38.923-38.923s-38.923 17.461-38.923 38.923v9.384h-22.195v-9.384c0-33.701 27.418-61.119 61.119-61.119s61.119 27.418 61.119 61.119v9.384z" fill="url(#SVGID_11_)"/><path d="m252.698 300.641c-27.956 0-50.701 22.744-50.701 50.701v7.784h11.777v-9.384c0-21.462 17.461-38.923 38.923-38.923s38.923 17.461 38.923 38.923v9.384h11.777v-7.784c.001-27.957-22.743-50.701-50.699-50.701z" fill="url(#SVGID_12_)"/></g><g><g><path d="m311.355 471.287h-112.712c-8.569 0-15.515-6.946-15.515-15.515v-86.246c0-8.569 6.946-15.515 15.515-15.515h112.712c8.569 0 15.515 6.946 15.515 15.515v86.246c0 8.568-6.946 15.515-15.515 15.515z" fill="url(#SVGID_13_)"/><path d="m282.552 401.595c0-15.217-12.336-27.553-27.553-27.553s-27.553 12.336-27.553 27.553c0 10.773 6.186 20.095 15.197 24.625v12.679c0 6.824 5.532 12.357 12.357 12.357 6.824 0 12.357-5.532 12.357-12.357v-12.679c9.009-4.53 15.195-13.852 15.195-24.625z" fill="url(#SVGID_14_)"/><path d="m254.999 444.093c-2.864 0-5.193-2.33-5.193-5.193v-17.095l-3.945-1.984c-6.94-3.489-11.251-10.473-11.251-18.226 0-11.243 9.147-20.39 20.39-20.39s20.39 9.147 20.39 20.39c0 7.753-4.311 14.736-11.251 18.226l-3.945 1.984v17.095c-.002 2.863-2.332 5.193-5.195 5.193z" fill="url(#SVGID_15_)"/><path d="m183.128 432.29v23.482c0 8.569 6.946 15.515 15.515 15.515h112.712c8.569 0 15.515-6.946 15.515-15.515v-23.482z" fill="url(#SVGID_16_)"/></g></g></g></g></g></svg>