<?xml version="1.0" encoding="iso-8859-1"?>
<!-- Generator: Adobe Illustrator 19.0.0, SVG Export Plug-In . SVG Version: 6.00 Build 0)  -->
<svg version="1.1" id="Capa_1" xmlns="http://www.w3.org/2000/svg" xmlns:xlink="http://www.w3.org/1999/xlink" x="0px" y="0px"
	 viewBox="0 0 511.999 511.999" style="enable-background:new 0 0 511.999 511.999;" xml:space="preserve">
<linearGradient id="SVGID_1_" gradientUnits="userSpaceOnUse" x1="269.4958" y1="213.511" x2="578.2104" y2="-161.3647" gradientTransform="matrix(1.0039 0 0 -1.0039 0.1922 516.5609)">
	<stop  offset="0" style="stop-color:#E2EDF2"/>
	<stop  offset="0.146" style="stop-color:#D9E5EA"/>
	<stop  offset="0.382" style="stop-color:#C2CDD5"/>
	<stop  offset="0.678" style="stop-color:#9BA8B3"/>
	<stop  offset="1" style="stop-color:#697786"/>
</linearGradient>
<path style="fill:url(#SVGID_1_);" d="M500.058,259.391c0-66.842-51.641-121.622-117.202-126.622
	c0.085-1.915,0.137-3.84,0.137-5.777C382.993,56.857,326.137,0,256,0S129.007,56.857,129.007,126.993
	c0,1.937,0.05,3.861,0.137,5.777c-65.561,5-117.202,59.78-117.202,126.622c0,58.07,38.975,107.035,92.194,122.166
	c0,26.026,0,52.051,0,78.077c0,9.214,6.355,17.212,15.328,19.302c90.685,21.117,182.386,21.119,273.074,0
	c8.973-2.09,15.328-10.088,15.328-19.302c0-26.026,0-52.052,0-78.078C461.083,366.426,500.058,317.46,500.058,259.391z"/>
<linearGradient id="SVGID_2_" gradientUnits="userSpaceOnUse" x1="353.9266" y1="277.6917" x2="485.8566" y2="115.3117" gradientTransform="matrix(1.0039 0 0 -1.0039 0.1922 516.5609)">
	<stop  offset="0" style="stop-color:#E2EDF2;stop-opacity:0"/>
	<stop  offset="0.352" style="stop-color:#BBC7CF;stop-opacity:0.352"/>
	<stop  offset="1" style="stop-color:#697786"/>
</linearGradient>
<circle style="fill:url(#SVGID_2_);" cx="373.067" cy="259.393" r="126.996"/>
<linearGradient id="SVGID_3_" gradientUnits="userSpaceOnUse" x1="332.1431" y1="325.0026" x2="531.3431" y2="162.6226" gradientTransform="matrix(1.0039 0 0 -1.0039 0.1922 516.5609)">
	<stop  offset="0" style="stop-color:#E2EDF2;stop-opacity:0"/>
	<stop  offset="0.352" style="stop-color:#BBC7CF;stop-opacity:0.352"/>
	<stop  offset="1" style="stop-color:#697786"/>
</linearGradient>
<circle style="fill:url(#SVGID_3_);" cx="256" cy="126.996" r="126.996"/>
<linearGradient id="SVGID_4_" gradientUnits="userSpaceOnUse" x1="164.7155" y1="288.1253" x2="-13.7735" y2="72.9853" gradientTransform="matrix(1.0039 0 0 -1.0039 0.1922 516.5609)">
	<stop  offset="0" style="stop-color:#E2EDF2;stop-opacity:0"/>
	<stop  offset="0.352" style="stop-color:#BBC7CF;stop-opacity:0.352"/>
	<stop  offset="1" style="stop-color:#697786"/>
</linearGradient>
<circle style="fill:url(#SVGID_4_);" cx="138.932" cy="259.393" r="126.996"/>
<linearGradient id="SVGID_5_" gradientUnits="userSpaceOnUse" x1="235.0883" y1="115.0339" x2="69.4983" y2="133.9939" gradientTransform="matrix(1.0039 0 0 -1.0039 0.1922 516.5609)">
	<stop  offset="0" style="stop-color:#E2EDF2;stop-opacity:0"/>
	<stop  offset="0.352" style="stop-color:#BBC7CF;stop-opacity:0.352"/>
	<stop  offset="1" style="stop-color:#697786"/>
</linearGradient>
<path style="fill:url(#SVGID_5_);" d="M373.065,386.384c-52.651,0-97.816-32.041-117.065-77.687
	c-19.249,45.646-64.415,77.687-117.065,77.687c-12.067,0-23.741-1.684-34.8-4.828l111.849,111.85
	c58.909,3.994,117.943-0.82,176.553-14.47c8.973-2.09,15.328-10.088,15.328-19.302c0-26.026,0-52.052,0-78.078
	C396.806,384.701,385.132,386.384,373.065,386.384z"/>
<radialGradient id="SVGID_6_" cx="254.8082" cy="-225.7514" r="316.34" gradientTransform="matrix(1.0039 0 0 -0.3046 0.1922 355.281)" gradientUnits="userSpaceOnUse">
	<stop  offset="0" style="stop-color:#E2EDF2"/>
	<stop  offset="0.433" style="stop-color:#E0EBF0"/>
	<stop  offset="0.589" style="stop-color:#D9E5EA"/>
	<stop  offset="0.7" style="stop-color:#CED9E0"/>
	<stop  offset="0.79" style="stop-color:#BDC9D1"/>
	<stop  offset="0.867" style="stop-color:#A7B3BD"/>
	<stop  offset="0.934" style="stop-color:#8C99A5"/>
	<stop  offset="0.994" style="stop-color:#6D7B89"/>
	<stop  offset="1" style="stop-color:#697786"/>
</radialGradient>
<path style="fill:url(#SVGID_6_);" d="M403.686,435.379c-98.146,18.856-197.225,18.856-295.372,0
	c-6.868-1.319-13.246,3.908-13.267,10.902l-0.083,28.45c0,9.765,6.738,18.252,16.253,20.468c96.16,22.398,193.405,22.398,289.565,0
	c9.514-2.216,16.253-10.702,16.253-20.468l-0.083-28.45C416.931,439.287,410.553,434.06,403.686,435.379z"/>
<linearGradient id="SVGID_7_" gradientUnits="userSpaceOnUse" x1="58.3023" y1="263.7367" x2="101.5623" y2="101.3567" gradientTransform="matrix(1.0039 0 0 -1.0039 0.1922 516.5609)">
	<stop  offset="0" style="stop-color:#E2EDF2;stop-opacity:0"/>
	<stop  offset="0.352" style="stop-color:#BBC7CF;stop-opacity:0.352"/>
	<stop  offset="1" style="stop-color:#697786"/>
</linearGradient>
<path style="fill:url(#SVGID_7_);" d="M108.316,435.383c-6.876-1.325-13.25,3.906-13.272,10.897l-0.08,28.452
	c0,9.765,6.738,18.252,16.253,20.468c7.15,1.668,14.3,3.199,21.45,4.626v-60.148C124.546,438.363,116.425,436.936,108.316,435.383z"
	/>
<linearGradient id="SVGID_8_" gradientUnits="userSpaceOnUse" x1="336.8276" y1="264.7645" x2="380.6176" y2="102.3845" gradientTransform="matrix(1.0039 0 0 -1.0039 0.1922 516.5609)">
	<stop  offset="0" style="stop-color:#E2EDF2;stop-opacity:0"/>
	<stop  offset="0.352" style="stop-color:#BBC7CF;stop-opacity:0.352"/>
	<stop  offset="1" style="stop-color:#697786"/>
</linearGradient>
<path style="fill:url(#SVGID_8_);" d="M417.228,446.524c0.068-6.989-6.237-12.303-13.129-11.067
	c-8.129,1.448-16.268,2.771-24.405,3.979l-0.78,60.142c7.168-1.335,14.337-2.773,21.508-4.347
	c9.542-2.092,16.391-10.491,16.518-20.255L417.228,446.524z"/>
<linearGradient id="SVGID_9_" gradientUnits="userSpaceOnUse" x1="70.1079" y1="242.3848" x2="139.8479" y2="80.0048" gradientTransform="matrix(1.0039 0 0 -1.0039 0.1922 516.5609)">
	<stop  offset="0" style="stop-color:#E2EDF2;stop-opacity:0"/>
	<stop  offset="0.352" style="stop-color:#BBC7CF;stop-opacity:0.352"/>
	<stop  offset="1" style="stop-color:#697786"/>
</linearGradient>
<path style="fill:url(#SVGID_9_);" d="M132.667,439.678v60.147c15.727,3.107,31.478,5.619,47.241,7.549v-61.61
	C164.146,444.223,148.395,442.19,132.667,439.678z"/>
<linearGradient id="SVGID_10_" gradientUnits="userSpaceOnUse" x1="268.9667" y1="247.4982" x2="336.5467" y2="85.1182" gradientTransform="matrix(1.0039 0 0 -1.0039 0.1922 516.5609)">
	<stop  offset="0" style="stop-color:#E2EDF2;stop-opacity:0"/>
	<stop  offset="0.352" style="stop-color:#BBC7CF;stop-opacity:0.352"/>
	<stop  offset="1" style="stop-color:#697786"/>
</linearGradient>
<path style="fill:url(#SVGID_10_);" d="M332.092,445.765v61.61c15.762-1.931,31.513-4.443,47.241-7.549v-60.148
	C363.604,442.19,347.853,444.223,332.092,445.765z"/>
<linearGradient id="SVGID_11_" gradientUnits="userSpaceOnUse" x1="227.223" y1="254.4461" x2="286.683" y2="92.0661" gradientTransform="matrix(1.0039 0 0 -1.0039 0.1922 516.5609)">
	<stop  offset="0" style="stop-color:#E2EDF2;stop-opacity:0"/>
	<stop  offset="0.352" style="stop-color:#BBC7CF;stop-opacity:0.352"/>
	<stop  offset="1" style="stop-color:#697786"/>
</linearGradient>
<path style="fill:url(#SVGID_11_);" d="M283.777,449.02v62.363c16.116-0.72,32.221-2.056,48.314-4.009v-61.61
	C315.998,447.365,299.893,448.449,283.777,449.02z"/>
<linearGradient id="SVGID_12_" gradientUnits="userSpaceOnUse" x1="134.8589" y1="258.5641" x2="185.1289" y2="96.1841" gradientTransform="matrix(1.0039 0 0 -1.0039 0.1922 516.5609)">
	<stop  offset="0" style="stop-color:#E2EDF2;stop-opacity:0"/>
	<stop  offset="0.352" style="stop-color:#BBC7CF;stop-opacity:0.352"/>
	<stop  offset="1" style="stop-color:#697786"/>
</linearGradient>
<path style="fill:url(#SVGID_12_);" d="M179.907,445.765v61.61c16.093,1.953,32.198,3.289,48.314,4.009v-62.363
	C212.106,448.449,196.001,447.365,179.907,445.765z"/>
<g>
	
		<linearGradient id="SVGCleanerId_0_3_" gradientUnits="userSpaceOnUse" x1="254.9686" y1="36.0233" x2="405.8886" y2="-147.2367" gradientTransform="matrix(1.0039 0 0 -1.0039 0.1922 516.5609)">
		<stop  offset="0" style="stop-color:#E2EDF2;stop-opacity:0"/>
		<stop  offset="0.352" style="stop-color:#BBC7CF;stop-opacity:0.352"/>
		<stop  offset="1" style="stop-color:#697786"/>
	</linearGradient>
	<path id="SVGCleanerId_0" style="fill:url(#SVGCleanerId_0_3_);" d="M228.222,449.02v62.363c18.514,0.822,37.041,0.822,55.556,0
		V449.02C265.263,449.695,246.736,449.695,228.222,449.02z"/>
</g>
<g>
	
		<linearGradient id="SVGCleanerId_0_4_" gradientUnits="userSpaceOnUse" x1="257.0547" y1="33.4901" x2="385.7447" y2="-122.7799" gradientTransform="matrix(1.0039 0 0 -1.0039 0.1922 516.5609)">
		<stop  offset="0" style="stop-color:#E2EDF2;stop-opacity:0"/>
		<stop  offset="0.352" style="stop-color:#BBC7CF;stop-opacity:0.352"/>
		<stop  offset="1" style="stop-color:#697786"/>
	</linearGradient>
	<path id="SVGCleanerId_0_1_" style="fill:url(#SVGCleanerId_0_4_);" d="M228.222,449.02v62.363c18.514,0.822,37.041,0.822,55.556,0
		V449.02C265.263,449.695,246.736,449.695,228.222,449.02z"/>
</g>
<g>
	
		<linearGradient id="SVGCleanerId_0_5_" gradientUnits="userSpaceOnUse" x1="170.9044" y1="248.0065" x2="235.2344" y2="85.6265" gradientTransform="matrix(1.0039 0 0 -1.0039 0.1922 516.5609)">
		<stop  offset="0" style="stop-color:#E2EDF2;stop-opacity:0"/>
		<stop  offset="0.352" style="stop-color:#BBC7CF;stop-opacity:0.352"/>
		<stop  offset="1" style="stop-color:#697786"/>
	</linearGradient>
	<path id="SVGCleanerId_0_2_" style="fill:url(#SVGCleanerId_0_5_);" d="M228.222,449.02v62.363c18.514,0.822,37.041,0.822,55.556,0
		V449.02C265.263,449.695,246.736,449.695,228.222,449.02z"/>
</g>
<g>
</g>
<g>
</g>
<g>
</g>
<g>
</g>
<g>
</g>
<g>
</g>
<g>
</g>
<g>
</g>
<g>
</g>
<g>
</g>
<g>
</g>
<g>
</g>
<g>
</g>
<g>
</g>
<g>
</g>
</svg>
