<svg height="512pt" viewBox="0 0 512 512" width="512pt" xmlns="http://www.w3.org/2000/svg" xmlns:xlink="http://www.w3.org/1999/xlink"><linearGradient id="a"><stop offset="0" stop-color="#8be1e2"/><stop offset=".1873" stop-color="#87e1e1"/><stop offset=".3558" stop-color="#7ce2dd"/><stop offset=".5172" stop-color="#6ae2d7"/><stop offset=".6741" stop-color="#50e4ce"/><stop offset=".8278" stop-color="#2fe5c2"/><stop offset=".9772" stop-color="#07e7b4"/><stop offset="1" stop-color="#00e7b2"/></linearGradient><linearGradient id="b" gradientUnits="userSpaceOnUse" x1="180.3569967128" x2="415.8130476892" xlink:href="#a" y1="62.313940501" y2="297.7698910852"/><linearGradient id="c" gradientUnits="userSpaceOnUse" x1="230.1333569246" x2="465.5893075088" xlink:href="#a" y1="12.5375802892" y2="247.9936312656"/><linearGradient id="d" gradientUnits="userSpaceOnUse" x1="125.2224036104" x2="360.6783541946" xlink:href="#a" y1="117.4485336034" y2="352.9045845798"/><linearGradient id="e" gradientUnits="userSpaceOnUse" x1="91.8310543606" x2="327.287105337" xlink:href="#a" y1="150.8398828532" y2="386.2958334374"/><linearGradient id="f" gradientUnits="userSpaceOnUse" x1="166.2762879174" x2="401.7322385016" xlink:href="#a" y1="76.3946492964" y2="311.8507002728"/><linearGradient id="g" gradientUnits="userSpaceOnUse" x1="14.2593065192" x2="249.7153574956" xlink:href="#a" y1="228.4116306946" y2="463.8675812788"/><linearGradient id="h" gradientUnits="userSpaceOnUse" x1="115.6885579452" x2="351.1445085294" xlink:href="#a" y1="126.9823792686" y2="362.438430245"/><linearGradient id="i" gradientUnits="userSpaceOnUse" x1="37.1344724268" x2="272.590423011" xlink:href="#a" y1="205.536464787" y2="440.9925157634"/><linearGradient id="j" gradientUnits="userSpaceOnUse" x1="113.904488159" x2="349.3605391354" xlink:href="#a" y1="128.7664490548" y2="364.222399639"/><linearGradient id="k" gradientUnits="userSpaceOnUse" x1="-1.5059833922" x2="233.9500675842" xlink:href="#a" y1="244.176920606" y2="479.6328711902"/><linearGradient id="l" gradientUnits="userSpaceOnUse" x1="46.3429469718" x2="281.7989979482" xlink:href="#a" y1="196.327990242" y2="431.7839408262"/><linearGradient id="m"><stop offset="0" stop-color="#45425a"/><stop offset="1" stop-color="#2d3251"/></linearGradient><linearGradient id="n" gradientUnits="userSpaceOnUse" x1="-132.3960286536" x2="224.0717762808" xlink:href="#m" y1="305.7335023502" y2="662.2013072846"/><linearGradient id="o" gradientUnits="userSpaceOnUse" x1="86.6686866522" x2="443.1365919788" xlink:href="#m" y1="86.6686866522" y2="443.1364915866"/><linearGradient id="p" gradientUnits="userSpaceOnUse" x1="86.6687870444" x2="443.1365919788" xlink:href="#m" y1="86.6686866522" y2="443.1364915866"/><linearGradient id="q" gradientUnits="userSpaceOnUse" x1="305.7336027424" x2="662.2014076768" xlink:href="#m" y1="-132.3961290458" y2="224.0716758886"/><path d="m442.402344 156.667969c-4.558594 0-9.128906-1.652344-12.730469-5-48.527344-45.078125-110.203125-69.902344-173.671875-69.902344-63.464844 0-125.140625 24.824219-173.667969 69.902344-7.574219 7.03125-19.410156 6.597656-26.445312-.976563-7.03125-7.570312-6.597657-19.410156.976562-26.441406 55.472657-51.527344 126.195313-79.90625 199.136719-79.90625 72.945312 0 143.667969 28.378906 199.140625 79.90625 7.570313 7.03125 8.007813 18.871094.972656 26.441406-3.683593 3.96875-8.691406 5.976563-13.710937 5.976563zm0 0" fill="url(#b)"/><path d="m450.207031 256.378906c-6.308593 0-12.464843-3.191406-15.988281-8.96875-13.664062-22.394531-30.535156-41.929687-50.140625-58.074218-7.980469-6.566407-9.125-18.359376-2.554687-26.335938 6.566406-7.976562 18.359374-9.121094 26.335937-2.554688 22.84375 18.804688 42.457031 41.503907 58.300781 67.472657 5.382813 8.820312 2.597656 20.335937-6.222656 25.71875-3.042969 1.855469-6.410156 2.742187-9.730469 2.742187zm0 0" fill="url(#c)"/><path d="m61.796875 256.378906c-3.324219 0-6.6875-.886718-9.730469-2.742187-8.820312-5.382813-11.605468-16.898438-6.226562-25.71875 46.945312-76.941407 125.511718-122.875 210.160156-122.875 26.476562 0 52.566406 4.457031 77.546875 13.246093 9.75 3.429688 14.867187 14.113282 11.4375 23.859376-3.429687 9.746093-14.113281 14.871093-23.859375 11.4375-20.976562-7.378907-42.886719-11.125-65.125-11.125-71.496094 0-138.117188 39.234374-178.214844 104.949218-3.523437 5.777344-9.683594 8.96875-15.988281 8.96875zm0 0" fill="url(#d)"/><path d="m61.804688 341.222656c-4.410157 0-8.839844-1.550781-12.398438-4.707031-7.734375-6.851563-8.449219-18.679687-1.597656-26.414063l25.835937-29.15625c7.464844-8.429687 14.714844-17.878906 22.160157-28.886718 37.351562-55.25 97.242187-88.234375 160.195312-88.234375 45.515625 0 90 17.164062 125.253906 48.335937 7.742188 6.847656 8.46875 18.671875 1.625 26.410156-6.847656 7.742188-18.671875 8.46875-26.414062 1.625-28.820313-25.480468-63.558594-38.949218-100.464844-38.949218-51.265625 0-98.355469 26.160156-129.195312 71.773437-8.367188 12.371094-16.59375 23.082031-25.152344 32.742188l-25.835938 29.15625c-3.695312 4.175781-8.839844 6.304687-14.011718 6.304687zm0 0" fill="url(#e)"/><path d="m436.125 399.101562c-10.335938 0-18.710938-8.378906-18.710938-18.710937 0-27.617187-5.511718-54.097656-16.382812-78.703125-4.175781-9.453125.105469-20.5 9.554688-24.675781 9.453124-4.175781 20.503906.101562 24.675781 9.554687 12.988281 29.398438 19.574219 60.964844 19.574219 93.824219 0 10.332031-8.378907 18.710937-18.710938 18.710937zm0 0" fill="url(#f)"/><path d="m61.820312 428.046875c-7.300781 0-14.238281-4.300781-17.25-11.457031-4.011718-9.523438.457032-20.492188 9.980469-24.503906 31.0625-13.082032 55.867188-39.042969 68.054688-71.21875 10.667969-28.175782 28.5625-52.214844 51.746093-69.53125 8.277344-6.179688 20.003907-4.480469 26.1875 3.796874 6.183594 8.28125 4.484376 20.007813-3.796874 26.1875-17.464844 13.042969-31 31.300782-39.140626 52.800782-15.796874 41.714844-48.0625 75.410156-88.527343 92.453125-2.371094.996093-4.832031 1.472656-7.253907 1.472656zm0 0" fill="url(#g)"/><path d="m400.183594 380.390625c0 27.65625-6.632813 54.296875-18.914063 77.625-3.140625 5.972656-9.414062 9.640625-16.164062 9.640625h-.757813c-13.929687 0-22.628906-14.808594-16.148437-27.140625 9.453125-17.984375 14.566406-38.621094 14.566406-60.128906 0-65.597657-47.785156-118.992188-106.570313-119.109375-9.851562-.019532-18.277343-7.71875-18.871093-17.554688-.652344-10.855468 7.960937-19.863281 18.675781-19.863281 79.496094 0 144.183594 70.21875 144.183594 156.53125zm0 0" fill="url(#h)"/><path d="m337.578125 380.390625c0 31.054687-15.90625 59.871094-42.539063 77.074219-3.222656 2.070312-6.320312 4.238281-9.308593 6.472656-3.203125 2.394531-7.074219 3.71875-11.074219 3.71875h-1.121094c-17.636718 0-25.144531-22.429688-11.0625-33.054688 3.914063-2.957031 8-5.824218 12.265625-8.574218 15.921875-10.289063 25.421875-27.335938 25.421875-45.636719 0-27.761719-19.804687-50.34375-44.160156-50.34375-19.34375 0-36.742188 14.753906-42.304688 35.886719-6.503906 24.691406-16.75 46.679687-30.449218 65.359375-7.429688 10.125-16.144532 20.804687-26.015625 30.910156-3.429688 3.511719-8.160157 5.453125-13.070313 5.453125h-1.023437c-16.339844 0-24.488281-19.667969-13.03125-31.320312 9.304687-9.460938 17.132812-19.230469 22.972656-27.1875 10.910156-14.863282 19.132813-32.617188 24.425781-52.761719 9.894532-37.542969 42.175782-63.757813 78.496094-63.757813 44.976562 0 81.578125 39.359375 81.578125 87.761719zm0 0" fill="url(#i)"/><path d="m451.101562 448.453125c-.191406 1.117187-.371093 2.226563-.535156 3.324219-1.355468 9.082031-9.023437 15.878906-18.203125 15.878906h-.679687c-11.171875 0-19.824219-9.890625-18.203125-20.941406.230469-1.550782.480469-3.109375.75-4.679688 1.773437-10.179687 11.460937-16.992187 21.636719-15.21875 10.179687 1.757813 17.007812 11.460938 15.234374 21.636719zm0 0" fill="url(#j)"/><path d="m218.355469 460.039062-.339844.441407c-3.476563 4.523437-8.859375 7.175781-14.566406 7.175781h-.855469c-15.242188 0-23.855469-17.492188-14.5625-29.578125l.648438-.84375c6.308593-8.195313 18.050781-9.726563 26.242187-3.421875 8.191406 6.292969 9.726563 18.035156 3.433594 26.226562zm0 0" fill="url(#k)"/><path d="m233.734375 428.042969c-3.980469 0-7.992187-1.265625-11.390625-3.882813-8.191406-6.296875-9.726562-18.042968-3.429688-26.238281l22.253907-28.9375c6.296875-8.191406 18.042969-9.726563 26.238281-3.429687 8.191406 6.300781 9.726562 18.046874 3.425781 26.238281l-22.25 28.941406c-3.683593 4.792969-9.234375 7.308594-14.847656 7.308594zm0 0" fill="url(#l)"/><path d="m106.117188 512h-92.242188c-7.664062 0-13.875-6.210938-13.875-13.875v-92.242188c0-7.664062 6.210938-13.875 13.875-13.875s13.875 6.210938 13.875 13.875v78.367188h78.367188c7.664062 0 13.875 6.210938 13.875 13.875s-6.210938 13.875-13.875 13.875zm0 0" fill="url(#n)"/><path d="m498.125 512h-92.242188c-7.664062 0-13.875-6.210938-13.875-13.875s6.210938-13.875 13.875-13.875h78.367188v-78.367188c0-7.664062 6.210938-13.875 13.875-13.875s13.875 6.210938 13.875 13.875v92.242188c0 7.664062-6.210938 13.875-13.875 13.875zm0 0" fill="url(#o)"/><path d="m13.875 119.992188c-7.664062 0-13.875-6.210938-13.875-13.875v-92.242188c0-7.664062 6.210938-13.875 13.875-13.875h92.242188c7.664062 0 13.875 6.210938 13.875 13.875s-6.210938 13.875-13.875 13.875h-78.367188v78.367188c0 7.664062-6.210938 13.875-13.875 13.875zm0 0" fill="url(#p)"/><path d="m498.125 119.992188c-7.664062 0-13.875-6.214844-13.875-13.875v-78.367188h-78.367188c-7.664062 0-13.875-6.210938-13.875-13.875s6.210938-13.875 13.875-13.875h92.242188c7.664062 0 13.875 6.210938 13.875 13.875v92.242188c0 7.664062-6.210938 13.875-13.875 13.875zm0 0" fill="url(#q)"/></svg>