<svg height="512pt" viewBox="0 -65 512.00002 512" width="512pt" xmlns="http://www.w3.org/2000/svg" xmlns:xlink="http://www.w3.org/1999/xlink"><linearGradient id="a" gradientUnits="userSpaceOnUse" x1="185.7027809706" x2="483.9298581346" y1="178.272494156" y2="486.5240336666"><stop offset="0" stop-color="#ecf7ff"/><stop offset="1" stop-color="#c2e0ff"/></linearGradient><linearGradient id="b"><stop offset=".0029" stop-color="#c2e0ff" stop-opacity="0"/><stop offset=".0763" stop-color="#bfdcfd" stop-opacity=".07451"/><stop offset="1" stop-color="#9eb2e7"/></linearGradient><linearGradient id="c" gradientUnits="userSpaceOnUse" x1="483.5390313" x2="421.108635847" xlink:href="#b" y1="207.9093759102" y2="145.4789804572"/><radialGradient id="d" cx="376.9759235504" cy="65.6717994984" gradientUnits="userSpaceOnUse" r="159.921260873"><stop offset="0" stop-color="#8be1e2"/><stop offset=".1873" stop-color="#87e1e1"/><stop offset=".3558" stop-color="#7ce2dd"/><stop offset=".5172" stop-color="#6ae2d7"/><stop offset=".6741" stop-color="#50e4ce"/><stop offset=".8278" stop-color="#2fe5c2"/><stop offset=".9772" stop-color="#07e7b4"/><stop offset="1" stop-color="#00e7b2"/></radialGradient><linearGradient id="e" gradientUnits="userSpaceOnUse" x1="487.267095647" x2="423.8144064214" y1="166.3183933332" y2="102.8657041076"><stop offset=".0029" stop-color="#00e7b2" stop-opacity="0"/><stop offset=".4308" stop-color="#1bc4b7" stop-opacity=".427451"/><stop offset="1" stop-color="#3b9abe"/></linearGradient><linearGradient id="f" gradientUnits="userSpaceOnUse" x1="403.6240291184" x2="441.6717693886" y1="82.6753268046" y2="120.7230670748"><stop offset="0" stop-color="#f9f9f9"/><stop offset="1" stop-color="#e6e6e6"/></linearGradient><linearGradient id="g" gradientUnits="userSpaceOnUse" x1="322.0961258516" x2="84.3769335106" xlink:href="#b" y1="417.7768605974" y2="180.0577686486"/><linearGradient id="h" gradientUnits="userSpaceOnUse" x1="234.3213179398" x2="234.3213179398" xlink:href="#b" y1="356.9633819176" y2="389.5427590538"/><linearGradient id="i"><stop offset="0" stop-color="#45425a"/><stop offset="1" stop-color="#2d3251"/></linearGradient><linearGradient id="j" gradientUnits="userSpaceOnUse" x1="247.820153544" x2="427.445391511" xlink:href="#i" y1="215.1151264574" y2="215.1151264574"/><linearGradient id="k" gradientUnits="userSpaceOnUse" x1="247.820153544" x2="427.445391511" xlink:href="#i" y1="262.8175846016" y2="262.8175846016"/><linearGradient id="l" gradientUnits="userSpaceOnUse" x1="247.820153544" x2="394.8881006588" xlink:href="#i" y1="310.520143138" y2="310.520143138"/><linearGradient id="m" gradientUnits="userSpaceOnUse" x1="85.2358891738" x2="198.635504959" y1="158.9602474264" y2="324.658376664"><stop offset="0" stop-color="#ffc738"/><stop offset=".4286" stop-color="#ffbb23"/><stop offset="1" stop-color="#ffa700"/></linearGradient><linearGradient id="n"><stop offset="0" stop-color="#ffa700" stop-opacity="0"/><stop offset=".0206" stop-color="#fea600" stop-opacity=".019608"/><stop offset=".6348" stop-color="#ec8c00" stop-opacity=".635294"/><stop offset="1" stop-color="#e58200"/></linearGradient><linearGradient id="o" gradientUnits="userSpaceOnUse" x1="42.745994838" x2="142.0852814444" xlink:href="#n" y1="228.5252153568" y2="228.5252153568"/><linearGradient id="p" gradientUnits="userSpaceOnUse" x1="58.9640535714" x2="129.6368494288" xlink:href="#n" y1="243.5532249514" y2="314.2260208088"/><linearGradient id="q" gradientTransform="matrix(1.003922 0 0 -1.003922 0 1625.260085)" gradientUnits="userSpaceOnUse" x1="58.7337" x2="129.1304" xlink:href="#n" y1="1406.2483" y2="1476.645"/><linearGradient id="r" gradientUnits="userSpaceOnUse" x1="235.8878378286" x2="147.8226956744" xlink:href="#n" y1="228.5252153568" y2="228.5252153568"/><linearGradient id="s" gradientTransform="matrix(-1.003922 0 0 1.003922 427.507351 -64.674622)" gradientUnits="userSpaceOnUse" x1="211.0244" x2="263.6291" xlink:href="#n" y1="315.9197" y2="368.5244"/><linearGradient id="t" gradientTransform="matrix(-1.003922 0 0 -1.003922 427.507351 1625.260085)" gradientUnits="userSpaceOnUse" x1="211.0244" x2="263.6291" xlink:href="#n" y1="1415.1443" y2="1467.749"/><linearGradient id="u" gradientUnits="userSpaceOnUse" x1="132.8443802188" x2="132.8443802188" xlink:href="#n" y1="291.69760956" y2="321.7303377588"/><path d="m441.074219 382.652344h-413.507813c-15.222656 0-27.566406-12.34375-27.566406-27.570313v-253.117187c0-15.222656 12.34375-27.566406 27.566406-27.566406h413.507813c15.226562 0 27.570312 12.34375 27.570312 27.566406v253.117187c0 15.226563-12.34375 27.570313-27.570312 27.570313zm0 0" fill="url(#a)"/><path d="m467.699219 84.292969v160.164062c0 5.4375-4.417969 9.855469-9.855469 9.855469h-39.730469l-78.914062-78.910156c-19.226563-18.546875-31.1875-44.578125-31.1875-73.40625 0-9.496094 1.300781-18.6875 3.730469-27.410156h147.800781c4.625.804687 8.15625 4.84375 8.15625 9.707031zm0 0" fill="url(#c)"/><path d="m512 101.996094c0 56.328125-45.664062 101.996094-101.996094 101.996094-56.328125 0-101.996094-45.667969-101.996094-101.996094 0-56.332032 45.667969-101.996094 101.996094-101.996094 56.332032 0 101.996094 45.664062 101.996094 101.996094zm0 0" fill="url(#d)"/><path d="m512 101.996094c0-2.84375-.121094-5.660156-.351562-8.445313l-39.28125-39.28125c-4.160157-4.160156-10.90625-4.160156-15.066407 0l-57.015625 57.015625c-4.160156 4.160156-10.90625 4.160156-15.070312 0l-22.503906-22.503906c-4.160157-4.164062-10.90625-4.164062-15.070313 0l-9.996094 9.996094c-4.160156 4.160156-4.160156 10.90625 0 15.070312l88.816407 88.8125c48.503906-7.867187 85.539062-49.9375 85.539062-100.664062zm0 0" fill="url(#e)"/><path d="m383.457031 159.65625c5.132813 5.132812 13.453125 5.132812 18.585938 0l80.324219-80.320312c4.160156-4.160157 4.160156-10.90625 0-15.070313l-9.996094-9.996094c-4.164063-4.160156-10.910156-4.160156-15.070313 0l-57.015625 57.015625c-4.160156 4.160156-10.90625 4.160156-15.070312 0l-22.503906-22.507812c-4.160157-4.160156-10.90625-4.160156-15.066407 0l-10 10c-4.160156 4.160156-4.160156 10.90625 0 15.070312zm0 0" fill="url(#f)"/><path d="m452.921875 379.980469c-.671875-.644531-1.375-1.246094-2.109375-1.8125l-231.488281-231.492188c-4.574219-5.953125-11.765625-9.796875-19.855469-9.796875h-133.25c-13.820312 0-25.023438 11.203125-25.023438 25.023438v133.246094c0 8.089843 3.84375 15.28125 9.800782 19.855468l67.648437 67.648438h322.429688c4.242187 0 8.257812-.960938 11.847656-2.671875zm0 0" fill="url(#g)"/><path d="m0 328.769531v26.3125c0 15.226563 12.34375 27.570313 27.566406 27.570313h413.507813c15.226562 0 27.570312-12.34375 27.570312-27.570313v-26.3125zm0 0" fill="url(#h)"/><path d="m247.820312 205.460938h179.625v19.304687h-179.625zm0 0" fill="url(#j)"/><path d="m247.820312 253.164062h179.625v19.304688h-179.625zm0 0" fill="url(#k)"/><path d="m247.820312 300.867188h147.066407v19.304687h-147.066407zm0 0" fill="url(#l)"/><path d="m199.46875 320.171875h-133.25c-13.820312 0-25.023438-11.203125-25.023438-25.023437v-133.246094c0-13.820313 11.203126-25.023438 25.023438-25.023438h133.25c13.820312 0 25.023438 11.203125 25.023438 25.023438v133.246094c0 13.820312-11.203126 25.023437-25.023438 25.023437zm0 0" fill="url(#m)"/><path d="m41.195312 195.730469h70.078126v65.589843h-70.078126zm0 0" fill="url(#o)"/><path d="m133.1875 308.957031c-2.285156 0-4.140625-1.851562-4.140625-4.140625v-14.84375c0-11.25-9.117187-20.367187-20.367187-20.367187h-67.480469v-8.285157h67.480469c15.824218 0 28.652343 12.824219 28.652343 28.648438v14.84375c0 2.289062-1.855469 4.144531-4.144531 4.144531zm0 0" fill="url(#p)"/><path d="m133.1875 148.09375c-2.285156 0-4.140625 1.851562-4.140625 4.140625v14.84375c0 11.25-9.117187 20.367187-20.367187 20.367187h-67.480469v8.285157h67.480469c15.824218 0 28.652343-12.828125 28.652343-28.652344v-14.84375c0-2.289063-1.855469-4.140625-4.144531-4.140625zm0 0" fill="url(#q)"/><path d="m190.140625 261.320312h34.351563v-65.589843h-34.351563zm0 0" fill="url(#r)"/><path d="m168.222656 308.957031c2.289063 0 4.144532-1.851562 4.144532-4.140625v-14.84375c0-11.25 9.117187-20.367187 20.363281-20.367187h31.761719v-8.285157h-31.761719c-15.824219 0-28.648438 12.824219-28.648438 28.648438v14.84375c0 2.289062 1.851563 4.144531 4.140625 4.144531zm0 0" fill="url(#s)"/><path d="m168.222656 148.09375c2.289063 0 4.144532 1.851562 4.144532 4.140625v14.84375c0 11.25 9.117187 20.367187 20.363281 20.367187h31.761719v8.285157h-31.761719c-15.824219 0-28.648438-12.828125-28.648438-28.652344v-14.84375c0-2.289063 1.851563-4.140625 4.140625-4.140625zm0 0" fill="url(#t)"/><path d="m41.195312 278.75v16.398438c0 13.820312 11.203126 25.023437 25.023438 25.023437h133.25c13.820312 0 25.023438-11.203125 25.023438-25.023437v-16.398438zm0 0" fill="url(#u)"/></svg>