<svg id="Capa_1" enable-background="new 0 0 510 510" height="512" viewBox="0 0 510 510" width="512" xmlns="http://www.w3.org/2000/svg" xmlns:xlink="http://www.w3.org/1999/xlink"><linearGradient id="SVGID_1_" gradientUnits="userSpaceOnUse" x1="255" x2="255" y1="395.833" y2="286.132"><stop offset="0" stop-color="#534854"/><stop offset="1" stop-color="#342434"/></linearGradient><linearGradient id="lg1"><stop offset="0" stop-color="#ff7044"/><stop offset="1" stop-color="#f82814"/></linearGradient><linearGradient id="SVGID_2_" gradientUnits="userSpaceOnUse" x1="59.21" x2="109.346" xlink:href="#lg1" y1="334.412" y2="449.66"/><linearGradient id="lg2"><stop offset="0" stop-color="#f82814" stop-opacity="0"/><stop offset="1" stop-color="#c0272d"/></linearGradient><linearGradient id="SVGID_3_" gradientUnits="userSpaceOnUse" x1="124.705" x2="101.265" xlink:href="#lg2" y1="463.285" y2="391.499"/><linearGradient id="lg3"><stop offset="0" stop-color="#ffd945"/><stop offset=".3043" stop-color="#ffcd3e"/><stop offset=".8558" stop-color="#ffad2b"/><stop offset="1" stop-color="#ffa325"/></linearGradient><linearGradient id="SVGID_4_" gradientUnits="userSpaceOnUse" x1="78.911" x2="88.19" xlink:href="#lg3" y1="418.096" y2="389.284"/><linearGradient id="SVGID_5_" gradientUnits="userSpaceOnUse" x1="73.535" x2="123.671" xlink:href="#lg1" y1="285.578" y2="400.826"/><linearGradient id="SVGID_6_" gradientUnits="userSpaceOnUse" x1="144.07" x2="123.072" xlink:href="#lg2" y1="418.611" y2="360.987"/><linearGradient id="SVGID_7_" gradientUnits="userSpaceOnUse" x1="95.935" x2="97.4" xlink:href="#lg3" y1="378.076" y2="349.997"/><linearGradient id="SVGID_8_" gradientUnits="userSpaceOnUse" x1="87.859" x2="137.996" xlink:href="#lg1" y1="236.744" y2="351.992"/><linearGradient id="SVGID_9_" gradientUnits="userSpaceOnUse" x1="117.859" x2="165.961" xlink:href="#lg3" y1="333.483" y2="289.533"/><linearGradient id="SVGID_10_" gradientTransform="matrix(-1 0 0 1 4854.932 0)" gradientUnits="userSpaceOnUse" x1="4404.142" x2="4454.278" xlink:href="#lg1" y1="334.412" y2="449.66"/><linearGradient id="lg4"><stop offset="0" stop-color="#f82814" stop-opacity="0"/><stop offset=".1294" stop-color="#ec2819" stop-opacity=".129"/><stop offset=".4537" stop-color="#d42724" stop-opacity=".454"/><stop offset=".7526" stop-color="#c5272b" stop-opacity=".753"/><stop offset="1" stop-color="#c0272d"/></linearGradient><linearGradient id="SVGID_11_" gradientUnits="userSpaceOnUse" x1="446.182" x2="426.648" xlink:href="#lg4" y1="452.573" y2="410.332"/><linearGradient id="SVGID_12_" gradientTransform="matrix(-1 0 0 1 4854.932 0)" gradientUnits="userSpaceOnUse" x1="4423.843" x2="4433.121" xlink:href="#lg3" y1="418.096" y2="389.284"/><linearGradient id="SVGID_13_" gradientTransform="matrix(-1 0 0 1 4854.932 0)" gradientUnits="userSpaceOnUse" x1="4418.466" x2="4468.603" xlink:href="#lg1" y1="285.578" y2="400.826"/><linearGradient id="SVGID_14_" gradientUnits="userSpaceOnUse" x1="431.857" x2="412.324" xlink:href="#lg4" y1="403.739" y2="361.498"/><linearGradient id="SVGID_15_" gradientTransform="matrix(-1 0 0 1 4854.932 0)" gradientUnits="userSpaceOnUse" x1="4440.867" x2="4442.332" xlink:href="#lg3" y1="378.076" y2="349.997"/><linearGradient id="SVGID_16_" gradientTransform="matrix(-1 0 0 1 4854.932 0)" gradientUnits="userSpaceOnUse" x1="4432.791" x2="4482.927" xlink:href="#lg1" y1="236.744" y2="351.992"/><linearGradient id="SVGID_17_" gradientTransform="matrix(-1 0 0 1 4854.932 0)" gradientUnits="userSpaceOnUse" x1="4462.791" x2="4510.893" xlink:href="#lg3" y1="333.483" y2="289.533"/><linearGradient id="SVGID_18_" gradientUnits="userSpaceOnUse" x1="224.626" x2="346.632" xlink:href="#lg1" y1="171.726" y2="293.733"/><linearGradient id="SVGID_19_" gradientUnits="userSpaceOnUse" x1="274.279" x2="261.658" xlink:href="#lg4" y1="273.771" y2="184.375"/><linearGradient id="lg5"><stop offset="0" stop-color="#ffd945"/><stop offset="1" stop-color="#ffa325"/></linearGradient><linearGradient id="SVGID_20_" gradientUnits="userSpaceOnUse" x1="392.171" x2="442.071" xlink:href="#lg5" y1="215.464" y2="301.141"/><linearGradient id="SVGID_21_" gradientUnits="userSpaceOnUse" x1="443.208" x2="356.119" xlink:href="#lg5" y1="269.817" y2="202.97"/><linearGradient id="SVGID_22_" gradientTransform="matrix(-1 0 0 1 4982.124 0)" gradientUnits="userSpaceOnUse" x1="4864.294" x2="4914.194" xlink:href="#lg5" y1="215.464" y2="301.141"/><linearGradient id="SVGID_23_" gradientTransform="matrix(-1 0 0 1 4982.124 0)" gradientUnits="userSpaceOnUse" x1="4915.331" x2="4828.242" xlink:href="#lg5" y1="269.817" y2="202.97"/><linearGradient id="SVGID_24_" gradientUnits="userSpaceOnUse" x1="255" x2="255" xlink:href="#lg5" y1="140.617" y2="234.581"/><linearGradient id="lg6"><stop offset="0" stop-color="#ffd945" stop-opacity="0"/><stop offset="1" stop-color="#b43759"/></linearGradient><linearGradient id="SVGID_25_" gradientUnits="userSpaceOnUse" x1="317.382" x2="271.106" xlink:href="#lg6" y1="214.794" y2="190.604"/><linearGradient id="SVGID_26_" gradientUnits="userSpaceOnUse" x1="255" x2="255" xlink:href="#lg6" y1="125.893" y2="217.393"/><linearGradient id="SVGID_27_" gradientUnits="userSpaceOnUse" x1="238.937" x2="294.541" xlink:href="#lg5" y1="166.291" y2="221.895"/><linearGradient id="SVGID_28_" gradientUnits="userSpaceOnUse" x1="259.277" x2="220.424" y1="186.631" y2="147.778"><stop offset="0" stop-color="#ffd945" stop-opacity="0"/><stop offset="1" stop-color="#fbed21"/></linearGradient><linearGradient id="SVGID_29_" gradientUnits="userSpaceOnUse" x1="256.491" x2="315.504" xlink:href="#lg6" y1="198.808" y2="89.052"/><g><path d="m255 410.908c74.416 0 138.911 15.942 170.579 39.224 13.319-26.085 20.833-55.627 20.833-86.925 0-105.714-85.698-191.412-191.412-191.412s-191.412 85.698-191.412 191.412c0 31.298 7.514 60.841 20.833 86.925 31.668-23.282 96.163-39.224 170.579-39.224z" fill="url(#SVGID_1_)"/><g><g><g><path d="m91.992 316.058c29.35-34.389 84.852-4.851 72.489 38.638l-18.042 64.409c-10.048 35.348-24.293 52.672-60.89 49.332l-74.769-8.676c-5.301-.623-8.429-6.249-6.15-11.076 10.053-21.286 37.689-74.426 87.362-132.627z" fill="url(#SVGID_2_)"/><path d="m91.992 316.058c-30.4 35.62-52.532 69.328-67.445 95.015.362-.095.559-.146.559-.146l57.125 57.125 3.32.385c36.597 3.34 50.841-13.984 60.89-49.332l18.042-64.409c12.361-43.489-43.141-73.028-72.491-38.638z" fill="url(#SVGID_3_)"/><path d="m160.993 322.839c1.73 6.7 1.754 14.159-.555 22.09l-18.475 64.409c-10.29 35.348-24.878 52.672-62.355 49.332l-76.568-8.676c-.009-.001-.018-.002-.028-.003-1.626-.192-3.136 1.01-3.004 2.641.288 3.539 3.06 6.673 7.032 7.128l76.568 8.676c41.254 3.169 52.541-13.984 62.831-49.332l17.999-64.409c3.508-12.046 1.667-23.013-3.445-31.856z" fill="url(#SVGID_4_)"/></g><g><path d="m106.317 267.224c29.35-34.389 84.852-4.851 72.489 38.638l-18.042 64.409c-10.048 35.348-24.293 52.672-60.89 49.332l-74.769-8.676c-5.301-.623-8.429-6.249-6.15-11.076 10.053-21.286 37.688-74.426 87.362-132.627z" fill="url(#SVGID_5_)"/><path d="m106.316 267.224c-30.4 35.62-52.532 69.328-67.445 95.015.362-.095.559-.146.559-.146l57.125 57.125 3.32.385c36.597 3.34 50.841-13.984 60.89-49.332l18.042-64.409c12.361-43.489-43.14-73.027-72.491-38.638z" fill="url(#SVGID_6_)"/><path d="m175.317 274.005c1.73 6.7 1.754 14.159-.555 22.09l-18.475 64.409c-10.29 35.348-24.878 52.672-62.355 49.332l-76.568-8.676c-.009-.001-.018-.002-.028-.003-1.626-.192-3.136 1.01-3.004 2.641.288 3.539 3.06 6.673 7.032 7.129l76.568 8.676c41.254 3.169 52.541-13.984 62.831-49.332l17.999-64.409c3.508-12.047 1.667-23.014-3.445-31.857z" fill="url(#SVGID_7_)"/></g><g><path d="m120.641 218.39c29.35-34.389 84.852-4.851 72.489 38.638l-18.042 64.409c-10.048 35.348-24.293 52.672-60.89 49.332l-74.769-8.676c-5.301-.623-8.429-6.249-6.15-11.076 10.054-21.286 37.689-74.426 87.362-132.627z" fill="url(#SVGID_8_)"/><path d="m189.642 225.171c1.73 6.7 1.754 14.158-.555 22.09l-18.475 64.409c-10.29 35.348-24.878 52.672-62.355 49.332l-76.568-8.676c-.009-.001-.018-.002-.028-.003-1.626-.192-3.136 1.01-3.004 2.642.288 3.539 3.06 6.673 7.032 7.129l76.568 8.676c41.254 3.169 52.541-13.984 62.831-49.332l17.999-64.409c3.508-12.048 1.667-23.015-3.445-31.858z" fill="url(#SVGID_9_)"/></g></g><g><g><path d="m418.008 316.058c-29.35-34.389-84.852-4.851-72.489 38.638l18.042 64.409c10.048 35.348 24.293 52.672 60.89 49.332l74.769-8.676c5.301-.623 8.429-6.249 6.15-11.076-10.053-21.286-37.689-74.426-87.362-132.627z" fill="url(#SVGID_10_)"/><path d="m418.008 316.058c-29.35-34.389-84.852-4.851-72.489 38.638l8.103 28.928c3.974 10.478 8.729 18.806 15.028 24.811.463.484.934.956 1.414 1.414l58.152 58.152 71.004-8.239c5.301-.623 8.429-6.249 6.149-11.076-10.052-21.287-37.688-74.427-87.361-132.628z" fill="url(#SVGID_11_)"/><path d="m349.007 322.839c-1.73 6.7-1.754 14.159.555 22.09l18.475 64.409c10.29 35.348 24.877 52.672 62.355 49.332l76.568-8.676c.009-.001.018-.002.028-.003 1.626-.192 3.136 1.01 3.004 2.641-.288 3.539-3.06 6.673-7.032 7.128l-76.568 8.676c-41.254 3.169-52.541-13.984-62.831-49.332l-17.999-64.409c-3.508-12.046-1.667-23.013 3.445-31.856z" fill="url(#SVGID_12_)"/></g><g><path d="m403.683 267.224c-29.35-34.389-84.852-4.851-72.489 38.638l18.042 64.409c10.048 35.348 24.293 52.672 60.89 49.332l74.769-8.676c5.301-.623 8.429-6.249 6.15-11.076-10.053-21.286-37.688-74.426-87.362-132.627z" fill="url(#SVGID_13_)"/><path d="m403.684 267.224c-29.35-34.389-84.852-4.851-72.489 38.637l8.103 28.928c3.974 10.478 8.729 18.806 15.028 24.811.463.484.934.956 1.414 1.414l58.152 58.152 71.004-8.239c5.301-.623 8.429-6.249 6.149-11.076-10.053-21.286-37.688-74.426-87.361-132.627z" fill="url(#SVGID_14_)"/><path d="m334.683 274.005c-1.73 6.7-1.754 14.159.555 22.09l18.476 64.409c10.29 35.348 24.877 52.672 62.355 49.332l76.568-8.676.027-.003c1.626-.192 3.136 1.01 3.004 2.641-.288 3.539-3.06 6.673-7.032 7.129l-76.568 8.676c-41.254 3.169-52.541-13.984-62.831-49.332l-17.999-64.409c-3.508-12.047-1.667-23.014 3.445-31.857z" fill="url(#SVGID_15_)"/></g><g><path d="m389.359 218.39c-29.35-34.389-84.852-4.851-72.489 38.638l18.042 64.409c10.048 35.348 24.293 52.672 60.89 49.332l74.769-8.676c5.301-.623 8.429-6.249 6.15-11.076-10.053-21.286-37.689-74.426-87.362-132.627z" fill="url(#SVGID_16_)"/><path d="m320.358 225.171c-1.73 6.7-1.754 14.158.555 22.09l18.475 64.409c10.29 35.348 24.878 52.672 62.355 49.332l76.568-8.676c.009-.001.018-.002.028-.003 1.626-.192 3.136 1.01 3.004 2.642-.288 3.539-3.06 6.673-7.032 7.129l-76.568 8.676c-41.254 3.169-52.541-13.984-62.831-49.332l-17.999-64.409c-3.508-12.048-1.667-23.015 3.445-31.858z" fill="url(#SVGID_17_)"/></g></g></g><path d="m386.524 223.061c0 72.639-263.047 72.639-263.047 0s58.885-131.524 131.523-131.524 131.524 58.885 131.524 131.524z" fill="url(#SVGID_18_)"/><path d="m386.528 223.061c0 36.799-67.52 54.952-134.146 54.468l-93.014-93.014-20.603-20.603-.841-.841c.021-.042.042-.074.063-.116 8.182-15.891 19.499-29.9 33.14-41.206 23.969 16.123 52.817 25.525 83.874 25.525s59.906-9.402 83.874-25.525c13.641 11.295 24.968 25.315 33.14 41.206 9.275 18.017 14.513 38.451 14.513 60.106z" fill="url(#SVGID_19_)"/><g><g><path d="m461.986 155.029c-.321-3.525-4.706-4.512-7.205-1.616-47.438 54.98-103.483 71.931-129.546 77.037-7.74 1.516-13.053 9.615-11.14 16.849 31.207 117.992 87.309 58.981 122.357 14.035 28.419-36.446 27.368-86.2 25.534-106.305z" fill="url(#SVGID_20_)"/><path d="m450.19 181.904c-.27-2.568-3.953-3.288-6.052-1.177-39.85 40.061-86.93 52.413-108.825 56.133-6.502 1.105-10.965 7.006-9.358 12.277 26.215 85.975 73.344 42.977 102.785 10.227 23.874-26.557 22.991-62.81 21.45-77.46z" fill="url(#SVGID_21_)"/></g><g><path d="m48.015 155.029c.321-3.525 4.706-4.512 7.205-1.616 47.438 54.98 103.483 71.931 129.546 77.037 7.74 1.516 13.053 9.615 11.14 16.849-31.207 117.992-87.309 58.981-122.357 14.035-28.42-36.446-27.369-86.2-25.534-106.305z" fill="url(#SVGID_22_)"/><path d="m59.81 181.904c.27-2.568 3.953-3.288 6.052-1.177 39.85 40.061 86.93 52.413 108.825 56.133 6.502 1.105 10.965 7.006 9.358 12.277-26.215 85.975-73.343 42.977-102.785 10.227-23.874-26.557-22.991-62.81-21.45-77.46z" fill="url(#SVGID_23_)"/></g></g><path d="m255 147.276c-66.99 0-123.749-43.768-143.263-104.266-.857-2.656-4.713-2.388-5.175.365-1.359 8.1-2.076 16.417-2.076 24.903 0 83.127 67.387 150.514 150.514 150.514s150.514-67.387 150.514-150.514c0-8.487-.716-16.803-2.076-24.903-.462-2.753-4.319-3.021-5.175-.365-19.514 60.498-76.273 104.266-143.263 104.266z" fill="url(#SVGID_24_)"/><path d="m331.342 198.011-45.347-45.346c-2.594-2.707-5.544-5.067-8.765-7.024-7.254 1.074-14.676 1.636-22.23 1.636-7.564 0-14.996-.563-22.26-1.64-12.394 7.53-20.672 21.157-20.672 36.718 0 12.188 5.087 23.181 13.243 30.995l3.102 3.102c8.63 1.538 17.515 2.342 26.588 2.342 27.866-.001 53.957-7.583 76.341-20.783z" fill="url(#SVGID_25_)"/><path d="m403.438 43.376c-.462-2.753-4.319-3.021-5.175-.365-19.514 60.497-76.273 104.265-143.263 104.265s-123.748-43.768-143.263-104.265c-.857-2.656-4.713-2.388-5.175.365-.088.522-.165 1.047-.247 1.571 8.695 72.933 49.625 141.946 148.686 141.946 99.06 0 139.991-69.014 148.686-141.946-.084-.524-.161-1.05-.249-1.571z" fill="url(#SVGID_26_)"/><g><circle cx="255" cy="182.354" fill="url(#SVGID_27_)" r="42.933"/><circle cx="255" cy="182.354" fill="url(#SVGID_28_)" r="35.831"/><path d="m274.205 143.949c2.896 5.779 4.528 12.301 4.528 19.205 0 23.711-19.222 42.933-42.933 42.933-6.904 0-13.426-1.632-19.205-4.528 7.049 14.068 21.598 23.728 38.405 23.728 23.711 0 42.933-19.222 42.933-42.933 0-16.807-9.659-31.356-23.728-38.405z" fill="url(#SVGID_29_)"/></g></g></svg>