<svg id="Capa_1" enable-background="new 0 0 510 510" height="512" viewBox="0 0 510 510" width="512" xmlns="http://www.w3.org/2000/svg" xmlns:xlink="http://www.w3.org/1999/xlink"><linearGradient id="lg1"><stop offset="0" stop-color="#534854"/><stop offset="1" stop-color="#342434"/></linearGradient><linearGradient id="SVGID_1_" gradientUnits="userSpaceOnUse" x1="67.793" x2="176.54" xlink:href="#lg1" y1="209.769" y2="209.769"/><linearGradient id="lg2"><stop offset="0" stop-color="#f8f6fb"/><stop offset="1" stop-color="#efdcfb"/></linearGradient><linearGradient id="SVGID_2_" gradientTransform="matrix(0 1 1 0 1160.16 -1004.16)" gradientUnits="userSpaceOnUse" x1="1066.849" x2="1234.265" xlink:href="#lg2" y1="-1071.719" y2="-984.307"/><linearGradient id="SVGID_3_" gradientTransform="matrix(0 -1 -1 0 1661.974 1505.974)" gradientUnits="userSpaceOnUse" x1="1321.649" x2="1439.075" xlink:href="#lg2" y1="1507.078" y2="1568.389"/><linearGradient id="lg3"><stop offset="0" stop-color="#91f27f"/><stop offset="1" stop-color="#4ab172"/></linearGradient><linearGradient id="SVGID_4_" gradientUnits="userSpaceOnUse" x1="114.995" x2="157.219" xlink:href="#lg3" y1="100.921" y2="205.371"/><linearGradient id="lg4"><stop offset="0" stop-color="#ffd945"/><stop offset=".3043" stop-color="#ffcd3e"/><stop offset=".8558" stop-color="#ffad2b"/><stop offset="1" stop-color="#ffa325"/></linearGradient><linearGradient id="SVGID_5_" gradientUnits="userSpaceOnUse" x1="83.707" x2="100.936" xlink:href="#lg4" y1="100.093" y2="142.712"/><linearGradient id="lg5"><stop offset="0" stop-color="#efdcfb" stop-opacity="0"/><stop offset=".2889" stop-color="#c7b6df" stop-opacity=".289"/><stop offset=".5915" stop-color="#a495c7" stop-opacity=".592"/><stop offset=".8395" stop-color="#8e80b7" stop-opacity=".84"/><stop offset="1" stop-color="#8679b2"/></linearGradient><linearGradient id="SVGID_6_" gradientUnits="userSpaceOnUse" x1="135.309" x2="121.419" xlink:href="#lg5" y1="133.435" y2="85.099"/><linearGradient id="lg6"><stop offset="0" stop-color="#4ab172" stop-opacity="0"/><stop offset="1" stop-color="#009145"/></linearGradient><linearGradient id="SVGID_7_" gradientUnits="userSpaceOnUse" x1="159.676" x2="134.489" xlink:href="#lg6" y1="178.227" y2="126.743"/><linearGradient id="lg7"><stop offset="0" stop-color="#ff7044"/><stop offset="1" stop-color="#f82814"/></linearGradient><linearGradient id="SVGID_8_" gradientTransform="matrix(0 1 1 0 1041.568 -1076.727)" gradientUnits="userSpaceOnUse" x1="1172.027" x2="1185.064" xlink:href="#lg7" y1="-976.301" y2="-963.264"/><linearGradient id="lg8"><stop offset="0" stop-color="#f82814" stop-opacity="0"/><stop offset="1" stop-color="#c0272d"/></linearGradient><linearGradient id="SVGID_9_" gradientTransform="matrix(0 1 1 0 1041.568 -1076.727)" gradientUnits="userSpaceOnUse" x1="1181.271" x2="1200.044" xlink:href="#lg8" y1="-969.715" y2="-976.494"/><linearGradient id="SVGID_10_" gradientTransform="matrix(0 1 1 0 1048.068 -1099.227)" gradientUnits="userSpaceOnUse" x1="1186.649" x2="1199.686" xlink:href="#lg7" y1="-965.876" y2="-952.839"/><linearGradient id="SVGID_11_" gradientTransform="matrix(0 1 1 0 1048.068 -1099.227)" gradientUnits="userSpaceOnUse" x1="1195.892" x2="1214.665" xlink:href="#lg8" y1="-959.291" y2="-966.07"/><linearGradient id="SVGID_12_" gradientTransform="matrix(0 1 1 0 1064.723 -1113.73)" gradientUnits="userSpaceOnUse" x1="1196.425" x2="1209.463" xlink:href="#lg7" y1="-964.347" y2="-951.31"/><linearGradient id="SVGID_13_" gradientTransform="matrix(0 1 1 0 1064.723 -1113.73)" gradientUnits="userSpaceOnUse" x1="1205.669" x2="1224.442" xlink:href="#lg8" y1="-957.762" y2="-964.541"/><linearGradient id="SVGID_14_" gradientTransform="matrix(0 1 1 0 1081.723 -1127.73)" gradientUnits="userSpaceOnUse" x1="1210.717" x2="1223.754" xlink:href="#lg7" y1="-963.255" y2="-950.218"/><linearGradient id="SVGID_15_" gradientTransform="matrix(0 1 1 0 1081.723 -1127.73)" gradientUnits="userSpaceOnUse" x1="1219.961" x2="1238.734" xlink:href="#lg8" y1="-956.67" y2="-963.449"/><linearGradient id="SVGID_16_" gradientTransform="matrix(0 1 1 0 1093.723 -1148.73)" gradientUnits="userSpaceOnUse" x1="1230.404" x2="1243.441" xlink:href="#lg7" y1="-955.997" y2="-942.959"/><linearGradient id="SVGID_17_" gradientTransform="matrix(0 1 1 0 1093.723 -1148.73)" gradientUnits="userSpaceOnUse" x1="1239.648" x2="1258.42" xlink:href="#lg8" y1="-949.411" y2="-956.19"/><linearGradient id="SVGID_18_" gradientTransform="matrix(0 1 1 0 1112.723 -1162.73)" gradientUnits="userSpaceOnUse" x1="1247.322" x2="1260.359" xlink:href="#lg7" y1="-955.737" y2="-942.7"/><linearGradient id="SVGID_19_" gradientTransform="matrix(0 1 1 0 1112.723 -1162.73)" gradientUnits="userSpaceOnUse" x1="1256.566" x2="1275.338" xlink:href="#lg8" y1="-949.152" y2="-955.931"/><linearGradient id="SVGID_20_" gradientTransform="matrix(0 1 1 0 1136.723 -1165.73)" gradientUnits="userSpaceOnUse" x1="1262.578" x2="1275.615" xlink:href="#lg7" y1="-963.98" y2="-950.943"/><linearGradient id="SVGID_21_" gradientTransform="matrix(0 1 1 0 1136.723 -1165.73)" gradientUnits="userSpaceOnUse" x1="1271.821" x2="1290.594" xlink:href="#lg8" y1="-957.395" y2="-964.174"/><linearGradient id="SVGID_22_" gradientTransform="matrix(0 1 1 0 1127.223 -1149.23)" gradientUnits="userSpaceOnUse" x1="1250.163" x2="1263.2" xlink:href="#lg7" y1="-969.654" y2="-956.617"/><linearGradient id="SVGID_23_" gradientTransform="matrix(0 1 1 0 1127.223 -1149.23)" gradientUnits="userSpaceOnUse" x1="1259.407" x2="1278.179" xlink:href="#lg8" y1="-963.069" y2="-969.848"/><linearGradient id="SVGID_24_" gradientTransform="matrix(0 1 1 0 1111.723 -1141.73)" gradientUnits="userSpaceOnUse" x1="1237.994" x2="1251.031" xlink:href="#lg7" y1="-967.577" y2="-954.54"/><linearGradient id="SVGID_25_" gradientTransform="matrix(0 1 1 0 1111.723 -1141.73)" gradientUnits="userSpaceOnUse" x1="1247.238" x2="1266.011" xlink:href="#lg8" y1="-960.991" y2="-967.77"/><linearGradient id="SVGID_26_" gradientTransform="matrix(0 1 1 0 1100.723 -1128.73)" gradientUnits="userSpaceOnUse" x1="1226.161" x2="1239.199" xlink:href="#lg7" y1="-970.583" y2="-957.546"/><linearGradient id="SVGID_27_" gradientTransform="matrix(0 1 1 0 1100.723 -1128.73)" gradientUnits="userSpaceOnUse" x1="1235.405" x2="1254.178" xlink:href="#lg8" y1="-963.998" y2="-970.777"/><linearGradient id="SVGID_28_" gradientTransform="matrix(0 1 1 0 1084.223 -1112.23)" gradientUnits="userSpaceOnUse" x1="1209.661" x2="1222.699" xlink:href="#lg7" y1="-973.342" y2="-960.305"/><linearGradient id="SVGID_29_" gradientTransform="matrix(0 1 1 0 1084.223 -1112.23)" gradientUnits="userSpaceOnUse" x1="1218.905" x2="1237.678" xlink:href="#lg8" y1="-966.757" y2="-973.536"/><linearGradient id="SVGID_30_" gradientTransform="matrix(0 1 1 0 1070.723 -1098.73)" gradientUnits="userSpaceOnUse" x1="1196.161" x2="1209.199" xlink:href="#lg7" y1="-975.6" y2="-962.563"/><linearGradient id="SVGID_31_" gradientTransform="matrix(0 1 1 0 1070.723 -1098.73)" gradientUnits="userSpaceOnUse" x1="1205.405" x2="1224.178" xlink:href="#lg8" y1="-969.014" y2="-975.793"/><linearGradient id="SVGID_32_" gradientTransform="matrix(0 1 1 0 1060.223 -1082.23)" gradientUnits="userSpaceOnUse" x1="1183.163" x2="1196.2" xlink:href="#lg7" y1="-980.857" y2="-967.82"/><linearGradient id="SVGID_33_" gradientTransform="matrix(0 1 1 0 1060.223 -1082.23)" gradientUnits="userSpaceOnUse" x1="1192.407" x2="1211.179" xlink:href="#lg8" y1="-974.272" y2="-981.051"/><linearGradient id="SVGID_34_" gradientTransform="matrix(0 1 1 0 1083.223 -1082.23)" gradientUnits="userSpaceOnUse" x1="1196.586" x2="1209.623" xlink:href="#lg7" y1="-990.434" y2="-977.397"/><linearGradient id="SVGID_35_" gradientTransform="matrix(0 1 1 0 1083.223 -1082.23)" gradientUnits="userSpaceOnUse" x1="1205.83" x2="1224.602" xlink:href="#lg8" y1="-983.849" y2="-990.628"/><linearGradient id="SVGID_36_" gradientTransform="matrix(0 1 1 0 1095.223 -1099.23)" gradientUnits="userSpaceOnUse" x1="1210.668" x2="1223.705" xlink:href="#lg7" y1="-985.51" y2="-972.472"/><linearGradient id="SVGID_37_" gradientTransform="matrix(0 1 1 0 1095.223 -1099.23)" gradientUnits="userSpaceOnUse" x1="1219.912" x2="1238.684" xlink:href="#lg8" y1="-978.924" y2="-985.703"/><linearGradient id="SVGID_38_" gradientTransform="matrix(0 1 1 0 1105.723 -1111.73)" gradientUnits="userSpaceOnUse" x1="1222.001" x2="1235.038" xlink:href="#lg7" y1="-982.587" y2="-969.549"/><linearGradient id="SVGID_39_" gradientTransform="matrix(0 1 1 0 1105.723 -1111.73)" gradientUnits="userSpaceOnUse" x1="1231.244" x2="1250.017" xlink:href="#lg8" y1="-976.001" y2="-982.78"/><linearGradient id="SVGID_40_" gradientTransform="matrix(0 1 1 0 1125.223 -1126.23)" gradientUnits="userSpaceOnUse" x1="1239.419" x2="1252.456" xlink:href="#lg7" y1="-982.244" y2="-969.207"/><linearGradient id="SVGID_41_" gradientTransform="matrix(0 1 1 0 1125.223 -1126.23)" gradientUnits="userSpaceOnUse" x1="1248.663" x2="1267.435" xlink:href="#lg8" y1="-975.659" y2="-982.438"/><linearGradient id="SVGID_42_" gradientTransform="matrix(0 1 1 0 1146.223 -1145.23)" gradientUnits="userSpaceOnUse" x1="1259.586" x2="1272.623" xlink:href="#lg7" y1="-979.9" y2="-966.863"/><linearGradient id="SVGID_43_" gradientTransform="matrix(0 1 1 0 1146.223 -1145.23)" gradientUnits="userSpaceOnUse" x1="1268.83" x2="1287.602" xlink:href="#lg8" y1="-973.314" y2="-980.093"/><linearGradient id="SVGID_44_" gradientTransform="matrix(0 1 1 0 1139.723 -1128.73)" gradientUnits="userSpaceOnUse" x1="1248.922" x2="1261.959" xlink:href="#lg7" y1="-986.823" y2="-973.786"/><linearGradient id="SVGID_45_" gradientTransform="matrix(0 1 1 0 1139.723 -1128.73)" gradientUnits="userSpaceOnUse" x1="1258.166" x2="1276.938" xlink:href="#lg8" y1="-980.237" y2="-987.016"/><linearGradient id="SVGID_46_" gradientTransform="matrix(0 1 1 0 1059.723 -1064.73)" gradientUnits="userSpaceOnUse" x1="1175.584" x2="1188.622" xlink:href="#lg7" y1="-990.862" y2="-977.825"/><linearGradient id="SVGID_47_" gradientTransform="matrix(0 1 1 0 1059.723 -1064.73)" gradientUnits="userSpaceOnUse" x1="1184.828" x2="1203.601" xlink:href="#lg8" y1="-984.277" y2="-991.056"/><linearGradient id="SVGID_48_" gradientTransform="matrix(0 1 1 0 1079.223 -1065.23)" gradientUnits="userSpaceOnUse" x1="1187.173" x2="1200.21" xlink:href="#lg7" y1="-998.69" y2="-985.653"/><linearGradient id="SVGID_49_" gradientTransform="matrix(0 1 1 0 1079.223 -1065.23)" gradientUnits="userSpaceOnUse" x1="1196.417" x2="1215.189" xlink:href="#lg8" y1="-992.105" y2="-998.884"/><linearGradient id="SVGID_50_" gradientTransform="matrix(0 1 1 0 1103.223 -1080.23)" gradientUnits="userSpaceOnUse" x1="1207.425" x2="1220.462" xlink:href="#lg7" y1="-999.929" y2="-986.892"/><linearGradient id="SVGID_51_" gradientTransform="matrix(0 1 1 0 1103.223 -1080.23)" gradientUnits="userSpaceOnUse" x1="1216.669" x2="1235.442" xlink:href="#lg8" y1="-993.344" y2="-1000.123"/><linearGradient id="SVGID_52_" gradientTransform="matrix(0 1 1 0 1115.723 -1096.73)" gradientUnits="userSpaceOnUse" x1="1221.591" x2="1234.628" xlink:href="#lg7" y1="-995.505" y2="-982.468"/><linearGradient id="SVGID_53_" gradientTransform="matrix(0 1 1 0 1115.723 -1096.73)" gradientUnits="userSpaceOnUse" x1="1230.835" x2="1249.607" xlink:href="#lg8" y1="-988.919" y2="-995.698"/><linearGradient id="SVGID_54_" gradientTransform="matrix(0 1 1 0 1129.723 -1110.73)" gradientUnits="userSpaceOnUse" x1="1235.591" x2="1248.628" xlink:href="#lg7" y1="-993.164" y2="-980.127"/><linearGradient id="SVGID_55_" gradientTransform="matrix(0 1 1 0 1129.723 -1110.73)" gradientUnits="userSpaceOnUse" x1="1244.835" x2="1263.607" xlink:href="#lg8" y1="-986.578" y2="-993.357"/><linearGradient id="SVGID_56_" gradientTransform="matrix(0 1 1 0 1098.723 -1066.73)" gradientUnits="userSpaceOnUse" x1="1199.178" x2="1212.215" xlink:href="#lg7" y1="-1005.934" y2="-992.897"/><linearGradient id="SVGID_57_" gradientTransform="matrix(0 1 1 0 1098.723 -1066.73)" gradientUnits="userSpaceOnUse" x1="1208.422" x2="1227.194" xlink:href="#lg8" y1="-999.349" y2="-1006.128"/><linearGradient id="SVGID_58_" gradientTransform="matrix(0 1 1 0 1121.723 -1074.73)" gradientUnits="userSpaceOnUse" x1="1215.932" x2="1228.969" xlink:href="#lg7" y1="-1010.842" y2="-997.805"/><linearGradient id="SVGID_59_" gradientTransform="matrix(0 1 1 0 1121.723 -1074.73)" gradientUnits="userSpaceOnUse" x1="1225.176" x2="1243.948" xlink:href="#lg8" y1="-1004.257" y2="-1011.036"/><linearGradient id="SVGID_60_" gradientTransform="matrix(0 1 1 0 1137.098 -1091.605)" gradientUnits="userSpaceOnUse" x1="1231.931" x2="1244.969" xlink:href="#lg7" y1="-1007.396" y2="-994.359"/><linearGradient id="SVGID_61_" gradientTransform="matrix(0 1 1 0 1137.098 -1091.605)" gradientUnits="userSpaceOnUse" x1="1241.175" x2="1259.948" xlink:href="#lg8" y1="-1000.811" y2="-1007.59"/><linearGradient id="SVGID_62_" gradientTransform="matrix(0 1 1 0 1151.473 -1111.23)" gradientUnits="userSpaceOnUse" x1="1248.492" x2="1261.53" xlink:href="#lg7" y1="-1001.928" y2="-988.891"/><linearGradient id="SVGID_63_" gradientTransform="matrix(0 1 1 0 1151.473 -1111.23)" gradientUnits="userSpaceOnUse" x1="1257.736" x2="1276.509" xlink:href="#lg8" y1="-995.343" y2="-1002.122"/><linearGradient id="SVGID_64_" gradientTransform="matrix(0 1 1 0 1159.723 -1129.73)" gradientUnits="userSpaceOnUse" x1="1261.011" x2="1274.048" xlink:href="#lg7" y1="-994.567" y2="-981.53"/><linearGradient id="SVGID_65_" gradientTransform="matrix(0 1 1 0 1159.723 -1129.73)" gradientUnits="userSpaceOnUse" x1="1270.254" x2="1289.027" xlink:href="#lg8" y1="-987.982" y2="-994.761"/><linearGradient id="SVGID_66_" gradientTransform="matrix(0 1 1 0 1159.723 -1129.73)" gradientUnits="userSpaceOnUse" x1="1250.214" x2="1263.251" xlink:href="#lg7" y1="-978.956" y2="-965.918"/><linearGradient id="SVGID_67_" gradientTransform="matrix(0 1 1 0 1159.723 -1129.73)" gradientUnits="userSpaceOnUse" x1="1259.458" x2="1278.23" xlink:href="#lg8" y1="-972.37" y2="-979.149"/><linearGradient id="SVGID_68_" gradientTransform="matrix(0 1 1 0 1071.723 -1046.73)" gradientUnits="userSpaceOnUse" x1="1175.093" x2="1188.13" xlink:href="#lg7" y1="-1006.364" y2="-993.326"/><linearGradient id="SVGID_69_" gradientTransform="matrix(0 1 1 0 1071.723 -1046.73)" gradientUnits="userSpaceOnUse" x1="1184.336" x2="1203.109" xlink:href="#lg8" y1="-999.778" y2="-1006.557"/><linearGradient id="SVGID_70_" gradientTransform="matrix(0 1 1 0 1092.723 -1045.73)" gradientUnits="userSpaceOnUse" x1="1186.932" x2="1199.969" xlink:href="#lg7" y1="-1015.692" y2="-1002.654"/><linearGradient id="SVGID_71_" gradientTransform="matrix(0 1 1 0 1092.723 -1045.73)" gradientUnits="userSpaceOnUse" x1="1196.176" x2="1214.948" xlink:href="#lg8" y1="-1009.106" y2="-1015.885"/><linearGradient id="SVGID_72_" gradientTransform="matrix(0 1 1 0 1112.723 -1055.73)" gradientUnits="userSpaceOnUse" x1="1202.768" x2="1215.805" xlink:href="#lg7" y1="-1018.183" y2="-1005.146"/><linearGradient id="SVGID_73_" gradientTransform="matrix(0 1 1 0 1112.723 -1055.73)" gradientUnits="userSpaceOnUse" x1="1212.012" x2="1230.784" xlink:href="#lg8" y1="-1011.598" y2="-1018.377"/><linearGradient id="SVGID_74_" gradientTransform="matrix(0 1 1 0 1135.223 -1069.23)" gradientUnits="userSpaceOnUse" x1="1221.52" x2="1234.558" xlink:href="#lg7" y1="-1019.674" y2="-1006.636"/><linearGradient id="SVGID_75_" gradientTransform="matrix(0 1 1 0 1135.223 -1069.23)" gradientUnits="userSpaceOnUse" x1="1230.764" x2="1249.537" xlink:href="#lg8" y1="-1013.088" y2="-1019.867"/><linearGradient id="SVGID_76_" gradientTransform="matrix(0 1 1 0 1158.973 -1094.23)" gradientUnits="userSpaceOnUse" x1="1246.812" x2="1259.849" xlink:href="#lg7" y1="-1021.976" y2="-1008.939"/><linearGradient id="SVGID_77_" gradientTransform="matrix(0 1 1 0 1158.973 -1094.23)" gradientUnits="userSpaceOnUse" x1="1256.056" x2="1274.829" xlink:href="#lg8" y1="-1015.391" y2="-1022.17"/><linearGradient id="SVGID_78_" gradientTransform="matrix(0 1 1 0 1158.973 -1094.23)" gradientUnits="userSpaceOnUse" x1="1242.289" x2="1255.326" xlink:href="#lg7" y1="-1002.133" y2="-989.096"/><linearGradient id="SVGID_79_" gradientTransform="matrix(0 1 1 0 1158.973 -1094.23)" gradientUnits="userSpaceOnUse" x1="1251.533" x2="1270.306" xlink:href="#lg8" y1="-995.548" y2="-1002.327"/><linearGradient id="SVGID_80_" gradientTransform="matrix(0 1 1 0 1158.973 -1094.23)" gradientUnits="userSpaceOnUse" x1="1233.389" x2="1246.426" xlink:href="#lg7" y1="-982.874" y2="-969.837"/><linearGradient id="SVGID_81_" gradientTransform="matrix(0 1 1 0 1158.973 -1094.23)" gradientUnits="userSpaceOnUse" x1="1242.633" x2="1261.406" xlink:href="#lg8" y1="-976.289" y2="-983.068"/><linearGradient id="SVGID_82_" gradientUnits="userSpaceOnUse" x1="322.793" x2="431.54" xlink:href="#lg1" y1="209.769" y2="209.769"/><linearGradient id="SVGID_83_" gradientTransform="matrix(0 1 1 0 1160.16 -1004.16)" gradientUnits="userSpaceOnUse" x1="1066.849" x2="1234.265" xlink:href="#lg2" y1="-816.719" y2="-729.307"/><linearGradient id="SVGID_84_" gradientTransform="matrix(0 -1 -1 0 1661.974 1505.974)" gradientUnits="userSpaceOnUse" x1="1321.649" x2="1439.075" xlink:href="#lg2" y1="1252.078" y2="1313.389"/><linearGradient id="SVGID_85_" gradientUnits="userSpaceOnUse" x1="369.995" x2="412.219" xlink:href="#lg3" y1="100.921" y2="205.371"/><linearGradient id="SVGID_86_" gradientUnits="userSpaceOnUse" x1="338.707" x2="355.936" xlink:href="#lg4" y1="100.093" y2="142.712"/><linearGradient id="SVGID_87_" gradientUnits="userSpaceOnUse" x1="390.308" x2="376.419" xlink:href="#lg5" y1="133.435" y2="85.099"/><linearGradient id="SVGID_88_" gradientUnits="userSpaceOnUse" x1="414.676" x2="389.489" xlink:href="#lg6" y1="178.227" y2="126.743"/><linearGradient id="SVGID_89_" gradientTransform="matrix(0 1 1 0 1041.568 -1076.727)" gradientUnits="userSpaceOnUse" x1="1172.027" x2="1185.064" xlink:href="#lg7" y1="-721.301" y2="-708.264"/><linearGradient id="SVGID_90_" gradientTransform="matrix(0 1 1 0 1041.568 -1076.727)" gradientUnits="userSpaceOnUse" x1="1181.271" x2="1200.044" xlink:href="#lg8" y1="-714.715" y2="-721.494"/><linearGradient id="SVGID_91_" gradientTransform="matrix(0 1 1 0 1048.068 -1099.227)" gradientUnits="userSpaceOnUse" x1="1186.649" x2="1199.686" xlink:href="#lg7" y1="-710.876" y2="-697.839"/><linearGradient id="SVGID_92_" gradientTransform="matrix(0 1 1 0 1048.068 -1099.227)" gradientUnits="userSpaceOnUse" x1="1195.892" x2="1214.665" xlink:href="#lg8" y1="-704.291" y2="-711.07"/><linearGradient id="SVGID_93_" gradientTransform="matrix(0 1 1 0 1064.723 -1113.73)" gradientUnits="userSpaceOnUse" x1="1196.425" x2="1209.463" xlink:href="#lg7" y1="-709.347" y2="-696.31"/><linearGradient id="SVGID_94_" gradientTransform="matrix(0 1 1 0 1064.723 -1113.73)" gradientUnits="userSpaceOnUse" x1="1205.669" x2="1224.442" xlink:href="#lg8" y1="-702.762" y2="-709.541"/><linearGradient id="SVGID_95_" gradientTransform="matrix(0 1 1 0 1081.723 -1127.73)" gradientUnits="userSpaceOnUse" x1="1210.717" x2="1223.754" xlink:href="#lg7" y1="-708.255" y2="-695.218"/><linearGradient id="SVGID_96_" gradientTransform="matrix(0 1 1 0 1081.723 -1127.73)" gradientUnits="userSpaceOnUse" x1="1219.961" x2="1238.734" xlink:href="#lg8" y1="-701.67" y2="-708.449"/><linearGradient id="SVGID_97_" gradientTransform="matrix(0 1 1 0 1093.723 -1148.73)" gradientUnits="userSpaceOnUse" x1="1230.404" x2="1243.441" xlink:href="#lg7" y1="-700.997" y2="-687.959"/><linearGradient id="SVGID_98_" gradientTransform="matrix(0 1 1 0 1093.723 -1148.73)" gradientUnits="userSpaceOnUse" x1="1239.648" x2="1258.42" xlink:href="#lg8" y1="-694.411" y2="-701.19"/><linearGradient id="SVGID_99_" gradientTransform="matrix(0 1 1 0 1112.723 -1162.73)" gradientUnits="userSpaceOnUse" x1="1247.322" x2="1260.359" xlink:href="#lg7" y1="-700.737" y2="-687.7"/><linearGradient id="SVGID_100_" gradientTransform="matrix(0 1 1 0 1112.723 -1162.73)" gradientUnits="userSpaceOnUse" x1="1256.566" x2="1275.338" xlink:href="#lg8" y1="-694.152" y2="-700.931"/><linearGradient id="SVGID_101_" gradientTransform="matrix(0 1 1 0 1136.723 -1165.73)" gradientUnits="userSpaceOnUse" x1="1262.578" x2="1275.615" xlink:href="#lg7" y1="-708.98" y2="-695.943"/><linearGradient id="SVGID_102_" gradientTransform="matrix(0 1 1 0 1136.723 -1165.73)" gradientUnits="userSpaceOnUse" x1="1271.821" x2="1290.594" xlink:href="#lg8" y1="-702.395" y2="-709.174"/><linearGradient id="SVGID_103_" gradientTransform="matrix(0 1 1 0 1127.223 -1149.23)" gradientUnits="userSpaceOnUse" x1="1250.163" x2="1263.2" xlink:href="#lg7" y1="-714.654" y2="-701.617"/><linearGradient id="SVGID_104_" gradientTransform="matrix(0 1 1 0 1127.223 -1149.23)" gradientUnits="userSpaceOnUse" x1="1259.407" x2="1278.179" xlink:href="#lg8" y1="-708.069" y2="-714.848"/><linearGradient id="SVGID_105_" gradientTransform="matrix(0 1 1 0 1111.723 -1141.73)" gradientUnits="userSpaceOnUse" x1="1237.994" x2="1251.031" xlink:href="#lg7" y1="-712.577" y2="-699.54"/><linearGradient id="SVGID_106_" gradientTransform="matrix(0 1 1 0 1111.723 -1141.73)" gradientUnits="userSpaceOnUse" x1="1247.238" x2="1266.011" xlink:href="#lg8" y1="-705.991" y2="-712.77"/><linearGradient id="SVGID_107_" gradientTransform="matrix(0 1 1 0 1100.723 -1128.73)" gradientUnits="userSpaceOnUse" x1="1226.161" x2="1239.199" xlink:href="#lg7" y1="-715.583" y2="-702.546"/><linearGradient id="SVGID_108_" gradientTransform="matrix(0 1 1 0 1100.723 -1128.73)" gradientUnits="userSpaceOnUse" x1="1235.405" x2="1254.178" xlink:href="#lg8" y1="-708.998" y2="-715.777"/><linearGradient id="SVGID_109_" gradientTransform="matrix(0 1 1 0 1084.223 -1112.23)" gradientUnits="userSpaceOnUse" x1="1209.661" x2="1222.699" xlink:href="#lg7" y1="-718.342" y2="-705.305"/><linearGradient id="SVGID_110_" gradientTransform="matrix(0 1 1 0 1084.223 -1112.23)" gradientUnits="userSpaceOnUse" x1="1218.905" x2="1237.678" xlink:href="#lg8" y1="-711.757" y2="-718.536"/><linearGradient id="SVGID_111_" gradientTransform="matrix(0 1 1 0 1070.723 -1098.73)" gradientUnits="userSpaceOnUse" x1="1196.161" x2="1209.199" xlink:href="#lg7" y1="-720.6" y2="-707.563"/><linearGradient id="SVGID_112_" gradientTransform="matrix(0 1 1 0 1070.723 -1098.73)" gradientUnits="userSpaceOnUse" x1="1205.405" x2="1224.178" xlink:href="#lg8" y1="-714.014" y2="-720.793"/><linearGradient id="SVGID_113_" gradientTransform="matrix(0 1 1 0 1060.223 -1082.23)" gradientUnits="userSpaceOnUse" x1="1183.163" x2="1196.2" xlink:href="#lg7" y1="-725.857" y2="-712.82"/><linearGradient id="SVGID_114_" gradientTransform="matrix(0 1 1 0 1060.223 -1082.23)" gradientUnits="userSpaceOnUse" x1="1192.407" x2="1211.179" xlink:href="#lg8" y1="-719.272" y2="-726.051"/><linearGradient id="SVGID_115_" gradientTransform="matrix(0 1 1 0 1083.223 -1082.23)" gradientUnits="userSpaceOnUse" x1="1196.586" x2="1209.623" xlink:href="#lg7" y1="-735.434" y2="-722.397"/><linearGradient id="SVGID_116_" gradientTransform="matrix(0 1 1 0 1083.223 -1082.23)" gradientUnits="userSpaceOnUse" x1="1205.83" x2="1224.602" xlink:href="#lg8" y1="-728.849" y2="-735.628"/><linearGradient id="SVGID_117_" gradientTransform="matrix(0 1 1 0 1095.223 -1099.23)" gradientUnits="userSpaceOnUse" x1="1210.668" x2="1223.705" xlink:href="#lg7" y1="-730.51" y2="-717.472"/><linearGradient id="SVGID_118_" gradientTransform="matrix(0 1 1 0 1095.223 -1099.23)" gradientUnits="userSpaceOnUse" x1="1219.912" x2="1238.684" xlink:href="#lg8" y1="-723.924" y2="-730.703"/><linearGradient id="SVGID_119_" gradientTransform="matrix(0 1 1 0 1105.723 -1111.73)" gradientUnits="userSpaceOnUse" x1="1222.001" x2="1235.038" xlink:href="#lg7" y1="-727.587" y2="-714.549"/><linearGradient id="SVGID_120_" gradientTransform="matrix(0 1 1 0 1105.723 -1111.73)" gradientUnits="userSpaceOnUse" x1="1231.244" x2="1250.017" xlink:href="#lg8" y1="-721.001" y2="-727.78"/><linearGradient id="SVGID_121_" gradientTransform="matrix(0 1 1 0 1125.223 -1126.23)" gradientUnits="userSpaceOnUse" x1="1239.419" x2="1252.456" xlink:href="#lg7" y1="-727.244" y2="-714.207"/><linearGradient id="SVGID_122_" gradientTransform="matrix(0 1 1 0 1125.223 -1126.23)" gradientUnits="userSpaceOnUse" x1="1248.663" x2="1267.435" xlink:href="#lg8" y1="-720.659" y2="-727.438"/><linearGradient id="SVGID_123_" gradientTransform="matrix(0 1 1 0 1146.223 -1145.23)" gradientUnits="userSpaceOnUse" x1="1259.586" x2="1272.623" xlink:href="#lg7" y1="-724.9" y2="-711.863"/><linearGradient id="SVGID_124_" gradientTransform="matrix(0 1 1 0 1146.223 -1145.23)" gradientUnits="userSpaceOnUse" x1="1268.83" x2="1287.602" xlink:href="#lg8" y1="-718.314" y2="-725.093"/><linearGradient id="SVGID_125_" gradientTransform="matrix(0 1 1 0 1139.723 -1128.73)" gradientUnits="userSpaceOnUse" x1="1248.922" x2="1261.959" xlink:href="#lg7" y1="-731.823" y2="-718.786"/><linearGradient id="SVGID_126_" gradientTransform="matrix(0 1 1 0 1139.723 -1128.73)" gradientUnits="userSpaceOnUse" x1="1258.166" x2="1276.938" xlink:href="#lg8" y1="-725.237" y2="-732.016"/><linearGradient id="SVGID_127_" gradientTransform="matrix(0 1 1 0 1059.723 -1064.73)" gradientUnits="userSpaceOnUse" x1="1175.584" x2="1188.622" xlink:href="#lg7" y1="-735.862" y2="-722.825"/><linearGradient id="SVGID_128_" gradientTransform="matrix(0 1 1 0 1059.723 -1064.73)" gradientUnits="userSpaceOnUse" x1="1184.828" x2="1203.601" xlink:href="#lg8" y1="-729.277" y2="-736.056"/><linearGradient id="SVGID_129_" gradientTransform="matrix(0 1 1 0 1079.223 -1065.23)" gradientUnits="userSpaceOnUse" x1="1187.173" x2="1200.21" xlink:href="#lg7" y1="-743.69" y2="-730.653"/><linearGradient id="SVGID_130_" gradientTransform="matrix(0 1 1 0 1079.223 -1065.23)" gradientUnits="userSpaceOnUse" x1="1196.417" x2="1215.189" xlink:href="#lg8" y1="-737.105" y2="-743.884"/><linearGradient id="SVGID_131_" gradientTransform="matrix(0 1 1 0 1103.223 -1080.23)" gradientUnits="userSpaceOnUse" x1="1207.425" x2="1220.462" xlink:href="#lg7" y1="-744.929" y2="-731.892"/><linearGradient id="SVGID_132_" gradientTransform="matrix(0 1 1 0 1103.223 -1080.23)" gradientUnits="userSpaceOnUse" x1="1216.669" x2="1235.442" xlink:href="#lg8" y1="-738.344" y2="-745.123"/><linearGradient id="SVGID_133_" gradientTransform="matrix(0 1 1 0 1115.723 -1096.73)" gradientUnits="userSpaceOnUse" x1="1221.591" x2="1234.628" xlink:href="#lg7" y1="-740.505" y2="-727.468"/><linearGradient id="SVGID_134_" gradientTransform="matrix(0 1 1 0 1115.723 -1096.73)" gradientUnits="userSpaceOnUse" x1="1230.835" x2="1249.607" xlink:href="#lg8" y1="-733.919" y2="-740.698"/><linearGradient id="SVGID_135_" gradientTransform="matrix(0 1 1 0 1129.723 -1110.73)" gradientUnits="userSpaceOnUse" x1="1235.591" x2="1248.628" xlink:href="#lg7" y1="-738.164" y2="-725.127"/><linearGradient id="SVGID_136_" gradientTransform="matrix(0 1 1 0 1129.723 -1110.73)" gradientUnits="userSpaceOnUse" x1="1244.835" x2="1263.607" xlink:href="#lg8" y1="-731.578" y2="-738.357"/><linearGradient id="SVGID_137_" gradientTransform="matrix(0 1 1 0 1098.723 -1066.73)" gradientUnits="userSpaceOnUse" x1="1199.178" x2="1212.215" xlink:href="#lg7" y1="-750.934" y2="-737.897"/><linearGradient id="SVGID_138_" gradientTransform="matrix(0 1 1 0 1098.723 -1066.73)" gradientUnits="userSpaceOnUse" x1="1208.422" x2="1227.194" xlink:href="#lg8" y1="-744.349" y2="-751.128"/><linearGradient id="SVGID_139_" gradientTransform="matrix(0 1 1 0 1121.723 -1074.73)" gradientUnits="userSpaceOnUse" x1="1215.932" x2="1228.969" xlink:href="#lg7" y1="-755.842" y2="-742.805"/><linearGradient id="SVGID_140_" gradientTransform="matrix(0 1 1 0 1121.723 -1074.73)" gradientUnits="userSpaceOnUse" x1="1225.176" x2="1243.948" xlink:href="#lg8" y1="-749.257" y2="-756.036"/><linearGradient id="SVGID_141_" gradientTransform="matrix(0 1 1 0 1137.098 -1091.605)" gradientUnits="userSpaceOnUse" x1="1231.931" x2="1244.969" xlink:href="#lg7" y1="-752.396" y2="-739.359"/><linearGradient id="SVGID_142_" gradientTransform="matrix(0 1 1 0 1137.098 -1091.605)" gradientUnits="userSpaceOnUse" x1="1241.175" x2="1259.948" xlink:href="#lg8" y1="-745.811" y2="-752.59"/><linearGradient id="SVGID_143_" gradientTransform="matrix(0 1 1 0 1151.473 -1111.23)" gradientUnits="userSpaceOnUse" x1="1248.492" x2="1261.53" xlink:href="#lg7" y1="-746.929" y2="-733.891"/><linearGradient id="SVGID_144_" gradientTransform="matrix(0 1 1 0 1151.473 -1111.23)" gradientUnits="userSpaceOnUse" x1="1257.736" x2="1276.509" xlink:href="#lg8" y1="-740.343" y2="-747.122"/><linearGradient id="SVGID_145_" gradientTransform="matrix(0 1 1 0 1159.723 -1129.73)" gradientUnits="userSpaceOnUse" x1="1261.011" x2="1274.048" xlink:href="#lg7" y1="-739.567" y2="-726.53"/><linearGradient id="SVGID_146_" gradientTransform="matrix(0 1 1 0 1159.723 -1129.73)" gradientUnits="userSpaceOnUse" x1="1270.254" x2="1289.027" xlink:href="#lg8" y1="-732.982" y2="-739.761"/><linearGradient id="SVGID_147_" gradientTransform="matrix(0 1 1 0 1159.723 -1129.73)" gradientUnits="userSpaceOnUse" x1="1250.214" x2="1263.251" xlink:href="#lg7" y1="-723.956" y2="-710.918"/><linearGradient id="SVGID_148_" gradientTransform="matrix(0 1 1 0 1159.723 -1129.73)" gradientUnits="userSpaceOnUse" x1="1259.458" x2="1278.23" xlink:href="#lg8" y1="-717.37" y2="-724.149"/><linearGradient id="SVGID_149_" gradientTransform="matrix(0 1 1 0 1071.723 -1046.73)" gradientUnits="userSpaceOnUse" x1="1175.093" x2="1188.13" xlink:href="#lg7" y1="-751.364" y2="-738.326"/><linearGradient id="SVGID_150_" gradientTransform="matrix(0 1 1 0 1071.723 -1046.73)" gradientUnits="userSpaceOnUse" x1="1184.336" x2="1203.109" xlink:href="#lg8" y1="-744.778" y2="-751.557"/><linearGradient id="SVGID_151_" gradientTransform="matrix(0 1 1 0 1092.723 -1045.73)" gradientUnits="userSpaceOnUse" x1="1186.932" x2="1199.969" xlink:href="#lg7" y1="-760.692" y2="-747.654"/><linearGradient id="SVGID_152_" gradientTransform="matrix(0 1 1 0 1092.723 -1045.73)" gradientUnits="userSpaceOnUse" x1="1196.176" x2="1214.948" xlink:href="#lg8" y1="-754.106" y2="-760.885"/><linearGradient id="SVGID_153_" gradientTransform="matrix(0 1 1 0 1112.723 -1055.73)" gradientUnits="userSpaceOnUse" x1="1202.768" x2="1215.805" xlink:href="#lg7" y1="-763.183" y2="-750.146"/><linearGradient id="SVGID_154_" gradientTransform="matrix(0 1 1 0 1112.723 -1055.73)" gradientUnits="userSpaceOnUse" x1="1212.012" x2="1230.784" xlink:href="#lg8" y1="-756.598" y2="-763.377"/><linearGradient id="SVGID_155_" gradientTransform="matrix(0 1 1 0 1135.223 -1069.23)" gradientUnits="userSpaceOnUse" x1="1221.52" x2="1234.558" xlink:href="#lg7" y1="-764.674" y2="-751.636"/><linearGradient id="SVGID_156_" gradientTransform="matrix(0 1 1 0 1135.223 -1069.23)" gradientUnits="userSpaceOnUse" x1="1230.764" x2="1249.537" xlink:href="#lg8" y1="-758.088" y2="-764.867"/><linearGradient id="SVGID_157_" gradientTransform="matrix(0 1 1 0 1158.973 -1094.23)" gradientUnits="userSpaceOnUse" x1="1246.812" x2="1259.849" xlink:href="#lg7" y1="-766.976" y2="-753.939"/><linearGradient id="SVGID_158_" gradientTransform="matrix(0 1 1 0 1158.973 -1094.23)" gradientUnits="userSpaceOnUse" x1="1256.056" x2="1274.829" xlink:href="#lg8" y1="-760.391" y2="-767.17"/><linearGradient id="SVGID_159_" gradientTransform="matrix(0 1 1 0 1158.973 -1094.23)" gradientUnits="userSpaceOnUse" x1="1242.289" x2="1255.326" xlink:href="#lg7" y1="-747.133" y2="-734.096"/><linearGradient id="SVGID_160_" gradientTransform="matrix(0 1 1 0 1158.973 -1094.23)" gradientUnits="userSpaceOnUse" x1="1251.533" x2="1270.306" xlink:href="#lg8" y1="-740.548" y2="-747.327"/><linearGradient id="SVGID_161_" gradientTransform="matrix(0 1 1 0 1158.973 -1094.23)" gradientUnits="userSpaceOnUse" x1="1233.389" x2="1246.426" xlink:href="#lg7" y1="-727.874" y2="-714.837"/><linearGradient id="SVGID_162_" gradientTransform="matrix(0 1 1 0 1158.973 -1094.23)" gradientUnits="userSpaceOnUse" x1="1242.633" x2="1261.406" xlink:href="#lg8" y1="-721.289" y2="-728.068"/><linearGradient id="SVGID_163_" gradientUnits="userSpaceOnUse" x1="466.221" x2="382.883" y1="310.365" y2="280.641"><stop offset="0" stop-color="#534854" stop-opacity="0"/><stop offset="1" stop-color="#0a0007"/></linearGradient><linearGradient id="SVGID_164_" gradientUnits="userSpaceOnUse" x1="195.293" x2="304.04" xlink:href="#lg1" y1="322.686" y2="322.686"/><linearGradient id="SVGID_165_" gradientTransform="matrix(0 1 1 0 1160.16 -1004.16)" gradientUnits="userSpaceOnUse" x1="1202.221" x2="1369.637" xlink:href="#lg2" y1="-944.219" y2="-856.807"/><linearGradient id="SVGID_166_" gradientTransform="matrix(0 -1 -1 0 1661.974 1505.974)" gradientUnits="userSpaceOnUse" x1="1186.277" x2="1303.703" xlink:href="#lg2" y1="1379.578" y2="1440.889"/><linearGradient id="SVGID_167_" gradientUnits="userSpaceOnUse" x1="242.495" x2="284.719" xlink:href="#lg3" y1="236.293" y2="340.743"/><linearGradient id="SVGID_168_" gradientUnits="userSpaceOnUse" x1="211.207" x2="228.436" xlink:href="#lg4" y1="235.465" y2="278.084"/><linearGradient id="SVGID_169_" gradientUnits="userSpaceOnUse" x1="262.808" x2="248.919" xlink:href="#lg5" y1="268.807" y2="220.471"/><linearGradient id="SVGID_170_" gradientUnits="userSpaceOnUse" x1="287.176" x2="261.989" xlink:href="#lg6" y1="313.599" y2="262.115"/><linearGradient id="SVGID_171_" gradientTransform="matrix(0 1 1 0 1041.568 -1076.727)" gradientUnits="userSpaceOnUse" x1="1307.399" x2="1320.437" xlink:href="#lg7" y1="-848.801" y2="-835.764"/><linearGradient id="SVGID_172_" gradientTransform="matrix(0 1 1 0 1041.568 -1076.727)" gradientUnits="userSpaceOnUse" x1="1316.643" x2="1335.416" xlink:href="#lg8" y1="-842.215" y2="-848.994"/><linearGradient id="SVGID_173_" gradientTransform="matrix(0 1 1 0 1048.068 -1099.227)" gradientUnits="userSpaceOnUse" x1="1322.021" x2="1335.058" xlink:href="#lg7" y1="-838.376" y2="-825.339"/><linearGradient id="SVGID_174_" gradientTransform="matrix(0 1 1 0 1048.068 -1099.227)" gradientUnits="userSpaceOnUse" x1="1331.264" x2="1350.037" xlink:href="#lg8" y1="-831.791" y2="-838.57"/><linearGradient id="SVGID_175_" gradientTransform="matrix(0 1 1 0 1064.723 -1113.73)" gradientUnits="userSpaceOnUse" x1="1331.798" x2="1344.835" xlink:href="#lg7" y1="-836.847" y2="-823.81"/><linearGradient id="SVGID_176_" gradientTransform="matrix(0 1 1 0 1064.723 -1113.73)" gradientUnits="userSpaceOnUse" x1="1341.041" x2="1359.814" xlink:href="#lg8" y1="-830.262" y2="-837.041"/><linearGradient id="SVGID_177_" gradientTransform="matrix(0 1 1 0 1081.723 -1127.73)" gradientUnits="userSpaceOnUse" x1="1346.089" x2="1359.127" xlink:href="#lg7" y1="-835.755" y2="-822.718"/><linearGradient id="SVGID_178_" gradientTransform="matrix(0 1 1 0 1081.723 -1127.73)" gradientUnits="userSpaceOnUse" x1="1355.333" x2="1374.106" xlink:href="#lg8" y1="-829.17" y2="-835.949"/><linearGradient id="SVGID_179_" gradientTransform="matrix(0 1 1 0 1093.723 -1148.73)" gradientUnits="userSpaceOnUse" x1="1365.776" x2="1378.813" xlink:href="#lg7" y1="-828.497" y2="-815.459"/><linearGradient id="SVGID_180_" gradientTransform="matrix(0 1 1 0 1093.723 -1148.73)" gradientUnits="userSpaceOnUse" x1="1375.02" x2="1393.793" xlink:href="#lg8" y1="-821.911" y2="-828.69"/><linearGradient id="SVGID_181_" gradientTransform="matrix(0 1 1 0 1112.723 -1162.73)" gradientUnits="userSpaceOnUse" x1="1382.694" x2="1395.731" xlink:href="#lg7" y1="-828.237" y2="-815.2"/><linearGradient id="SVGID_182_" gradientTransform="matrix(0 1 1 0 1112.723 -1162.73)" gradientUnits="userSpaceOnUse" x1="1391.938" x2="1410.71" xlink:href="#lg8" y1="-821.652" y2="-828.431"/><linearGradient id="SVGID_183_" gradientTransform="matrix(0 1 1 0 1136.723 -1165.73)" gradientUnits="userSpaceOnUse" x1="1397.95" x2="1410.987" xlink:href="#lg7" y1="-836.48" y2="-823.443"/><linearGradient id="SVGID_184_" gradientTransform="matrix(0 1 1 0 1136.723 -1165.73)" gradientUnits="userSpaceOnUse" x1="1407.194" x2="1425.966" xlink:href="#lg8" y1="-829.895" y2="-836.674"/><linearGradient id="SVGID_185_" gradientTransform="matrix(0 1 1 0 1127.223 -1149.23)" gradientUnits="userSpaceOnUse" x1="1385.535" x2="1398.572" xlink:href="#lg7" y1="-842.154" y2="-829.117"/><linearGradient id="SVGID_186_" gradientTransform="matrix(0 1 1 0 1127.223 -1149.23)" gradientUnits="userSpaceOnUse" x1="1394.779" x2="1413.552" xlink:href="#lg8" y1="-835.569" y2="-842.348"/><linearGradient id="SVGID_187_" gradientTransform="matrix(0 1 1 0 1111.723 -1141.73)" gradientUnits="userSpaceOnUse" x1="1373.366" x2="1386.404" xlink:href="#lg7" y1="-840.077" y2="-827.04"/><linearGradient id="SVGID_188_" gradientTransform="matrix(0 1 1 0 1111.723 -1141.73)" gradientUnits="userSpaceOnUse" x1="1382.61" x2="1401.383" xlink:href="#lg8" y1="-833.491" y2="-840.27"/><linearGradient id="SVGID_189_" gradientTransform="matrix(0 1 1 0 1100.723 -1128.73)" gradientUnits="userSpaceOnUse" x1="1361.534" x2="1374.571" xlink:href="#lg7" y1="-843.083" y2="-830.046"/><linearGradient id="SVGID_190_" gradientTransform="matrix(0 1 1 0 1100.723 -1128.73)" gradientUnits="userSpaceOnUse" x1="1370.777" x2="1389.55" xlink:href="#lg8" y1="-836.498" y2="-843.277"/><linearGradient id="SVGID_191_" gradientTransform="matrix(0 1 1 0 1084.223 -1112.23)" gradientUnits="userSpaceOnUse" x1="1345.034" x2="1358.071" xlink:href="#lg7" y1="-845.842" y2="-832.805"/><linearGradient id="SVGID_192_" gradientTransform="matrix(0 1 1 0 1084.223 -1112.23)" gradientUnits="userSpaceOnUse" x1="1354.277" x2="1373.05" xlink:href="#lg8" y1="-839.257" y2="-846.036"/><linearGradient id="SVGID_193_" gradientTransform="matrix(0 1 1 0 1070.723 -1098.73)" gradientUnits="userSpaceOnUse" x1="1331.534" x2="1344.571" xlink:href="#lg7" y1="-848.1" y2="-835.063"/><linearGradient id="SVGID_194_" gradientTransform="matrix(0 1 1 0 1070.723 -1098.73)" gradientUnits="userSpaceOnUse" x1="1340.777" x2="1359.55" xlink:href="#lg8" y1="-841.514" y2="-848.293"/><linearGradient id="SVGID_195_" gradientTransform="matrix(0 1 1 0 1060.223 -1082.23)" gradientUnits="userSpaceOnUse" x1="1318.535" x2="1331.572" xlink:href="#lg7" y1="-853.357" y2="-840.32"/><linearGradient id="SVGID_196_" gradientTransform="matrix(0 1 1 0 1060.223 -1082.23)" gradientUnits="userSpaceOnUse" x1="1327.779" x2="1346.552" xlink:href="#lg8" y1="-846.772" y2="-853.551"/><linearGradient id="SVGID_197_" gradientTransform="matrix(0 1 1 0 1083.223 -1082.23)" gradientUnits="userSpaceOnUse" x1="1331.958" x2="1344.995" xlink:href="#lg7" y1="-862.934" y2="-849.897"/><linearGradient id="SVGID_198_" gradientTransform="matrix(0 1 1 0 1083.223 -1082.23)" gradientUnits="userSpaceOnUse" x1="1341.202" x2="1359.974" xlink:href="#lg8" y1="-856.349" y2="-863.128"/><linearGradient id="SVGID_199_" gradientTransform="matrix(0 1 1 0 1095.223 -1099.23)" gradientUnits="userSpaceOnUse" x1="1346.04" x2="1359.077" xlink:href="#lg7" y1="-858.01" y2="-844.972"/><linearGradient id="SVGID_200_" gradientTransform="matrix(0 1 1 0 1095.223 -1099.23)" gradientUnits="userSpaceOnUse" x1="1355.284" x2="1374.056" xlink:href="#lg8" y1="-851.424" y2="-858.203"/><linearGradient id="SVGID_201_" gradientTransform="matrix(0 1 1 0 1105.723 -1111.73)" gradientUnits="userSpaceOnUse" x1="1357.373" x2="1370.41" xlink:href="#lg7" y1="-855.087" y2="-842.049"/><linearGradient id="SVGID_202_" gradientTransform="matrix(0 1 1 0 1105.723 -1111.73)" gradientUnits="userSpaceOnUse" x1="1366.617" x2="1385.389" xlink:href="#lg8" y1="-848.501" y2="-855.28"/><linearGradient id="SVGID_203_" gradientTransform="matrix(0 1 1 0 1125.223 -1126.23)" gradientUnits="userSpaceOnUse" x1="1374.791" x2="1387.828" xlink:href="#lg7" y1="-854.744" y2="-841.707"/><linearGradient id="SVGID_204_" gradientTransform="matrix(0 1 1 0 1125.223 -1126.23)" gradientUnits="userSpaceOnUse" x1="1384.035" x2="1402.807" xlink:href="#lg8" y1="-848.159" y2="-854.938"/><linearGradient id="SVGID_205_" gradientTransform="matrix(0 1 1 0 1146.223 -1145.23)" gradientUnits="userSpaceOnUse" x1="1394.958" x2="1407.995" xlink:href="#lg7" y1="-852.4" y2="-839.363"/><linearGradient id="SVGID_206_" gradientTransform="matrix(0 1 1 0 1146.223 -1145.23)" gradientUnits="userSpaceOnUse" x1="1404.202" x2="1422.974" xlink:href="#lg8" y1="-845.814" y2="-852.593"/><linearGradient id="SVGID_207_" gradientTransform="matrix(0 1 1 0 1139.723 -1128.73)" gradientUnits="userSpaceOnUse" x1="1384.294" x2="1397.331" xlink:href="#lg7" y1="-859.323" y2="-846.286"/><linearGradient id="SVGID_208_" gradientTransform="matrix(0 1 1 0 1139.723 -1128.73)" gradientUnits="userSpaceOnUse" x1="1393.538" x2="1412.311" xlink:href="#lg8" y1="-852.737" y2="-859.516"/><linearGradient id="SVGID_209_" gradientTransform="matrix(0 1 1 0 1059.723 -1064.73)" gradientUnits="userSpaceOnUse" x1="1310.956" x2="1323.994" xlink:href="#lg7" y1="-863.362" y2="-850.325"/><linearGradient id="SVGID_210_" gradientTransform="matrix(0 1 1 0 1059.723 -1064.73)" gradientUnits="userSpaceOnUse" x1="1320.2" x2="1338.973" xlink:href="#lg8" y1="-856.777" y2="-863.556"/><linearGradient id="SVGID_211_" gradientTransform="matrix(0 1 1 0 1079.223 -1065.23)" gradientUnits="userSpaceOnUse" x1="1322.545" x2="1335.582" xlink:href="#lg7" y1="-871.19" y2="-858.153"/><linearGradient id="SVGID_212_" gradientTransform="matrix(0 1 1 0 1079.223 -1065.23)" gradientUnits="userSpaceOnUse" x1="1331.789" x2="1350.561" xlink:href="#lg8" y1="-864.604" y2="-871.384"/><linearGradient id="SVGID_213_" gradientTransform="matrix(0 1 1 0 1103.223 -1080.23)" gradientUnits="userSpaceOnUse" x1="1342.797" x2="1355.835" xlink:href="#lg7" y1="-872.429" y2="-859.392"/><linearGradient id="SVGID_214_" gradientTransform="matrix(0 1 1 0 1103.223 -1080.23)" gradientUnits="userSpaceOnUse" x1="1352.041" x2="1370.814" xlink:href="#lg8" y1="-865.844" y2="-872.623"/><linearGradient id="SVGID_215_" gradientTransform="matrix(0 1 1 0 1115.723 -1096.73)" gradientUnits="userSpaceOnUse" x1="1356.963" x2="1370" xlink:href="#lg7" y1="-868.005" y2="-854.968"/><linearGradient id="SVGID_216_" gradientTransform="matrix(0 1 1 0 1115.723 -1096.73)" gradientUnits="userSpaceOnUse" x1="1366.207" x2="1384.979" xlink:href="#lg8" y1="-861.419" y2="-868.198"/><linearGradient id="SVGID_217_" gradientTransform="matrix(0 1 1 0 1129.723 -1110.73)" gradientUnits="userSpaceOnUse" x1="1370.963" x2="1384" xlink:href="#lg7" y1="-865.664" y2="-852.627"/><linearGradient id="SVGID_218_" gradientTransform="matrix(0 1 1 0 1129.723 -1110.73)" gradientUnits="userSpaceOnUse" x1="1380.207" x2="1398.979" xlink:href="#lg8" y1="-859.078" y2="-865.857"/><linearGradient id="SVGID_219_" gradientTransform="matrix(0 1 1 0 1098.723 -1066.73)" gradientUnits="userSpaceOnUse" x1="1334.55" x2="1347.587" xlink:href="#lg7" y1="-878.434" y2="-865.397"/><linearGradient id="SVGID_220_" gradientTransform="matrix(0 1 1 0 1098.723 -1066.73)" gradientUnits="userSpaceOnUse" x1="1343.794" x2="1362.566" xlink:href="#lg8" y1="-871.849" y2="-878.628"/><linearGradient id="SVGID_221_" gradientTransform="matrix(0 1 1 0 1121.723 -1074.73)" gradientUnits="userSpaceOnUse" x1="1351.304" x2="1364.341" xlink:href="#lg7" y1="-883.342" y2="-870.305"/><linearGradient id="SVGID_222_" gradientTransform="matrix(0 1 1 0 1121.723 -1074.73)" gradientUnits="userSpaceOnUse" x1="1360.548" x2="1379.32" xlink:href="#lg8" y1="-876.757" y2="-883.536"/><linearGradient id="SVGID_223_" gradientTransform="matrix(0 1 1 0 1137.098 -1091.605)" gradientUnits="userSpaceOnUse" x1="1367.304" x2="1380.341" xlink:href="#lg7" y1="-879.896" y2="-866.859"/><linearGradient id="SVGID_224_" gradientTransform="matrix(0 1 1 0 1137.098 -1091.605)" gradientUnits="userSpaceOnUse" x1="1376.547" x2="1395.32" xlink:href="#lg8" y1="-873.311" y2="-880.09"/><linearGradient id="SVGID_225_" gradientTransform="matrix(0 1 1 0 1151.473 -1111.23)" gradientUnits="userSpaceOnUse" x1="1383.865" x2="1396.902" xlink:href="#lg7" y1="-874.429" y2="-861.391"/><linearGradient id="SVGID_226_" gradientTransform="matrix(0 1 1 0 1151.473 -1111.23)" gradientUnits="userSpaceOnUse" x1="1393.108" x2="1411.881" xlink:href="#lg8" y1="-867.843" y2="-874.622"/><linearGradient id="SVGID_227_" gradientTransform="matrix(0 1 1 0 1159.723 -1129.73)" gradientUnits="userSpaceOnUse" x1="1396.383" x2="1409.42" xlink:href="#lg7" y1="-867.067" y2="-854.03"/><linearGradient id="SVGID_228_" gradientTransform="matrix(0 1 1 0 1159.723 -1129.73)" gradientUnits="userSpaceOnUse" x1="1405.626" x2="1424.399" xlink:href="#lg8" y1="-860.482" y2="-867.261"/><linearGradient id="SVGID_229_" gradientTransform="matrix(0 1 1 0 1159.723 -1129.73)" gradientUnits="userSpaceOnUse" x1="1385.586" x2="1398.623" xlink:href="#lg7" y1="-851.456" y2="-838.418"/><linearGradient id="SVGID_230_" gradientTransform="matrix(0 1 1 0 1159.723 -1129.73)" gradientUnits="userSpaceOnUse" x1="1394.83" x2="1413.602" xlink:href="#lg8" y1="-844.87" y2="-851.649"/><linearGradient id="SVGID_231_" gradientTransform="matrix(0 1 1 0 1071.723 -1046.73)" gradientUnits="userSpaceOnUse" x1="1310.465" x2="1323.502" xlink:href="#lg7" y1="-878.864" y2="-865.826"/><linearGradient id="SVGID_232_" gradientTransform="matrix(0 1 1 0 1071.723 -1046.73)" gradientUnits="userSpaceOnUse" x1="1319.708" x2="1338.481" xlink:href="#lg8" y1="-872.278" y2="-879.057"/><linearGradient id="SVGID_233_" gradientTransform="matrix(0 1 1 0 1092.723 -1045.73)" gradientUnits="userSpaceOnUse" x1="1322.304" x2="1335.341" xlink:href="#lg7" y1="-888.192" y2="-875.154"/><linearGradient id="SVGID_234_" gradientTransform="matrix(0 1 1 0 1092.723 -1045.73)" gradientUnits="userSpaceOnUse" x1="1331.548" x2="1350.32" xlink:href="#lg8" y1="-881.606" y2="-888.385"/><linearGradient id="SVGID_235_" gradientTransform="matrix(0 1 1 0 1112.723 -1055.73)" gradientUnits="userSpaceOnUse" x1="1338.14" x2="1351.177" xlink:href="#lg7" y1="-890.683" y2="-877.646"/><linearGradient id="SVGID_236_" gradientTransform="matrix(0 1 1 0 1112.723 -1055.73)" gradientUnits="userSpaceOnUse" x1="1347.384" x2="1366.156" xlink:href="#lg8" y1="-884.098" y2="-890.877"/><linearGradient id="SVGID_237_" gradientTransform="matrix(0 1 1 0 1135.223 -1069.23)" gradientUnits="userSpaceOnUse" x1="1356.893" x2="1369.93" xlink:href="#lg7" y1="-892.174" y2="-879.136"/><linearGradient id="SVGID_238_" gradientTransform="matrix(0 1 1 0 1135.223 -1069.23)" gradientUnits="userSpaceOnUse" x1="1366.136" x2="1384.909" xlink:href="#lg8" y1="-885.588" y2="-892.367"/><linearGradient id="SVGID_239_" gradientTransform="matrix(0 1 1 0 1158.973 -1094.23)" gradientUnits="userSpaceOnUse" x1="1382.184" x2="1395.221" xlink:href="#lg7" y1="-894.476" y2="-881.439"/><linearGradient id="SVGID_240_" gradientTransform="matrix(0 1 1 0 1158.973 -1094.23)" gradientUnits="userSpaceOnUse" x1="1391.428" x2="1410.201" xlink:href="#lg8" y1="-887.891" y2="-894.67"/><linearGradient id="SVGID_241_" gradientTransform="matrix(0 1 1 0 1158.973 -1094.23)" gradientUnits="userSpaceOnUse" x1="1377.661" x2="1390.699" xlink:href="#lg7" y1="-874.633" y2="-861.596"/><linearGradient id="SVGID_242_" gradientTransform="matrix(0 1 1 0 1158.973 -1094.23)" gradientUnits="userSpaceOnUse" x1="1386.905" x2="1405.678" xlink:href="#lg8" y1="-868.048" y2="-874.827"/><linearGradient id="SVGID_243_" gradientTransform="matrix(0 1 1 0 1158.973 -1094.23)" gradientUnits="userSpaceOnUse" x1="1368.761" x2="1381.799" xlink:href="#lg7" y1="-855.374" y2="-842.337"/><linearGradient id="SVGID_244_" gradientTransform="matrix(0 1 1 0 1158.973 -1094.23)" gradientUnits="userSpaceOnUse" x1="1378.005" x2="1396.778" xlink:href="#lg8" y1="-848.789" y2="-855.568"/><g><g><g><path d="m255 137.497c0-42.342-255-42.342-255 0v99.635c0 42.342 57.084 76.667 127.5 76.667s127.5-34.325 127.5-76.667c0-.327 0-99.635 0-99.635z" fill="url(#SVGID_1_)"/><ellipse cx="127.5" cy="137.497" fill="url(#SVGID_2_)" rx="127.5" ry="76.667"/><ellipse cx="127.5" cy="131.855" fill="url(#SVGID_3_)" rx="91.943" ry="52.607"/><ellipse cx="127.5" cy="131.855" fill="url(#SVGID_4_)" rx="85.276" ry="47.607"/><path d="m58.322 104.034c-9.71 7.512-7.851 22.906 3.421 27.77 5.834 2.517 12.494 3.944 19.569 3.944 23.013 0 41.669-15.09 41.669-33.705 0-.064 0-.128-.001-.191-.068-9.96-9.247-17.319-19.082-15.741-18.575 2.98-34.546 9.389-45.576 17.923z" fill="url(#SVGID_5_)"/><g><path d="m115.642 82.677c-.065-.061-1.892-1.898-1.892-1.898-.085-.079-.17-.157-.257-.234-.3-.264-.611-.513-.939-.743-.036-.025-.068-.054-.104-.078-.365-.249-.748-.471-1.143-.674-.038-.02-.072-.046-.11-.065.003.005.004.01.007.015-1.46-.734-3.104-1.157-4.85-1.157-4.998 0-9.193 3.39-10.441 7.993-.111-.114-.229-.221-.345-.33-.085-.08-.17-.157-.257-.234-.3-.264-.611-.513-.939-.743-.035-.025-.068-.053-.104-.078-.365-.249-.748-.471-1.143-.674-.038-.02-.072-.046-.11-.065.002.005.004.01.007.015-1.461-.734-3.104-1.157-4.851-1.157-5.632 0-10.256 4.3-10.777 9.796-.017-.012-.034-.024-.05-.035-.365-.249-.748-.471-1.143-.674-.038-.02-.072-.046-.11-.065.002.005.004.01.006.015-1.461-.734-3.104-1.157-4.85-1.157-5.98 0-10.829 4.848-10.829 10.829 0 .392.028.777.07 1.158 15.614-11.07 39.819-18.186 67.016-18.186 25.66 0 48.655 6.336 64.288 16.348-3.373-3.372-5.606-5.603-5.672-5.665-.085-.079-.17-.157-.257-.234-.3-.264-.611-.513-.939-.743-.036-.025-.068-.053-.105-.078-.365-.249-.748-.471-1.143-.674-.038-.02-.072-.046-.11-.065.002.005.004.01.007.015-1.19-.598-2.506-.975-3.896-1.1l-8.149-8.077c-.085-.111-.158-.232-.247-.339-.033-.04-.071-.076-.105-.115-.255-.297-.528-.577-.813-.845-.085-.079-.17-.157-.257-.234-.3-.264-.611-.513-.939-.743-.036-.025-.068-.054-.104-.078-.365-.249-.748-.471-1.143-.674-.038-.02-.072-.046-.11-.065.003.005.004.01.007.015-1.46-.734-3.104-1.157-4.85-1.157-3.263 0-6.183 1.448-8.167 3.731-.016-.014-.031-.029-.047-.043l-2.481-2.37c-.085-.111-.158-.231-.247-.339-.033-.04-.071-.076-.105-.115-.255-.297-.528-.577-.813-.845-.085-.079-.17-.157-.257-.234-.3-.264-.611-.513-.939-.743-.036-.025-.069-.054-.104-.078-.365-.249-.749-.471-1.143-.674-.038-.02-.072-.046-.11-.065.002.005.004.01.007.015-1.461-.734-3.104-1.157-4.851-1.157-4.358 0-8.107 2.578-9.825 6.288l-2.036-2.039c-.085-.079-.17-.157-.257-.234-.3-.264-.611-.513-.939-.743-.036-.025-.068-.053-.105-.078-.365-.249-.748-.471-1.143-.674-.038-.02-.072-.046-.11-.065.002.005.004.01.007.015-1.461-.734-3.104-1.157-4.851-1.157-3.641-.004-6.845 1.793-8.809 4.538z" fill="url(#SVGID_6_)"/></g><path d="m212.776 131.855c0-4.891-1.325-9.608-3.779-14.049-6.219-6.22-12.727-12.73-17.208-17.209-15.634-10.013-38.629-16.349-64.289-16.349-27.197 0-51.402 7.117-67.016 18.186.143 1.315.518 2.56 1.087 3.693-.005-.002-.01-.004-.015-.006.019.038.045.072.065.11.204.395.425.778.674 1.143.024.036.053.069.078.104.23.328.48.64.743.94.077.087.154.172.233.257.268.286.549.559.846.814l1.514 1.531c-1.073 1.68-1.703 3.67-1.703 5.811 0 1.746.423 3.39 1.157 4.85-.005-.002-.01-.004-.015-.007.019.038.045.072.065.11.204.395.425.778.674 1.143.025.036.053.069.078.104.23.328.479.639.743.939.077.087.154.173.234.257.046.049.09.102.137.151-3.865 1.653-6.575 5.489-6.575 9.959 0 1.746.423 3.39 1.157 4.85-.005-.002-.01-.004-.015-.007.019.038.046.072.065.111.204.395.425.778.674 1.143.025.036.054.069.079.106.229.327.479.639.742.938l9.759 9.759c.015.017.031.034.046.051.103.249.201.5.321.739-.005-.003-.01-.004-.015-.007.019.038.045.072.065.11.204.395.426.779.675 1.144.024.035.052.068.077.103.23.328.48.64.744.94l21.958 21.958c9.518 2.049 19.849 3.184 30.661 3.184 47.099.002 85.279-21.312 85.279-47.604z" fill="url(#SVGID_7_)"/><g><g><circle cx="71.243" cy="101.276" fill="url(#SVGID_8_)" r="10.829"/><path d="m61.556 106.121c1.458.73 3.103 1.142 4.844 1.142 5.981 0 10.829-4.848 10.829-10.829 0-1.741-.412-3.386-1.142-4.844 3.548 1.778 5.985 5.448 5.985 9.687 0 5.98-4.848 10.829-10.829 10.829-4.239-.001-7.909-2.437-9.687-5.985z" fill="url(#SVGID_9_)"/></g><g><circle cx="88.168" cy="93.398" fill="url(#SVGID_10_)" r="10.829"/><path d="m78.481 98.242c1.458.73 3.103 1.142 4.844 1.142 5.981 0 10.829-4.848 10.829-10.829 0-1.741-.412-3.386-1.142-4.844 3.548 1.778 5.985 5.448 5.985 9.687 0 5.981-4.848 10.829-10.829 10.829-4.24 0-7.909-2.437-9.687-5.985z" fill="url(#SVGID_11_)"/></g><g><circle cx="106.351" cy="88.672" fill="url(#SVGID_12_)" r="10.829"/><path d="m96.665 93.516c1.458.73 3.103 1.142 4.844 1.142 5.98 0 10.829-4.848 10.829-10.829 0-1.741-.412-3.386-1.142-4.844 3.548 1.778 5.985 5.448 5.985 9.687 0 5.981-4.848 10.829-10.829 10.829-4.24 0-7.909-2.437-9.687-5.985z" fill="url(#SVGID_13_)"/></g><g><circle cx="124.443" cy="88.964" fill="url(#SVGID_14_)" r="10.829"/><path d="m114.756 93.808c1.458.73 3.103 1.142 4.844 1.142 5.981 0 10.829-4.848 10.829-10.829 0-1.741-.412-3.386-1.142-4.844 3.548 1.778 5.985 5.448 5.985 9.687 0 5.981-4.848 10.829-10.829 10.829-4.239-.001-7.909-2.437-9.687-5.985z" fill="url(#SVGID_15_)"/></g><g><circle cx="143.702" cy="87.65" fill="url(#SVGID_16_)" r="10.829"/><path d="m134.015 92.494c1.458.73 3.103 1.142 4.844 1.142 5.981 0 10.829-4.848 10.829-10.829 0-1.741-.412-3.386-1.142-4.844 3.548 1.778 5.985 5.448 5.985 9.687 0 5.98-4.848 10.829-10.829 10.829-4.239 0-7.909-2.436-9.687-5.985z" fill="url(#SVGID_17_)"/></g><g><circle cx="162.961" cy="90.568" fill="url(#SVGID_18_)" r="10.829"/><path d="m153.274 95.413c1.458.73 3.103 1.142 4.844 1.142 5.981 0 10.829-4.848 10.829-10.829 0-1.741-.412-3.386-1.142-4.844 3.548 1.778 5.985 5.448 5.985 9.687 0 5.981-4.848 10.829-10.829 10.829-4.239-.001-7.909-2.437-9.687-5.985z" fill="url(#SVGID_19_)"/></g><g><circle cx="178.718" cy="102.824" fill="url(#SVGID_20_)" r="10.829"/><path d="m169.032 107.668c1.458.73 3.103 1.142 4.844 1.142 5.98 0 10.829-4.848 10.829-10.829 0-1.741-.412-3.386-1.142-4.844 3.549 1.778 5.985 5.448 5.985 9.687 0 5.981-4.848 10.829-10.829 10.829-4.24 0-7.909-2.436-9.687-5.985z" fill="url(#SVGID_21_)"/></g><g><circle cx="163.545" cy="106.909" fill="url(#SVGID_22_)" r="10.829"/><path d="m153.858 111.753c1.458.73 3.103 1.142 4.844 1.142 5.981 0 10.829-4.848 10.829-10.829 0-1.741-.412-3.386-1.142-4.844 3.548 1.778 5.985 5.448 5.985 9.687 0 5.98-4.848 10.829-10.829 10.829-4.239 0-7.909-2.436-9.687-5.985z" fill="url(#SVGID_23_)"/></g><g><circle cx="150.122" cy="102.241" fill="url(#SVGID_24_)" r="10.829"/><path d="m140.435 107.085c1.458.73 3.103 1.142 4.844 1.142 5.981 0 10.829-4.848 10.829-10.829 0-1.741-.412-3.386-1.142-4.844 3.549 1.778 5.985 5.448 5.985 9.687 0 5.981-4.848 10.829-10.829 10.829-4.239-.001-7.909-2.437-9.687-5.985z" fill="url(#SVGID_25_)"/></g><g><circle cx="136.115" cy="103.408" fill="url(#SVGID_26_)" r="10.829"/><path d="m126.428 108.252c1.458.73 3.103 1.142 4.844 1.142 5.98 0 10.829-4.848 10.829-10.829 0-1.741-.412-3.386-1.142-4.844 3.548 1.778 5.985 5.448 5.985 9.687 0 5.981-4.848 10.829-10.829 10.829-4.239 0-7.909-2.437-9.687-5.985z" fill="url(#SVGID_27_)"/></g><g><circle cx="116.856" cy="103.408" fill="url(#SVGID_28_)" r="10.829"/><path d="m107.17 108.252c1.458.73 3.103 1.142 4.844 1.142 5.98 0 10.829-4.848 10.829-10.829 0-1.741-.412-3.386-1.142-4.844 3.548 1.778 5.985 5.448 5.985 9.687 0 5.981-4.848 10.829-10.829 10.829-4.24 0-7.91-2.437-9.687-5.985z" fill="url(#SVGID_29_)"/></g><g><circle cx="101.099" cy="103.408" fill="url(#SVGID_30_)" r="10.829"/><path d="m91.412 108.252c1.458.73 3.103 1.142 4.844 1.142 5.981 0 10.829-4.848 10.829-10.829 0-1.741-.412-3.386-1.142-4.844 3.549 1.778 5.985 5.448 5.985 9.687 0 5.981-4.848 10.829-10.829 10.829-4.239 0-7.909-2.437-9.687-5.985z" fill="url(#SVGID_31_)"/></g><g><circle cx="85.342" cy="106.909" fill="url(#SVGID_32_)" r="10.829"/><path d="m75.655 111.753c1.458.73 3.103 1.142 4.844 1.142 5.98 0 10.829-4.848 10.829-10.829 0-1.741-.412-3.386-1.142-4.844 3.548 1.778 5.985 5.448 5.985 9.687 0 5.98-4.848 10.829-10.829 10.829-4.24 0-7.909-2.436-9.687-5.985z" fill="url(#SVGID_33_)"/></g><g><circle cx="98.764" cy="120.332" fill="url(#SVGID_34_)" r="10.829"/><path d="m89.078 125.176c1.458.73 3.103 1.142 4.844 1.142 5.981 0 10.829-4.848 10.829-10.829 0-1.741-.412-3.386-1.142-4.844 3.549 1.778 5.985 5.448 5.985 9.687 0 5.981-4.848 10.829-10.829 10.829-4.24 0-7.909-2.436-9.687-5.985z" fill="url(#SVGID_35_)"/></g><g><circle cx="115.689" cy="117.414" fill="url(#SVGID_36_)" r="10.829"/><path d="m106.002 122.258c1.458.73 3.103 1.142 4.844 1.142 5.98 0 10.829-4.848 10.829-10.829 0-1.741-.412-3.386-1.142-4.844 3.548 1.778 5.985 5.448 5.985 9.687 0 5.98-4.848 10.829-10.829 10.829-4.239 0-7.909-2.436-9.687-5.985z" fill="url(#SVGID_37_)"/></g><g><circle cx="129.112" cy="116.247" fill="url(#SVGID_38_)" r="10.829"/><path d="m119.425 121.091c1.458.73 3.103 1.142 4.844 1.142 5.981 0 10.829-4.848 10.829-10.829 0-1.741-.412-3.386-1.142-4.844 3.548 1.778 5.985 5.448 5.985 9.687 0 5.98-4.848 10.829-10.829 10.829-4.239 0-7.909-2.436-9.687-5.985z" fill="url(#SVGID_39_)"/></g><g><circle cx="148.955" cy="119.165" fill="url(#SVGID_40_)" r="10.829"/><path d="m139.268 124.009c1.458.73 3.103 1.142 4.844 1.142 5.981 0 10.829-4.848 10.829-10.829 0-1.741-.412-3.386-1.142-4.844 3.548 1.778 5.985 5.448 5.985 9.687 0 5.981-4.848 10.829-10.829 10.829-4.24 0-7.909-2.436-9.687-5.985z" fill="url(#SVGID_41_)"/></g><g><circle cx="172.299" cy="120.332" fill="url(#SVGID_42_)" r="10.829"/><path d="m162.612 125.176c1.458.73 3.103 1.142 4.844 1.142 5.981 0 10.829-4.848 10.829-10.829 0-1.741-.412-3.386-1.142-4.844 3.548 1.778 5.985 5.448 5.985 9.687 0 5.981-4.848 10.829-10.829 10.829-4.239 0-7.909-2.436-9.687-5.985z" fill="url(#SVGID_43_)"/></g><g><circle cx="158.876" cy="126.168" fill="url(#SVGID_44_)" r="10.829"/><path d="m149.189 131.012c1.458.73 3.103 1.142 4.844 1.142 5.981 0 10.829-4.848 10.829-10.829 0-1.741-.412-3.386-1.142-4.844 3.548 1.778 5.985 5.448 5.985 9.687 0 5.98-4.848 10.829-10.829 10.829-4.239 0-7.909-2.436-9.687-5.985z" fill="url(#SVGID_45_)"/></g><g><circle cx="74.837" cy="116.831" fill="url(#SVGID_46_)" r="10.829"/><path d="m65.15 121.675c1.458.73 3.103 1.142 4.844 1.142 5.98 0 10.829-4.848 10.829-10.829 0-1.741-.412-3.386-1.142-4.844 3.548 1.778 5.985 5.448 5.985 9.687 0 5.98-4.848 10.829-10.829 10.829-4.24-.001-7.909-2.437-9.687-5.985z" fill="url(#SVGID_47_)"/></g><g><circle cx="86.509" cy="127.919" fill="url(#SVGID_48_)" r="10.829"/><path d="m76.822 132.763c1.458.73 3.103 1.142 4.844 1.142 5.98 0 10.829-4.848 10.829-10.829 0-1.741-.412-3.386-1.142-4.844 3.548 1.778 5.985 5.447 5.985 9.687 0 5.981-4.848 10.829-10.829 10.829-4.239 0-7.909-2.436-9.687-5.985z" fill="url(#SVGID_49_)"/></g><g><circle cx="109.269" cy="133.172" fill="url(#SVGID_50_)" r="10.829"/><path d="m99.583 138.016c1.458.73 3.103 1.142 4.844 1.142 5.981 0 10.829-4.848 10.829-10.829 0-1.741-.412-3.386-1.142-4.844 3.549 1.778 5.985 5.448 5.985 9.687 0 5.981-4.848 10.829-10.829 10.829-4.24-.001-7.909-2.437-9.687-5.985z" fill="url(#SVGID_51_)"/></g><g><circle cx="126.194" cy="130.837" fill="url(#SVGID_52_)" r="10.829"/><path d="m116.507 135.681c1.458.73 3.103 1.142 4.844 1.142 5.98 0 10.829-4.848 10.829-10.829 0-1.741-.412-3.386-1.142-4.844 3.548 1.778 5.985 5.447 5.985 9.687 0 5.981-4.848 10.829-10.829 10.829-4.239 0-7.909-2.436-9.687-5.985z" fill="url(#SVGID_53_)"/></g><g><circle cx="142.535" cy="130.837" fill="url(#SVGID_54_)" r="10.829"/><path d="m132.848 135.681c1.458.73 3.103 1.142 4.844 1.142 5.981 0 10.829-4.848 10.829-10.829 0-1.741-.412-3.386-1.142-4.844 3.548 1.778 5.985 5.447 5.985 9.687 0 5.981-4.848 10.829-10.829 10.829-4.239 0-7.909-2.436-9.687-5.985z" fill="url(#SVGID_55_)"/></g><g><circle cx="98.764" cy="138.424" fill="url(#SVGID_56_)" r="10.829"/><path d="m89.078 143.268c1.458.73 3.103 1.142 4.844 1.142 5.981 0 10.829-4.848 10.829-10.829 0-1.741-.412-3.386-1.142-4.844 3.549 1.778 5.985 5.447 5.985 9.687 0 5.981-4.848 10.829-10.829 10.829-4.24 0-7.909-2.436-9.687-5.985z" fill="url(#SVGID_57_)"/></g><g><circle cx="116.856" cy="147.178" fill="url(#SVGID_58_)" r="10.829"/><path d="m107.17 152.022c1.458.73 3.103 1.142 4.844 1.142 5.98 0 10.829-4.848 10.829-10.829 0-1.741-.412-3.386-1.142-4.844 3.548 1.778 5.985 5.447 5.985 9.687 0 5.98-4.848 10.829-10.829 10.829-4.24 0-7.91-2.436-9.687-5.985z" fill="url(#SVGID_59_)"/></g><g><circle cx="135.678" cy="146.303" fill="url(#SVGID_60_)" r="10.829"/><path d="m125.991 151.147c1.458.73 3.103 1.142 4.844 1.142 5.98 0 10.829-4.848 10.829-10.829 0-1.741-.412-3.386-1.142-4.844 3.548 1.778 5.985 5.448 5.985 9.687 0 5.98-4.848 10.829-10.829 10.829-4.24 0-7.909-2.437-9.687-5.985z" fill="url(#SVGID_61_)"/></g><g><circle cx="155.52" cy="143.239" fill="url(#SVGID_62_)" r="10.829"/><path d="m145.833 148.083c1.458.73 3.103 1.142 4.844 1.142 5.981 0 10.829-4.848 10.829-10.829 0-1.741-.412-3.386-1.142-4.844 3.548 1.778 5.985 5.448 5.985 9.687 0 5.981-4.848 10.829-10.829 10.829-4.239 0-7.909-2.437-9.687-5.985z" fill="url(#SVGID_63_)"/></g><g><circle cx="171.132" cy="137.257" fill="url(#SVGID_64_)" r="10.829"/><path d="m161.445 142.101c1.458.73 3.103 1.142 4.844 1.142 5.981 0 10.829-4.848 10.829-10.829 0-1.741-.412-3.386-1.142-4.844 3.549 1.778 5.985 5.447 5.985 9.687 0 5.98-4.848 10.829-10.829 10.829-4.24 0-7.909-2.437-9.687-5.985z" fill="url(#SVGID_65_)"/></g><g><circle cx="186.743" cy="126.46" fill="url(#SVGID_66_)" r="10.829"/><path d="m177.056 131.304c1.458.73 3.103 1.142 4.844 1.142 5.98 0 10.829-4.848 10.829-10.829 0-1.741-.412-3.386-1.142-4.844 3.548 1.778 5.985 5.447 5.985 9.687 0 5.98-4.848 10.829-10.829 10.829-4.239 0-7.909-2.436-9.687-5.985z" fill="url(#SVGID_67_)"/></g><g><circle cx="71.335" cy="134.339" fill="url(#SVGID_68_)" r="10.829"/><path d="m61.648 139.183c1.458.73 3.103 1.142 4.844 1.142 5.981 0 10.829-4.848 10.829-10.829 0-1.741-.412-3.386-1.142-4.844 3.548 1.778 5.985 5.448 5.985 9.687 0 5.98-4.848 10.829-10.829 10.829-4.239 0-7.909-2.437-9.687-5.985z" fill="url(#SVGID_69_)"/></g><g><circle cx="83.007" cy="147.178" fill="url(#SVGID_70_)" r="10.829"/><path d="m73.32 152.022c1.458.73 3.103 1.142 4.844 1.142 5.981 0 10.829-4.848 10.829-10.829 0-1.741-.412-3.386-1.142-4.844 3.548 1.778 5.985 5.447 5.985 9.687 0 5.98-4.848 10.829-10.829 10.829-4.239 0-7.909-2.436-9.687-5.985z" fill="url(#SVGID_71_)"/></g><g><circle cx="100.515" cy="153.014" fill="url(#SVGID_72_)" r="10.829"/><path d="m90.829 157.858c1.458.73 3.103 1.142 4.844 1.142 5.981 0 10.829-4.848 10.829-10.829 0-1.741-.412-3.386-1.142-4.844 3.549 1.778 5.985 5.448 5.985 9.687 0 5.981-4.848 10.829-10.829 10.829-4.24 0-7.91-2.436-9.687-5.985z" fill="url(#SVGID_73_)"/></g><g><circle cx="121.525" cy="158.267" fill="url(#SVGID_74_)" r="10.829"/><path d="m111.838 163.111c1.458.73 3.103 1.142 4.844 1.142 5.981 0 10.829-4.848 10.829-10.829 0-1.741-.412-3.386-1.142-4.844 3.548 1.778 5.985 5.448 5.985 9.687 0 5.981-4.848 10.829-10.829 10.829-4.239 0-7.909-2.437-9.687-5.985z" fill="url(#SVGID_75_)"/></g><g><circle cx="142.973" cy="158.559" fill="url(#SVGID_76_)" r="10.829"/><path d="m133.286 163.403c1.458.73 3.103 1.142 4.844 1.142 5.981 0 10.829-4.848 10.829-10.829 0-1.741-.412-3.386-1.142-4.844 3.548 1.778 5.985 5.447 5.985 9.687 0 5.981-4.848 10.829-10.829 10.829-4.24-.001-7.909-2.437-9.687-5.985z" fill="url(#SVGID_77_)"/></g><g><circle cx="162.815" cy="154.036" fill="url(#SVGID_78_)" r="10.829"/><path d="m153.128 158.88c1.458.73 3.103 1.142 4.844 1.142 5.981 0 10.829-4.848 10.829-10.829 0-1.741-.412-3.386-1.142-4.844 3.548 1.778 5.985 5.448 5.985 9.687 0 5.981-4.848 10.829-10.829 10.829-4.239-.001-7.909-2.437-9.687-5.985z" fill="url(#SVGID_79_)"/></g><g><circle cx="182.074" cy="145.136" fill="url(#SVGID_80_)" r="10.829"/><path d="m172.387 149.98c1.458.73 3.103 1.142 4.844 1.142 5.981 0 10.829-4.848 10.829-10.829 0-1.741-.412-3.386-1.142-4.844 3.548 1.778 5.985 5.448 5.985 9.687 0 5.98-4.848 10.829-10.829 10.829-4.239-.001-7.909-2.437-9.687-5.985z" fill="url(#SVGID_81_)"/></g></g></g><g><path d="m510 137.497c0-42.342-255-42.342-255 0v99.635c0 42.342 57.084 76.667 127.5 76.667s127.5-34.325 127.5-76.667c0-.327 0-99.635 0-99.635z" fill="url(#SVGID_82_)"/><ellipse cx="382.5" cy="137.497" fill="url(#SVGID_83_)" rx="127.5" ry="76.667"/><ellipse cx="382.5" cy="131.855" fill="url(#SVGID_84_)" rx="91.943" ry="52.607"/><ellipse cx="382.5" cy="131.855" fill="url(#SVGID_85_)" rx="85.276" ry="47.607"/><path d="m313.322 104.034c-9.71 7.512-7.851 22.906 3.421 27.77 5.834 2.517 12.494 3.944 19.569 3.944 23.013 0 41.669-15.09 41.669-33.705 0-.064 0-.128-.001-.191-.068-9.96-9.247-17.319-19.082-15.741-18.575 2.98-34.546 9.389-45.576 17.923z" fill="url(#SVGID_86_)"/><g><path d="m370.642 82.677c-.065-.061-1.892-1.898-1.892-1.898-.085-.079-.17-.157-.257-.234-.3-.264-.611-.513-.939-.743-.036-.025-.068-.054-.104-.078-.365-.249-.749-.471-1.143-.674-.038-.02-.072-.046-.11-.065.003.005.004.01.007.015-1.461-.734-3.104-1.157-4.85-1.157-4.997 0-9.193 3.39-10.44 7.993-.112-.114-.229-.221-.345-.33-.085-.08-.17-.157-.257-.234-.3-.264-.611-.513-.939-.743-.035-.025-.068-.053-.104-.078-.365-.249-.748-.471-1.143-.674-.038-.02-.072-.046-.11-.065.003.005.004.01.007.015-1.461-.734-3.105-1.157-4.851-1.157-5.632 0-10.256 4.3-10.777 9.796-.017-.012-.034-.024-.05-.035-.365-.249-.748-.471-1.143-.674-.038-.02-.072-.046-.11-.065.002.005.004.01.006.015-1.461-.734-3.104-1.157-4.85-1.157-5.981 0-10.829 4.848-10.829 10.829 0 .392.028.777.07 1.158 15.614-11.07 39.819-18.186 67.016-18.186 25.66 0 48.655 6.336 64.288 16.348-3.373-3.372-5.606-5.603-5.672-5.665-.085-.079-.17-.157-.257-.234-.3-.264-.611-.513-.939-.743-.036-.025-.068-.053-.104-.078-.365-.249-.748-.471-1.143-.674-.038-.02-.072-.046-.11-.065.002.005.004.01.007.015-1.19-.598-2.506-.975-3.896-1.1l-8.149-8.077c-.085-.111-.158-.232-.247-.339-.033-.04-.071-.076-.105-.115-.255-.297-.528-.577-.813-.845-.085-.079-.17-.157-.257-.234-.3-.264-.611-.513-.939-.743-.036-.025-.069-.054-.104-.078-.365-.249-.748-.471-1.143-.674-.038-.02-.072-.046-.11-.065.003.005.004.01.007.015-1.461-.734-3.104-1.157-4.85-1.157-3.263 0-6.183 1.448-8.167 3.731-.016-.014-.031-.029-.047-.043l-2.481-2.37c-.085-.111-.158-.231-.247-.339-.033-.04-.071-.076-.105-.115-.255-.297-.528-.577-.813-.845-.085-.079-.17-.157-.257-.234-.3-.264-.611-.513-.939-.743-.036-.025-.069-.054-.104-.078-.365-.249-.749-.471-1.143-.674-.038-.02-.072-.046-.11-.065.002.005.004.01.007.015-1.461-.734-3.104-1.157-4.85-1.157-4.358 0-8.107 2.578-9.825 6.288l-2.036-2.039c-.085-.079-.17-.157-.257-.234-.3-.264-.611-.513-.939-.743-.036-.025-.068-.053-.104-.078-.365-.249-.748-.471-1.143-.674-.038-.02-.072-.046-.11-.065.002.005.004.01.007.015-1.461-.734-3.104-1.157-4.851-1.157-3.645-.004-6.849 1.793-8.813 4.538z" fill="url(#SVGID_87_)"/></g><path d="m467.776 131.855c0-4.891-1.325-9.608-3.779-14.049-6.219-6.22-12.727-12.73-17.208-17.209-15.634-10.013-38.629-16.349-64.289-16.349-27.197 0-51.402 7.117-67.016 18.186.143 1.315.518 2.56 1.087 3.693-.005-.002-.01-.004-.015-.006.019.038.045.072.065.11.204.395.425.778.674 1.143.024.036.053.069.078.104.23.328.48.64.743.94.077.087.154.172.233.257.268.286.549.559.846.814l1.514 1.531c-1.073 1.68-1.703 3.67-1.703 5.811 0 1.746.423 3.39 1.157 4.85-.005-.002-.01-.004-.015-.007.019.038.045.072.065.11.204.395.425.778.674 1.143.025.036.053.069.078.104.23.328.479.639.743.939.077.087.154.173.234.257.046.049.09.102.137.151-3.866 1.653-6.575 5.489-6.575 9.959 0 1.746.423 3.39 1.157 4.85-.005-.002-.01-.004-.015-.007.019.038.046.072.065.111.204.395.425.778.674 1.143.025.036.054.069.079.106.229.327.479.639.742.938l9.759 9.759c.015.017.031.034.046.051.103.249.201.5.321.739-.005-.003-.01-.004-.015-.007.019.038.045.072.065.11.204.395.426.779.675 1.144.024.035.052.068.077.103.23.328.48.64.744.94l21.958 21.958c9.518 2.049 19.849 3.184 30.661 3.184 47.099.002 85.279-21.312 85.279-47.604z" fill="url(#SVGID_88_)"/><g><g><circle cx="326.243" cy="101.276" fill="url(#SVGID_89_)" r="10.829"/><path d="m316.556 106.121c1.458.73 3.103 1.142 4.844 1.142 5.981 0 10.829-4.848 10.829-10.829 0-1.741-.412-3.386-1.142-4.844 3.548 1.778 5.985 5.448 5.985 9.687 0 5.98-4.848 10.829-10.829 10.829-4.239-.001-7.909-2.437-9.687-5.985z" fill="url(#SVGID_90_)"/></g><g><circle cx="343.168" cy="93.398" fill="url(#SVGID_91_)" r="10.829"/><path d="m333.481 98.242c1.458.73 3.103 1.142 4.844 1.142 5.98 0 10.829-4.848 10.829-10.829 0-1.741-.412-3.386-1.142-4.844 3.548 1.778 5.985 5.448 5.985 9.687 0 5.981-4.848 10.829-10.829 10.829-4.24 0-7.909-2.437-9.687-5.985z" fill="url(#SVGID_92_)"/></g><g><circle cx="361.351" cy="88.672" fill="url(#SVGID_93_)" r="10.829"/><path d="m351.665 93.516c1.458.73 3.103 1.142 4.844 1.142 5.98 0 10.829-4.848 10.829-10.829 0-1.741-.412-3.386-1.142-4.844 3.548 1.778 5.985 5.448 5.985 9.687 0 5.981-4.848 10.829-10.829 10.829-4.24 0-7.909-2.437-9.687-5.985z" fill="url(#SVGID_94_)"/></g><g><circle cx="379.443" cy="88.964" fill="url(#SVGID_95_)" r="10.829"/><path d="m369.756 93.808c1.458.73 3.103 1.142 4.844 1.142 5.981 0 10.829-4.848 10.829-10.829 0-1.741-.412-3.386-1.142-4.844 3.548 1.778 5.985 5.448 5.985 9.687 0 5.981-4.848 10.829-10.829 10.829-4.239-.001-7.909-2.437-9.687-5.985z" fill="url(#SVGID_96_)"/></g><g><circle cx="398.702" cy="87.65" fill="url(#SVGID_97_)" r="10.829"/><path d="m389.015 92.494c1.458.73 3.103 1.142 4.844 1.142 5.981 0 10.829-4.848 10.829-10.829 0-1.741-.412-3.386-1.142-4.844 3.548 1.778 5.985 5.448 5.985 9.687 0 5.98-4.848 10.829-10.829 10.829-4.239 0-7.909-2.436-9.687-5.985z" fill="url(#SVGID_98_)"/></g><g><circle cx="417.961" cy="90.568" fill="url(#SVGID_99_)" r="10.829"/><path d="m408.274 95.413c1.458.73 3.103 1.142 4.844 1.142 5.981 0 10.829-4.848 10.829-10.829 0-1.741-.412-3.386-1.142-4.844 3.548 1.778 5.985 5.448 5.985 9.687 0 5.981-4.848 10.829-10.829 10.829-4.239-.001-7.909-2.437-9.687-5.985z" fill="url(#SVGID_100_)"/></g><g><circle cx="433.718" cy="102.824" fill="url(#SVGID_101_)" r="10.829"/><path d="m424.032 107.668c1.458.73 3.103 1.142 4.844 1.142 5.98 0 10.829-4.848 10.829-10.829 0-1.741-.412-3.386-1.142-4.844 3.549 1.778 5.985 5.448 5.985 9.687 0 5.981-4.848 10.829-10.829 10.829-4.24 0-7.909-2.436-9.687-5.985z" fill="url(#SVGID_102_)"/></g><g><circle cx="418.545" cy="106.909" fill="url(#SVGID_103_)" r="10.829"/><path d="m408.858 111.753c1.458.73 3.103 1.142 4.844 1.142 5.981 0 10.829-4.848 10.829-10.829 0-1.741-.412-3.386-1.142-4.844 3.548 1.778 5.985 5.448 5.985 9.687 0 5.98-4.848 10.829-10.829 10.829-4.239 0-7.909-2.436-9.687-5.985z" fill="url(#SVGID_104_)"/></g><g><circle cx="405.122" cy="102.241" fill="url(#SVGID_105_)" r="10.829"/><path d="m395.435 107.085c1.458.73 3.103 1.142 4.844 1.142 5.981 0 10.829-4.848 10.829-10.829 0-1.741-.412-3.386-1.142-4.844 3.548 1.778 5.985 5.448 5.985 9.687 0 5.981-4.848 10.829-10.829 10.829-4.239-.001-7.909-2.437-9.687-5.985z" fill="url(#SVGID_106_)"/></g><g><circle cx="391.115" cy="103.408" fill="url(#SVGID_107_)" r="10.829"/><path d="m381.428 108.252c1.458.73 3.103 1.142 4.844 1.142 5.98 0 10.829-4.848 10.829-10.829 0-1.741-.412-3.386-1.142-4.844 3.548 1.778 5.985 5.448 5.985 9.687 0 5.981-4.848 10.829-10.829 10.829-4.239 0-7.909-2.437-9.687-5.985z" fill="url(#SVGID_108_)"/></g><g><circle cx="371.856" cy="103.408" fill="url(#SVGID_109_)" r="10.829"/><path d="m362.17 108.252c1.458.73 3.103 1.142 4.844 1.142 5.98 0 10.829-4.848 10.829-10.829 0-1.741-.412-3.386-1.142-4.844 3.548 1.778 5.985 5.448 5.985 9.687 0 5.981-4.848 10.829-10.829 10.829-4.24 0-7.91-2.437-9.687-5.985z" fill="url(#SVGID_110_)"/></g><g><circle cx="356.099" cy="103.408" fill="url(#SVGID_111_)" r="10.829"/><path d="m346.412 108.252c1.458.73 3.103 1.142 4.844 1.142 5.981 0 10.829-4.848 10.829-10.829 0-1.741-.412-3.386-1.142-4.844 3.548 1.778 5.985 5.448 5.985 9.687 0 5.981-4.848 10.829-10.829 10.829-4.239 0-7.909-2.437-9.687-5.985z" fill="url(#SVGID_112_)"/></g><g><circle cx="340.342" cy="106.909" fill="url(#SVGID_113_)" r="10.829"/><path d="m330.655 111.753c1.458.73 3.103 1.142 4.844 1.142 5.98 0 10.829-4.848 10.829-10.829 0-1.741-.412-3.386-1.142-4.844 3.548 1.778 5.985 5.448 5.985 9.687 0 5.98-4.848 10.829-10.829 10.829-4.24 0-7.909-2.436-9.687-5.985z" fill="url(#SVGID_114_)"/></g><g><circle cx="353.764" cy="120.332" fill="url(#SVGID_115_)" r="10.829"/><path d="m344.078 125.176c1.458.73 3.103 1.142 4.844 1.142 5.981 0 10.829-4.848 10.829-10.829 0-1.741-.412-3.386-1.142-4.844 3.549 1.778 5.985 5.448 5.985 9.687 0 5.981-4.848 10.829-10.829 10.829-4.24 0-7.909-2.436-9.687-5.985z" fill="url(#SVGID_116_)"/></g><g><circle cx="370.689" cy="117.414" fill="url(#SVGID_117_)" r="10.829"/><path d="m361.002 122.258c1.458.73 3.103 1.142 4.844 1.142 5.98 0 10.829-4.848 10.829-10.829 0-1.741-.412-3.386-1.142-4.844 3.548 1.778 5.985 5.448 5.985 9.687 0 5.98-4.848 10.829-10.829 10.829-4.239 0-7.909-2.436-9.687-5.985z" fill="url(#SVGID_118_)"/></g><g><circle cx="384.112" cy="116.247" fill="url(#SVGID_119_)" r="10.829"/><path d="m374.425 121.091c1.458.73 3.103 1.142 4.844 1.142 5.981 0 10.829-4.848 10.829-10.829 0-1.741-.412-3.386-1.142-4.844 3.548 1.778 5.985 5.448 5.985 9.687 0 5.98-4.848 10.829-10.829 10.829-4.239 0-7.909-2.436-9.687-5.985z" fill="url(#SVGID_120_)"/></g><g><circle cx="403.955" cy="119.165" fill="url(#SVGID_121_)" r="10.829"/><path d="m394.268 124.009c1.458.73 3.103 1.142 4.844 1.142 5.981 0 10.829-4.848 10.829-10.829 0-1.741-.412-3.386-1.142-4.844 3.548 1.778 5.985 5.448 5.985 9.687 0 5.981-4.848 10.829-10.829 10.829-4.24 0-7.909-2.436-9.687-5.985z" fill="url(#SVGID_122_)"/></g><g><circle cx="427.299" cy="120.332" fill="url(#SVGID_123_)" r="10.829"/><path d="m417.612 125.176c1.458.73 3.103 1.142 4.844 1.142 5.981 0 10.829-4.848 10.829-10.829 0-1.741-.412-3.386-1.142-4.844 3.548 1.778 5.985 5.448 5.985 9.687 0 5.981-4.848 10.829-10.829 10.829-4.239 0-7.909-2.436-9.687-5.985z" fill="url(#SVGID_124_)"/></g><g><circle cx="413.876" cy="126.168" fill="url(#SVGID_125_)" r="10.829"/><path d="m404.189 131.012c1.458.73 3.103 1.142 4.844 1.142 5.981 0 10.829-4.848 10.829-10.829 0-1.741-.412-3.386-1.142-4.844 3.548 1.778 5.985 5.448 5.985 9.687 0 5.98-4.848 10.829-10.829 10.829-4.239 0-7.909-2.436-9.687-5.985z" fill="url(#SVGID_126_)"/></g><g><circle cx="329.837" cy="116.831" fill="url(#SVGID_127_)" r="10.829"/><path d="m320.15 121.675c1.458.73 3.103 1.142 4.844 1.142 5.98 0 10.829-4.848 10.829-10.829 0-1.741-.412-3.386-1.142-4.844 3.548 1.778 5.985 5.448 5.985 9.687 0 5.98-4.848 10.829-10.829 10.829-4.24-.001-7.909-2.437-9.687-5.985z" fill="url(#SVGID_128_)"/></g><g><circle cx="341.509" cy="127.919" fill="url(#SVGID_129_)" r="10.829"/><path d="m331.822 132.763c1.458.73 3.103 1.142 4.844 1.142 5.98 0 10.829-4.848 10.829-10.829 0-1.741-.412-3.386-1.142-4.844 3.548 1.778 5.985 5.447 5.985 9.687 0 5.981-4.848 10.829-10.829 10.829-4.239 0-7.909-2.436-9.687-5.985z" fill="url(#SVGID_130_)"/></g><g><circle cx="364.269" cy="133.172" fill="url(#SVGID_131_)" r="10.829"/><path d="m354.583 138.016c1.458.73 3.103 1.142 4.844 1.142 5.981 0 10.829-4.848 10.829-10.829 0-1.741-.412-3.386-1.142-4.844 3.549 1.778 5.985 5.448 5.985 9.687 0 5.981-4.848 10.829-10.829 10.829-4.24-.001-7.909-2.437-9.687-5.985z" fill="url(#SVGID_132_)"/></g><g><circle cx="381.194" cy="130.837" fill="url(#SVGID_133_)" r="10.829"/><path d="m371.507 135.681c1.458.73 3.103 1.142 4.844 1.142 5.98 0 10.829-4.848 10.829-10.829 0-1.741-.412-3.386-1.142-4.844 3.548 1.778 5.985 5.447 5.985 9.687 0 5.981-4.848 10.829-10.829 10.829-4.239 0-7.909-2.436-9.687-5.985z" fill="url(#SVGID_134_)"/></g><g><circle cx="397.535" cy="130.837" fill="url(#SVGID_135_)" r="10.829"/><path d="m387.848 135.681c1.458.73 3.103 1.142 4.844 1.142 5.981 0 10.829-4.848 10.829-10.829 0-1.741-.412-3.386-1.142-4.844 3.548 1.778 5.985 5.447 5.985 9.687 0 5.981-4.848 10.829-10.829 10.829-4.239 0-7.909-2.436-9.687-5.985z" fill="url(#SVGID_136_)"/></g><g><circle cx="353.764" cy="138.424" fill="url(#SVGID_137_)" r="10.829"/><path d="m344.078 143.268c1.458.73 3.103 1.142 4.844 1.142 5.981 0 10.829-4.848 10.829-10.829 0-1.741-.412-3.386-1.142-4.844 3.549 1.778 5.985 5.447 5.985 9.687 0 5.981-4.848 10.829-10.829 10.829-4.24 0-7.909-2.436-9.687-5.985z" fill="url(#SVGID_138_)"/></g><g><circle cx="371.856" cy="147.178" fill="url(#SVGID_139_)" r="10.829"/><path d="m362.17 152.022c1.458.73 3.103 1.142 4.844 1.142 5.98 0 10.829-4.848 10.829-10.829 0-1.741-.412-3.386-1.142-4.844 3.548 1.778 5.985 5.447 5.985 9.687 0 5.98-4.848 10.829-10.829 10.829-4.24 0-7.91-2.436-9.687-5.985z" fill="url(#SVGID_140_)"/></g><g><circle cx="390.678" cy="146.303" fill="url(#SVGID_141_)" r="10.829"/><path d="m380.991 151.147c1.458.73 3.103 1.142 4.844 1.142 5.98 0 10.829-4.848 10.829-10.829 0-1.741-.412-3.386-1.142-4.844 3.548 1.778 5.985 5.448 5.985 9.687 0 5.98-4.848 10.829-10.829 10.829-4.24 0-7.909-2.437-9.687-5.985z" fill="url(#SVGID_142_)"/></g><g><circle cx="410.52" cy="143.239" fill="url(#SVGID_143_)" r="10.829"/><path d="m400.833 148.083c1.458.73 3.103 1.142 4.844 1.142 5.98 0 10.829-4.848 10.829-10.829 0-1.741-.412-3.386-1.142-4.844 3.548 1.778 5.985 5.448 5.985 9.687 0 5.981-4.848 10.829-10.829 10.829-4.239 0-7.909-2.437-9.687-5.985z" fill="url(#SVGID_144_)"/></g><g><circle cx="426.132" cy="137.257" fill="url(#SVGID_145_)" r="10.829"/><path d="m416.445 142.101c1.458.73 3.103 1.142 4.844 1.142 5.981 0 10.829-4.848 10.829-10.829 0-1.741-.412-3.386-1.142-4.844 3.548 1.778 5.985 5.447 5.985 9.687 0 5.98-4.848 10.829-10.829 10.829-4.24 0-7.909-2.437-9.687-5.985z" fill="url(#SVGID_146_)"/></g><g><circle cx="441.743" cy="126.46" fill="url(#SVGID_147_)" r="10.829"/><path d="m432.056 131.304c1.458.73 3.103 1.142 4.844 1.142 5.98 0 10.829-4.848 10.829-10.829 0-1.741-.412-3.386-1.142-4.844 3.548 1.778 5.985 5.447 5.985 9.687 0 5.98-4.848 10.829-10.829 10.829-4.239 0-7.909-2.436-9.687-5.985z" fill="url(#SVGID_148_)"/></g><g><circle cx="326.335" cy="134.339" fill="url(#SVGID_149_)" r="10.829"/><path d="m316.648 139.183c1.458.73 3.103 1.142 4.844 1.142 5.981 0 10.829-4.848 10.829-10.829 0-1.741-.412-3.386-1.142-4.844 3.548 1.778 5.985 5.448 5.985 9.687 0 5.98-4.848 10.829-10.829 10.829-4.239 0-7.909-2.437-9.687-5.985z" fill="url(#SVGID_150_)"/></g><g><circle cx="338.007" cy="147.178" fill="url(#SVGID_151_)" r="10.829"/><path d="m328.32 152.022c1.458.73 3.103 1.142 4.844 1.142 5.981 0 10.829-4.848 10.829-10.829 0-1.741-.412-3.386-1.142-4.844 3.548 1.778 5.985 5.447 5.985 9.687 0 5.98-4.848 10.829-10.829 10.829-4.239 0-7.909-2.436-9.687-5.985z" fill="url(#SVGID_152_)"/></g><g><circle cx="355.515" cy="153.014" fill="url(#SVGID_153_)" r="10.829"/><path d="m345.829 157.858c1.458.73 3.103 1.142 4.844 1.142 5.981 0 10.829-4.848 10.829-10.829 0-1.741-.412-3.386-1.142-4.844 3.548 1.778 5.985 5.448 5.985 9.687 0 5.981-4.848 10.829-10.829 10.829-4.24 0-7.91-2.436-9.687-5.985z" fill="url(#SVGID_154_)"/></g><g><circle cx="376.525" cy="158.267" fill="url(#SVGID_155_)" r="10.829"/><path d="m366.838 163.111c1.458.73 3.103 1.142 4.844 1.142 5.981 0 10.829-4.848 10.829-10.829 0-1.741-.412-3.386-1.142-4.844 3.548 1.778 5.985 5.448 5.985 9.687 0 5.981-4.848 10.829-10.829 10.829-4.239 0-7.909-2.437-9.687-5.985z" fill="url(#SVGID_156_)"/></g><g><circle cx="397.973" cy="158.559" fill="url(#SVGID_157_)" r="10.829"/><path d="m388.286 163.403c1.458.73 3.103 1.142 4.844 1.142 5.981 0 10.829-4.848 10.829-10.829 0-1.741-.412-3.386-1.142-4.844 3.548 1.778 5.985 5.447 5.985 9.687 0 5.981-4.848 10.829-10.829 10.829-4.24-.001-7.909-2.437-9.687-5.985z" fill="url(#SVGID_158_)"/></g><g><circle cx="417.815" cy="154.036" fill="url(#SVGID_159_)" r="10.829"/><path d="m408.128 158.88c1.458.73 3.103 1.142 4.844 1.142 5.981 0 10.829-4.848 10.829-10.829 0-1.741-.412-3.386-1.142-4.844 3.548 1.778 5.985 5.448 5.985 9.687 0 5.981-4.848 10.829-10.829 10.829-4.239-.001-7.909-2.437-9.687-5.985z" fill="url(#SVGID_160_)"/></g><g><circle cx="437.074" cy="145.136" fill="url(#SVGID_161_)" r="10.829"/><path d="m427.387 149.98c1.458.73 3.103 1.142 4.844 1.142 5.981 0 10.829-4.848 10.829-10.829 0-1.741-.412-3.386-1.142-4.844 3.548 1.778 5.985 5.448 5.985 9.687 0 5.98-4.848 10.829-10.829 10.829-4.239-.001-7.909-2.437-9.687-5.985z" fill="url(#SVGID_162_)"/></g></g></g></g><path d="m382.5 313.798c19.53 0 38.031-2.644 54.576-7.363l-69.061-69.061v75.929c4.755.323 9.586.495 14.485.495z" fill="url(#SVGID_163_)"/><g><path d="m382.5 272.869c0-42.342-57.084-76.667-127.5-76.667s-127.5 34.325-127.5 76.667v99.635c0 42.342 57.084 76.667 127.5 76.667s127.5-34.325 127.5-76.667c0-.327 0-99.635 0-99.635z" fill="url(#SVGID_164_)"/><ellipse cx="255" cy="272.869" fill="url(#SVGID_165_)" rx="127.5" ry="76.667"/><ellipse cx="255" cy="267.227" fill="url(#SVGID_166_)" rx="91.943" ry="52.607"/><ellipse cx="255" cy="267.227" fill="url(#SVGID_167_)" rx="85.276" ry="47.607"/><path d="m185.822 239.406c-9.71 7.512-7.851 22.905 3.421 27.77 5.834 2.517 12.494 3.944 19.569 3.944 23.013 0 41.669-15.09 41.669-33.705 0-.064 0-.127-.001-.191-.068-9.96-9.247-17.319-19.082-15.741-18.575 2.98-34.546 9.389-45.576 17.923z" fill="url(#SVGID_168_)"/><g><path d="m243.142 218.049c-.065-.061-1.892-1.898-1.892-1.898-.085-.08-.17-.157-.257-.234-.3-.264-.611-.513-.939-.743-.036-.025-.068-.054-.105-.078-.365-.249-.748-.471-1.143-.674-.038-.02-.072-.046-.11-.065.003.005.004.01.007.015-1.46-.734-3.104-1.157-4.85-1.157-4.997 0-9.193 3.39-10.44 7.993-.112-.114-.229-.221-.345-.33-.085-.079-.17-.157-.257-.234-.3-.264-.611-.513-.939-.743-.035-.025-.068-.053-.104-.078-.365-.249-.748-.471-1.143-.674-.038-.02-.072-.046-.11-.065.002.005.004.01.007.015-1.461-.734-3.105-1.157-4.851-1.157-5.632 0-10.256 4.3-10.777 9.796-.017-.012-.034-.024-.05-.035-.365-.249-.748-.471-1.143-.674-.038-.02-.072-.046-.11-.065.002.005.004.01.006.015-1.461-.734-3.104-1.157-4.85-1.157-5.98 0-10.829 4.848-10.829 10.829 0 .392.028.777.07 1.158 15.614-11.07 39.819-18.186 67.016-18.186 25.66 0 48.655 6.336 64.288 16.349-3.373-3.373-5.606-5.603-5.672-5.665-.085-.079-.17-.157-.257-.233-.3-.264-.611-.513-.939-.743-.036-.025-.068-.053-.104-.078-.365-.249-.748-.471-1.143-.675-.038-.02-.072-.046-.11-.065.002.005.004.01.007.015-1.19-.598-2.506-.975-3.896-1.1l-8.149-8.077c-.085-.111-.158-.231-.247-.339-.033-.04-.071-.076-.105-.115-.255-.297-.528-.578-.813-.845-.085-.079-.17-.157-.257-.234-.3-.264-.611-.513-.939-.743-.036-.025-.069-.054-.104-.078-.365-.249-.748-.471-1.143-.674-.038-.02-.072-.046-.11-.065.003.005.004.01.007.015-1.461-.734-3.104-1.157-4.85-1.157-3.263 0-6.183 1.448-8.167 3.731-.016-.014-.031-.029-.047-.043l-2.481-2.37c-.085-.111-.158-.231-.247-.339-.033-.04-.071-.076-.105-.115-.255-.297-.528-.577-.813-.845-.085-.079-.17-.157-.257-.234-.3-.264-.611-.513-.939-.743-.036-.025-.068-.054-.104-.078-.365-.249-.749-.471-1.143-.674-.038-.02-.072-.046-.11-.065.002.005.004.01.007.015-1.461-.734-3.104-1.157-4.85-1.157-4.358 0-8.107 2.578-9.825 6.288l-2.036-2.039c-.085-.079-.17-.157-.257-.234-.3-.264-.611-.513-.939-.743-.036-.025-.068-.053-.104-.078-.365-.249-.748-.471-1.143-.674-.038-.02-.072-.046-.11-.065.002.005.004.01.007.015-1.461-.734-3.104-1.157-4.851-1.157-3.644-.005-6.848 1.792-8.812 4.537z" fill="url(#SVGID_169_)"/></g><path d="m340.276 267.227c0-4.891-1.325-9.608-3.779-14.049-6.219-6.22-12.727-12.73-17.208-17.209-15.634-10.013-38.629-16.349-64.289-16.349-27.197 0-51.402 7.117-67.016 18.186.143 1.315.518 2.56 1.087 3.693-.005-.003-.01-.004-.015-.007.019.038.045.072.065.11.204.395.425.778.674 1.143.024.036.053.069.078.104.23.328.48.64.743.94.077.087.154.172.233.257.268.286.549.559.846.814l1.514 1.531c-1.073 1.68-1.703 3.67-1.703 5.811 0 1.746.423 3.39 1.157 4.851-.005-.002-.01-.004-.015-.007.019.038.045.072.065.11.204.395.425.778.674 1.143.025.036.053.069.078.104.23.328.479.639.743.939.077.087.154.173.234.257.046.05.09.102.137.151-3.865 1.653-6.575 5.489-6.575 9.959 0 1.746.423 3.39 1.157 4.851-.005-.002-.01-.004-.015-.007.019.038.046.073.065.111.204.395.425.778.674 1.142.025.036.054.069.079.106.229.327.479.639.742.938l9.759 9.759c.015.017.031.034.046.051.103.249.201.5.321.739-.005-.002-.01-.004-.015-.007.019.038.045.072.065.11.204.395.426.779.675 1.144.024.035.052.068.077.103.23.328.48.64.744.941l21.958 21.958c9.518 2.049 19.849 3.184 30.661 3.184 47.099.001 85.279-21.313 85.279-47.605z" fill="url(#SVGID_170_)"/><g><g><circle cx="198.743" cy="236.649" fill="url(#SVGID_171_)" r="10.829"/><path d="m189.056 241.493c1.458.73 3.103 1.142 4.844 1.142 5.981 0 10.829-4.848 10.829-10.829 0-1.741-.412-3.386-1.142-4.844 3.548 1.778 5.985 5.448 5.985 9.687 0 5.981-4.848 10.829-10.829 10.829-4.239-.001-7.909-2.437-9.687-5.985z" fill="url(#SVGID_172_)"/></g><g><circle cx="215.668" cy="228.77" fill="url(#SVGID_173_)" r="10.829"/><path d="m205.981 233.614c1.458.73 3.103 1.142 4.844 1.142 5.98 0 10.829-4.848 10.829-10.829 0-1.741-.412-3.386-1.142-4.844 3.548 1.778 5.985 5.448 5.985 9.687 0 5.981-4.848 10.829-10.829 10.829-4.24 0-7.909-2.437-9.687-5.985z" fill="url(#SVGID_174_)"/></g><g><circle cx="233.851" cy="224.044" fill="url(#SVGID_175_)" r="10.829"/><path d="m224.165 228.888c1.458.73 3.103 1.142 4.844 1.142 5.981 0 10.829-4.848 10.829-10.829 0-1.741-.412-3.386-1.142-4.844 3.548 1.778 5.985 5.448 5.985 9.687 0 5.98-4.848 10.829-10.829 10.829-4.24 0-7.909-2.437-9.687-5.985z" fill="url(#SVGID_176_)"/></g><g><circle cx="251.943" cy="224.336" fill="url(#SVGID_177_)" r="10.829"/><path d="m242.256 229.18c1.458.73 3.103 1.142 4.844 1.142 5.981 0 10.829-4.848 10.829-10.829 0-1.741-.412-3.386-1.142-4.844 3.548 1.778 5.985 5.448 5.985 9.687 0 5.98-4.848 10.829-10.829 10.829-4.239-.001-7.909-2.437-9.687-5.985z" fill="url(#SVGID_178_)"/></g><g><circle cx="271.202" cy="223.023" fill="url(#SVGID_179_)" r="10.829"/><path d="m261.515 227.867c1.458.73 3.103 1.142 4.844 1.142 5.981 0 10.829-4.848 10.829-10.829 0-1.741-.412-3.386-1.142-4.844 3.548 1.778 5.985 5.448 5.985 9.687 0 5.981-4.848 10.829-10.829 10.829-4.239-.001-7.909-2.437-9.687-5.985z" fill="url(#SVGID_180_)"/></g><g><circle cx="290.461" cy="225.941" fill="url(#SVGID_181_)" r="10.829"/><path d="m280.774 230.785c1.458.73 3.103 1.142 4.844 1.142 5.981 0 10.829-4.848 10.829-10.829 0-1.741-.412-3.386-1.142-4.844 3.548 1.778 5.985 5.447 5.985 9.687 0 5.98-4.848 10.829-10.829 10.829-4.239-.001-7.909-2.437-9.687-5.985z" fill="url(#SVGID_182_)"/></g><g><circle cx="306.218" cy="238.196" fill="url(#SVGID_183_)" r="10.829"/><path d="m296.532 243.04c1.458.73 3.103 1.142 4.844 1.142 5.981 0 10.829-4.848 10.829-10.829 0-1.741-.412-3.386-1.142-4.844 3.548 1.778 5.985 5.448 5.985 9.687 0 5.981-4.848 10.829-10.829 10.829-4.24 0-7.909-2.436-9.687-5.985z" fill="url(#SVGID_184_)"/></g><g><circle cx="291.045" cy="242.282" fill="url(#SVGID_185_)" r="10.829"/><path d="m281.358 247.126c1.458.73 3.103 1.142 4.844 1.142 5.981 0 10.829-4.848 10.829-10.829 0-1.741-.412-3.386-1.142-4.844 3.548 1.778 5.985 5.448 5.985 9.687 0 5.981-4.848 10.829-10.829 10.829-4.239-.001-7.909-2.437-9.687-5.985z" fill="url(#SVGID_186_)"/></g><g><circle cx="277.622" cy="237.613" fill="url(#SVGID_187_)" r="10.829"/><path d="m267.935 242.457c1.458.73 3.103 1.142 4.844 1.142 5.981 0 10.829-4.848 10.829-10.829 0-1.741-.412-3.386-1.142-4.844 3.548 1.778 5.985 5.448 5.985 9.687 0 5.981-4.848 10.829-10.829 10.829-4.239 0-7.909-2.437-9.687-5.985z" fill="url(#SVGID_188_)"/></g><g><circle cx="263.615" cy="238.78" fill="url(#SVGID_189_)" r="10.829"/><path d="m253.928 243.624c1.458.73 3.103 1.142 4.844 1.142 5.98 0 10.829-4.848 10.829-10.829 0-1.741-.412-3.386-1.142-4.844 3.548 1.778 5.985 5.448 5.985 9.687 0 5.981-4.848 10.829-10.829 10.829-4.239 0-7.909-2.437-9.687-5.985z" fill="url(#SVGID_190_)"/></g><g><circle cx="244.356" cy="238.78" fill="url(#SVGID_191_)" r="10.829"/><path d="m234.67 243.624c1.458.73 3.103 1.142 4.844 1.142 5.98 0 10.829-4.848 10.829-10.829 0-1.741-.412-3.386-1.142-4.844 3.548 1.778 5.985 5.448 5.985 9.687 0 5.981-4.848 10.829-10.829 10.829-4.24 0-7.91-2.437-9.687-5.985z" fill="url(#SVGID_192_)"/></g><g><circle cx="228.599" cy="238.78" fill="url(#SVGID_193_)" r="10.829"/><path d="m218.912 243.624c1.458.73 3.103 1.142 4.844 1.142 5.981 0 10.829-4.848 10.829-10.829 0-1.741-.412-3.386-1.142-4.844 3.549 1.778 5.985 5.448 5.985 9.687 0 5.981-4.848 10.829-10.829 10.829-4.239 0-7.909-2.437-9.687-5.985z" fill="url(#SVGID_194_)"/></g><g><circle cx="212.842" cy="242.282" fill="url(#SVGID_195_)" r="10.829"/><path d="m203.155 247.126c1.458.73 3.103 1.142 4.844 1.142 5.98 0 10.829-4.848 10.829-10.829 0-1.741-.412-3.386-1.142-4.844 3.548 1.778 5.985 5.448 5.985 9.687 0 5.981-4.848 10.829-10.829 10.829-4.24-.001-7.909-2.437-9.687-5.985z" fill="url(#SVGID_196_)"/></g><g><circle cx="226.264" cy="255.704" fill="url(#SVGID_197_)" r="10.829"/><path d="m216.578 260.549c1.458.73 3.103 1.142 4.844 1.142 5.981 0 10.829-4.848 10.829-10.829 0-1.741-.412-3.386-1.142-4.844 3.549 1.778 5.985 5.447 5.985 9.687 0 5.98-4.848 10.829-10.829 10.829-4.24-.001-7.909-2.437-9.687-5.985z" fill="url(#SVGID_198_)"/></g><g><circle cx="243.189" cy="252.786" fill="url(#SVGID_199_)" r="10.829"/><path d="m233.502 257.631c1.458.73 3.103 1.142 4.844 1.142 5.98 0 10.829-4.848 10.829-10.829 0-1.741-.412-3.386-1.142-4.844 3.548 1.778 5.985 5.448 5.985 9.687 0 5.981-4.848 10.829-10.829 10.829-4.239-.001-7.909-2.437-9.687-5.985z" fill="url(#SVGID_200_)"/></g><g><circle cx="256.612" cy="251.619" fill="url(#SVGID_201_)" r="10.829"/><path d="m246.925 256.463c1.458.73 3.103 1.142 4.844 1.142 5.981 0 10.829-4.848 10.829-10.829 0-1.741-.412-3.386-1.142-4.844 3.548 1.778 5.985 5.448 5.985 9.687 0 5.981-4.848 10.829-10.829 10.829-4.239 0-7.909-2.436-9.687-5.985z" fill="url(#SVGID_202_)"/></g><g><circle cx="276.455" cy="254.537" fill="url(#SVGID_203_)" r="10.829"/><path d="m266.768 259.381c1.458.73 3.103 1.142 4.844 1.142 5.981 0 10.829-4.848 10.829-10.829 0-1.741-.412-3.386-1.142-4.844 3.548 1.778 5.985 5.448 5.985 9.687 0 5.98-4.848 10.829-10.829 10.829-4.24 0-7.909-2.436-9.687-5.985z" fill="url(#SVGID_204_)"/></g><g><circle cx="299.799" cy="255.704" fill="url(#SVGID_205_)" r="10.829"/><path d="m290.112 260.549c1.458.73 3.103 1.142 4.844 1.142 5.981 0 10.829-4.848 10.829-10.829 0-1.741-.412-3.386-1.142-4.844 3.548 1.778 5.985 5.447 5.985 9.687 0 5.98-4.848 10.829-10.829 10.829-4.239-.001-7.909-2.437-9.687-5.985z" fill="url(#SVGID_206_)"/></g><g><circle cx="286.376" cy="261.541" fill="url(#SVGID_207_)" r="10.829"/><path d="m276.689 266.385c1.458.73 3.103 1.142 4.844 1.142 5.981 0 10.829-4.848 10.829-10.829 0-1.741-.412-3.386-1.142-4.844 3.549 1.778 5.985 5.448 5.985 9.687 0 5.981-4.848 10.829-10.829 10.829-4.239-.001-7.909-2.437-9.687-5.985z" fill="url(#SVGID_208_)"/></g><g><circle cx="202.337" cy="252.203" fill="url(#SVGID_209_)" r="10.829"/><path d="m192.65 257.047c1.458.73 3.103 1.142 4.844 1.142 5.98 0 10.829-4.848 10.829-10.829 0-1.741-.412-3.386-1.142-4.844 3.548 1.778 5.985 5.448 5.985 9.687 0 5.981-4.848 10.829-10.829 10.829-4.24 0-7.909-2.437-9.687-5.985z" fill="url(#SVGID_210_)"/></g><g><circle cx="214.009" cy="263.291" fill="url(#SVGID_211_)" r="10.829"/><path d="m204.322 268.135c1.458.73 3.103 1.142 4.844 1.142 5.98 0 10.829-4.848 10.829-10.829 0-1.741-.412-3.386-1.142-4.844 3.548 1.778 5.985 5.448 5.985 9.687 0 5.981-4.848 10.829-10.829 10.829-4.239 0-7.909-2.436-9.687-5.985z" fill="url(#SVGID_212_)"/></g><g><circle cx="236.769" cy="268.544" fill="url(#SVGID_213_)" r="10.829"/><path d="m227.083 273.388c1.458.73 3.103 1.142 4.844 1.142 5.981 0 10.829-4.848 10.829-10.829 0-1.741-.412-3.386-1.142-4.844 3.549 1.778 5.985 5.448 5.985 9.687 0 5.981-4.848 10.829-10.829 10.829-4.24 0-7.909-2.437-9.687-5.985z" fill="url(#SVGID_214_)"/></g><g><circle cx="253.694" cy="266.209" fill="url(#SVGID_215_)" r="10.829"/><path d="m244.007 271.053c1.458.73 3.103 1.142 4.844 1.142 5.98 0 10.829-4.848 10.829-10.829 0-1.741-.412-3.386-1.142-4.844 3.548 1.778 5.985 5.448 5.985 9.687 0 5.98-4.848 10.829-10.829 10.829-4.239 0-7.909-2.436-9.687-5.985z" fill="url(#SVGID_216_)"/></g><g><circle cx="270.035" cy="266.209" fill="url(#SVGID_217_)" r="10.829"/><path d="m260.348 271.053c1.458.73 3.103 1.142 4.844 1.142 5.981 0 10.829-4.848 10.829-10.829 0-1.741-.412-3.386-1.142-4.844 3.548 1.778 5.985 5.448 5.985 9.687 0 5.98-4.848 10.829-10.829 10.829-4.239 0-7.909-2.436-9.687-5.985z" fill="url(#SVGID_218_)"/></g><g><circle cx="226.264" cy="273.796" fill="url(#SVGID_219_)" r="10.829"/><path d="m216.578 278.64c1.458.73 3.103 1.142 4.844 1.142 5.981 0 10.829-4.848 10.829-10.829 0-1.741-.412-3.386-1.142-4.844 3.549 1.778 5.985 5.448 5.985 9.687 0 5.981-4.848 10.829-10.829 10.829-4.24 0-7.909-2.436-9.687-5.985z" fill="url(#SVGID_220_)"/></g><g><circle cx="244.356" cy="282.55" fill="url(#SVGID_221_)" r="10.829"/><path d="m234.67 287.394c1.458.73 3.103 1.142 4.844 1.142 5.98 0 10.829-4.848 10.829-10.829 0-1.741-.412-3.386-1.142-4.844 3.548 1.778 5.985 5.448 5.985 9.687 0 5.981-4.848 10.829-10.829 10.829-4.24 0-7.91-2.436-9.687-5.985z" fill="url(#SVGID_222_)"/></g><g><circle cx="263.178" cy="281.675" fill="url(#SVGID_223_)" r="10.829"/><path d="m253.491 286.519c1.458.73 3.103 1.142 4.844 1.142 5.98 0 10.829-4.848 10.829-10.829 0-1.741-.412-3.386-1.142-4.844 3.548 1.778 5.985 5.448 5.985 9.687 0 5.981-4.848 10.829-10.829 10.829-4.24 0-7.909-2.437-9.687-5.985z" fill="url(#SVGID_224_)"/></g><g><circle cx="283.02" cy="278.611" fill="url(#SVGID_225_)" r="10.829"/><path d="m273.333 283.455c1.458.73 3.103 1.142 4.844 1.142 5.98 0 10.829-4.848 10.829-10.829 0-1.741-.412-3.386-1.142-4.844 3.548 1.778 5.985 5.448 5.985 9.687 0 5.981-4.848 10.829-10.829 10.829-4.239 0-7.909-2.436-9.687-5.985z" fill="url(#SVGID_226_)"/></g><g><circle cx="298.632" cy="272.629" fill="url(#SVGID_227_)" r="10.829"/><path d="m288.945 277.473c1.458.73 3.103 1.142 4.844 1.142 5.981 0 10.829-4.848 10.829-10.829 0-1.741-.412-3.386-1.142-4.844 3.548 1.778 5.985 5.448 5.985 9.687 0 5.981-4.848 10.829-10.829 10.829-4.24 0-7.909-2.436-9.687-5.985z" fill="url(#SVGID_228_)"/></g><g><circle cx="314.243" cy="261.832" fill="url(#SVGID_229_)" r="10.829"/><path d="m304.556 266.676c1.458.73 3.103 1.142 4.844 1.142 5.98 0 10.829-4.848 10.829-10.829 0-1.741-.412-3.386-1.142-4.844 3.548 1.778 5.985 5.448 5.985 9.687 0 5.981-4.848 10.829-10.829 10.829-4.239 0-7.909-2.436-9.687-5.985z" fill="url(#SVGID_230_)"/></g><g><circle cx="198.835" cy="269.711" fill="url(#SVGID_231_)" r="10.829"/><path d="m189.148 274.555c1.458.73 3.103 1.142 4.844 1.142 5.981 0 10.829-4.848 10.829-10.829 0-1.741-.412-3.386-1.142-4.844 3.548 1.778 5.985 5.448 5.985 9.687 0 5.981-4.848 10.829-10.829 10.829-4.239 0-7.909-2.436-9.687-5.985z" fill="url(#SVGID_232_)"/></g><g><circle cx="210.507" cy="282.55" fill="url(#SVGID_233_)" r="10.829"/><path d="m200.82 287.394c1.458.73 3.103 1.142 4.844 1.142 5.981 0 10.829-4.848 10.829-10.829 0-1.741-.412-3.386-1.142-4.844 3.548 1.778 5.985 5.448 5.985 9.687 0 5.981-4.848 10.829-10.829 10.829-4.239 0-7.909-2.436-9.687-5.985z" fill="url(#SVGID_234_)"/></g><g><circle cx="228.015" cy="288.386" fill="url(#SVGID_235_)" r="10.829"/><path d="m218.329 293.23c1.458.73 3.103 1.142 4.844 1.142 5.981 0 10.829-4.848 10.829-10.829 0-1.741-.412-3.386-1.142-4.844 3.549 1.778 5.985 5.448 5.985 9.687 0 5.981-4.848 10.829-10.829 10.829-4.24 0-7.91-2.436-9.687-5.985z" fill="url(#SVGID_236_)"/></g><g><circle cx="249.025" cy="293.639" fill="url(#SVGID_237_)" r="10.829"/><path d="m239.338 298.483c1.458.73 3.103 1.142 4.844 1.142 5.981 0 10.829-4.848 10.829-10.829 0-1.741-.412-3.386-1.142-4.844 3.549 1.778 5.985 5.448 5.985 9.687 0 5.981-4.848 10.829-10.829 10.829-4.239 0-7.909-2.437-9.687-5.985z" fill="url(#SVGID_238_)"/></g><g><circle cx="270.473" cy="293.931" fill="url(#SVGID_239_)" r="10.829"/><path d="m260.786 298.775c1.458.73 3.103 1.142 4.844 1.142 5.981 0 10.829-4.848 10.829-10.829 0-1.741-.412-3.386-1.142-4.844 3.548 1.778 5.985 5.448 5.985 9.687 0 5.98-4.848 10.829-10.829 10.829-4.24-.001-7.909-2.437-9.687-5.985z" fill="url(#SVGID_240_)"/></g><g><circle cx="290.315" cy="289.408" fill="url(#SVGID_241_)" r="10.829"/><path d="m280.628 294.252c1.458.73 3.103 1.142 4.844 1.142 5.981 0 10.829-4.848 10.829-10.829 0-1.741-.412-3.386-1.142-4.844 3.548 1.778 5.985 5.448 5.985 9.687 0 5.981-4.848 10.829-10.829 10.829-4.239 0-7.909-2.437-9.687-5.985z" fill="url(#SVGID_242_)"/></g><g><circle cx="309.574" cy="280.508" fill="url(#SVGID_243_)" r="10.829"/><path d="m299.887 285.352c1.458.73 3.103 1.142 4.844 1.142 5.981 0 10.829-4.848 10.829-10.829 0-1.741-.412-3.386-1.142-4.844 3.548 1.778 5.985 5.448 5.985 9.687 0 5.981-4.848 10.829-10.829 10.829-4.239 0-7.909-2.437-9.687-5.985z" fill="url(#SVGID_244_)"/></g></g></g></g></svg>